font.ufo
<glyph name="numbersign" format="2">
	<unicode hex="0023"/>
	<advance width="516"/>
	<outline>
		<contour>
			<point x="92" y="0" type="line"/>
			<point x="119" y="0" type="line"/>
			<point x="217" y="652" type="line"/>
			<point x="190" y="652" type="line"/>
		</contour>
		<contour>
			<point x="24" y="243" type="line"/>
			<point x="24" y="199" type="line"/>
			<point x="460" y="199" type="line"/>
			<point x="460" y="243" type="line"/>
		</contour>
		<contour>
			<point x="493" y="423" type="line"/>
			<point x="493" y="467" type="line"/>
			<point x="57" y="467" type="line"/>
			<point x="57" y="423" type="line"/>
		</contour>
		<contour>
			<point x="294" y="0" type="line"/>
			<point x="321" y="0" type="line"/>
			<point x="419" y="652" type="line"/>
			<point x="392" y="652" type="line"/>
		</contour>
	</outline>
</glyph>
<glyph name="period" format="2">
	<unicode hex="002E"/>
	<advance width="291"/>
	<outline>
		<contour>
			<point x="145" y="-11" type="curve" smooth="yes"/>
			<point x="171" y="-11"/>
			<point x="190" y="9"/>
			<point x="190" y="33" type="curve" smooth="yes"/>
			<point x="190" y="58"/>
			<point x="171" y="77"/>
			<point x="145" y="77" type="curve" smooth="yes"/>
			<point x="120" y="77"/>
			<point x="101" y="58"/>
			<point x="101" y="33" type="curve" smooth="yes"/>
			<point x="101" y="9"/>
			<point x="120" y="-11"/>
		</contour>
	</outline>
</glyph>
<glyph name="B" format="2">
	<unicode hex="0042"/>
	<advance width="589"/>
	<outline>
		<contour>
			<point x="51" y="0" type="line"/>
			<point x="178" y="0" type="line"/>
			<point x="178" y="33" type="line"/>
			<point x="167" y="33" type="line"/>
			<point x="51" y="23" type="line"/>
		</contour>
		<contour>
			<point x="148" y="0" type="curve"/>
			<point x="204" y="0" type="line"/>
			<point x="201" y="98"/>
			<point x="201" y="208"/>
			<point x="201" y="335" type="curve" smooth="yes"/>
			<point x="201" y="358" type="line" smooth="yes"/>
			<point x="201" y="467"/>
			<point x="201" y="577"/>
			<point x="204" y="674" type="curve"/>
			<point x="148" y="674" type="line"/>
			<point x="150" y="577"/>
			<point x="150" y="467"/>
			<point x="150" y="363" type="curve" smooth="yes"/>
			<point x="150" y="313" type="line" smooth="yes"/>
			<point x="150" y="208"/>
			<point x="150" y="97"/>
		</contour>
		<contour>
			<point x="174" y="0" type="line"/>
			<point x="305" y="0" type="line" smooth="yes"/>
			<point x="470" y="0"/>
			<point x="544" y="82"/>
			<point x="544" y="180" type="curve" smooth="yes"/>
			<point x="544" y="276"/>
			<point x="477" y="350"/>
			<point x="317" y="355" type="curve"/>
			<point x="311" y="347" type="line"/>
			<point x="449" y="358"/>
			<point x="510" y="432"/>
			<point x="510" y="515" type="curve" smooth="yes"/>
			<point x="510" y="610"/>
			<point x="441" y="674"/>
			<point x="300" y="674" type="curve" smooth="yes"/>
			<point x="174" y="674" type="line"/>
			<point x="174" y="647" type="line"/>
			<point x="283" y="647" type="line" smooth="yes"/>
			<point x="410" y="647"/>
			<point x="461" y="598"/>
			<point x="461" y="515" type="curve" smooth="yes"/>
			<point x="461" y="420"/>
			<point x="395" y="364"/>
			<point x="266" y="364" type="curve" smooth="yes"/>
			<point x="174" y="364" type="line"/>
			<point x="174" y="337" type="line"/>
			<point x="276" y="337" type="line" smooth="yes"/>
			<point x="426" y="337"/>
			<point x="491" y="281"/>
			<point x="491" y="181" type="curve" smooth="yes"/>
			<point x="491" y="82"/>
			<point x="422" y="27"/>
			<point x="298" y="27" type="curve" smooth="yes"/>
			<point x="174" y="27" type="line"/>
		</contour>
		<contour>
			<point x="51" y="650" type="line"/>
			<point x="167" y="641" type="line"/>
			<point x="178" y="641" type="line"/>
			<point x="178" y="674" type="line"/>
			<point x="51" y="674" type="line"/>
		</contour>
	</outline>
	<anchor name="aboveUC" x="286" y="694"/>
	<anchor name="belowLC" x="308" y="-20"/>
</glyph>
<glyph name="E" format="2">
	<unicode hex="0045"/>
	<advance width="585"/>
	<outline>
		<contour>
			<point x="51" y="0" type="line"/>
			<point x="177" y="0" type="line"/>
			<point x="177" y="33" type="line"/>
			<point x="167" y="33" type="line"/>
			<point x="51" y="23" type="line"/>
		</contour>
		<contour>
			<point x="148" y="0" type="curve"/>
			<point x="204" y="0" type="line"/>
			<point x="201" y="98"/>
			<point x="201" y="208"/>
			<point x="201" y="330" type="curve" smooth="yes"/>
			<point x="201" y="354" type="line" smooth="yes"/>
			<point x="201" y="467"/>
			<point x="201" y="577"/>
			<point x="204" y="674" type="curve"/>
			<point x="148" y="674" type="line"/>
			<point x="150" y="577"/>
			<point x="150" y="467"/>
			<point x="150" y="363" type="curve" smooth="yes"/>
			<point x="150" y="313" type="line" smooth="yes"/>
			<point x="150" y="208"/>
			<point x="150" y="97"/>
		</contour>
		<contour>
			<point x="176" y="0" type="line"/>
			<point x="533" y="0" type="line"/>
			<point x="543" y="167" type="line"/>
			<point x="514" y="167" type="line"/>
			<point x="487" y="11" type="line"/>
			<point x="510" y="28" type="line"/>
			<point x="176" y="28" type="line"/>
		</contour>
		<contour>
			<point x="176" y="329" type="line"/>
			<point x="390" y="329" type="line"/>
			<point x="390" y="356" type="line"/>
			<point x="176" y="356" type="line"/>
		</contour>
		<contour>
			<point x="387" y="232" type="line"/>
			<point x="411" y="232" type="line"/>
			<point x="411" y="453" type="line"/>
			<point x="387" y="453" type="line"/>
			<point x="373" y="352" type="line"/>
			<point x="373" y="334" type="line"/>
		</contour>
		<contour>
			<point x="51" y="650" type="line"/>
			<point x="167" y="641" type="line"/>
			<point x="177" y="641" type="line"/>
			<point x="177" y="674" type="line"/>
			<point x="51" y="674" type="line"/>
		</contour>
		<contour>
			<point x="498" y="510" type="line"/>
			<point x="528" y="510" type="line"/>
			<point x="518" y="674" type="line"/>
			<point x="175" y="674" type="line"/>
			<point x="175" y="646" type="line"/>
			<point x="496" y="646" type="line"/>
			<point x="472" y="664" type="line"/>
		</contour>
	</outline>
	<anchor name="aboveUC" x="318" y="694"/>
	<anchor name="belowLC" x="335" y="-20"/>
	<anchor name="ogonek" x="461" y="0"/>
</glyph>
<glyph name="G" format="2">
	<unicode hex="0047"/>
	<advance width="666"/>
	<outline>
		<contour>
			<point x="377" y="-14" type="curve" smooth="yes"/>
			<point x="453" y="-14"/>
			<point x="512" y="4"/>
			<point x="581" y="45" type="curve"/>
			<point x="581" y="95" type="line" smooth="yes"/>
			<point x="581" y="181"/>
			<point x="581" y="251"/>
			<point x="584" y="319" type="curve"/>
			<point x="528" y="319" type="line"/>
			<point x="530" y="246"/>
			<point x="531" y="171"/>
			<point x="531" y="95" type="curve" smooth="yes"/>
			<point x="531" y="40" type="line"/>
			<point x="554" y="65" type="line"/>
			<point x="498" y="30"/>
			<point x="445" y="14"/>
			<point x="381" y="14" type="curve" smooth="yes"/>
			<point x="218" y="14"/>
			<point x="114" y="136"/>
			<point x="114" y="337" type="curve" smooth="yes"/>
			<point x="114" y="536"/>
			<point x="222" y="660"/>
			<point x="384" y="660" type="curve" smooth="yes"/>
			<point x="454" y="660"/>
			<point x="501" y="642"/>
			<point x="555" y="600" type="curve"/>
			<point x="555" y="629" type="line"/>
			<point x="522" y="639" type="line"/>
			<point x="546" y="489" type="line"/>
			<point x="577" y="489" type="line"/>
			<point x="572" y="634" type="line"/>
			<point x="515" y="670"/>
			<point x="458" y="687"/>
			<point x="380" y="687" type="curve" smooth="yes"/>
			<point x="189" y="687"/>
			<point x="57" y="545"/>
			<point x="57" y="337" type="curve" smooth="yes"/>
			<point x="57" y="129"/>
			<point x="183" y="-14"/>
		</contour>
		<contour>
			<point x="416" y="296" type="line"/>
			<point x="544" y="288" type="line"/>
			<point x="561" y="288" type="line"/>
			<point x="652" y="296" type="line"/>
			<point x="652" y="319" type="line"/>
			<point x="416" y="319" type="line"/>
		</contour>
	</outline>
	<anchor name="aboveUC" x="374" y="694"/>
	<anchor name="belowLC" x="382" y="-20"/>
</glyph>
<glyph name="H" format="2">
	<unicode hex="0048"/>
	<advance width="767"/>
	<outline>
		<contour>
			<point x="51" y="0" type="line"/>
			<point x="301" y="0" type="line"/>
			<point x="301" y="23" type="line"/>
			<point x="184" y="33" type="line"/>
			<point x="167" y="33" type="line"/>
			<point x="51" y="23" type="line"/>
		</contour>
		<contour>
			<point x="148" y="0" type="curve"/>
			<point x="204" y="0" type="line"/>
			<point x="201" y="98"/>
			<point x="201" y="208"/>
			<point x="201" y="337" type="curve" smooth="yes"/>
			<point x="201" y="363" type="line" smooth="yes"/>
			<point x="201" y="467"/>
			<point x="201" y="577"/>
			<point x="204" y="674" type="curve"/>
			<point x="148" y="674" type="line"/>
			<point x="150" y="577"/>
			<point x="150" y="467"/>
			<point x="150" y="363" type="curve" smooth="yes"/>
			<point x="150" y="313" type="line" smooth="yes"/>
			<point x="150" y="208"/>
			<point x="150" y="97"/>
		</contour>
		<contour>
			<point x="175" y="338" type="line"/>
			<point x="592" y="338" type="line"/>
			<point x="592" y="366" type="line"/>
			<point x="175" y="366" type="line"/>
		</contour>
		<contour>
			<point x="466" y="0" type="line"/>
			<point x="716" y="0" type="line"/>
			<point x="716" y="23" type="line"/>
			<point x="600" y="33" type="line"/>
			<point x="583" y="33" type="line"/>
			<point x="466" y="23" type="line"/>
		</contour>
		<contour>
			<point x="563" y="0" type="curve"/>
			<point x="619" y="0" type="line"/>
			<point x="616" y="98"/>
			<point x="616" y="208"/>
			<point x="616" y="313" type="curve" smooth="yes"/>
			<point x="616" y="363" type="line" smooth="yes"/>
			<point x="616" y="467"/>
			<point x="616" y="577"/>
			<point x="619" y="674" type="curve"/>
			<point x="563" y="674" type="line"/>
			<point x="566" y="577"/>
			<point x="566" y="467"/>
			<point x="566" y="363" type="curve" smooth="yes"/>
			<point x="566" y="337" type="line" smooth="yes"/>
			<point x="566" y="208"/>
			<point x="566" y="97"/>
		</contour>
		<contour>
			<point x="51" y="650" type="line"/>
			<point x="167" y="641" type="line"/>
			<point x="184" y="641" type="line"/>
			<point x="301" y="650" type="line"/>
			<point x="301" y="674" type="line"/>
			<point x="51" y="674" type="line"/>
		</contour>
		<contour>
			<point x="466" y="650" type="line"/>
			<point x="583" y="641" type="line"/>
			<point x="600" y="641" type="line"/>
			<point x="716" y="650" type="line"/>
			<point x="716" y="674" type="line"/>
			<point x="466" y="674" type="line"/>
		</contour>
	</outline>
	<anchor name="aboveUC" x="383" y="694"/>
	<anchor name="belowLC" x="383" y="-20"/>
</glyph>
<glyph name="N" format="2">
	<unicode hex="004E"/>
	<advance width="720"/>
	<outline>
		<contour>
			<point x="45" y="0" type="line"/>
			<point x="271" y="0" type="line"/>
			<point x="271" y="23" type="line"/>
			<point x="158" y="33" type="line"/>
			<point x="144" y="33" type="line"/>
			<point x="45" y="23" type="line"/>
		</contour>
		<contour>
			<point x="134" y="0" type="line"/>
			<point x="164" y="0" type="line"/>
			<point x="164" y="336" type="line"/>
			<point x="164" y="654" type="line"/>
			<point x="134" y="654" type="line"/>
		</contour>
		<contour>
			<point x="456" y="650" type="line"/>
			<point x="570" y="641" type="line"/>
			<point x="584" y="641" type="line"/>
			<point x="680" y="650" type="line"/>
			<point x="680" y="674" type="line"/>
			<point x="456" y="674" type="line"/>
		</contour>
		<contour>
			<point x="569" y="-7" type="line"/>
			<point x="592" y="-7" type="line"/>
			<point x="592" y="674" type="line"/>
			<point x="562" y="674" type="line"/>
			<point x="562" y="337" type="line"/>
			<point x="562" y="66" type="line"/>
			<point x="575" y="70" type="line"/>
			<point x="176" y="674" type="line"/>
			<point x="41" y="674" type="line"/>
			<point x="41" y="650" type="line"/>
			<point x="136" y="645" type="line"/>
			<point x="158" y="611" type="line"/>
			<point x="159" y="611" type="line"/>
		</contour>
	</outline>
	<anchor name="aboveUC" x="358" y="694"/>
	<anchor name="belowLC" x="367" y="-20"/>
</glyph>
<glyph name="V" format="2">
	<unicode hex="0056"/>
	<advance width="645"/>
	<outline>
		<contour>
			<point x="313" y="-8" type="line"/>
			<point x="338" y="-8" type="line"/>
			<point x="561" y="674" type="line"/>
			<point x="528" y="674" type="line"/>
			<point x="330" y="58" type="line"/>
			<point x="326" y="45" type="line"/>
			<point x="342" y="45" type="line"/>
			<point x="134" y="674" type="line"/>
			<point x="80" y="674" type="line"/>
		</contour>
		<contour>
			<point x="7" y="650" type="line"/>
			<point x="113" y="641" type="line"/>
			<point x="130" y="641" type="line"/>
			<point x="247" y="649" type="line"/>
			<point x="247" y="674" type="line"/>
			<point x="7" y="674" type="line"/>
		</contour>
		<contour>
			<point x="417" y="649" type="line"/>
			<point x="525" y="641" type="line"/>
			<point x="540" y="641" type="line"/>
			<point x="636" y="650" type="line"/>
			<point x="636" y="674" type="line"/>
			<point x="417" y="674" type="line"/>
		</contour>
	</outline>
	<anchor name="aboveUC" x="328" y="694"/>
	<anchor name="belowLC" x="328" y="-20"/>
</glyph>
<glyph name="Z" format="2">
	<unicode hex="005A"/>
	<advance width="538"/>
	<outline>
		<contour>
			<point x="26" y="0" type="line"/>
			<point x="503" y="0" type="line"/>
			<point x="513" y="171" type="line"/>
			<point x="483" y="171" type="line"/>
			<point x="454" y="13" type="line"/>
			<point x="477" y="28" type="line"/>
			<point x="64" y="28" type="line"/>
			<point x="76" y="13" type="line"/>
			<point x="492" y="652" type="line"/>
			<point x="492" y="674" type="line"/>
			<point x="46" y="674" type="line"/>
			<point x="37" y="505" type="line"/>
			<point x="67" y="505" type="line"/>
			<point x="96" y="662" type="line"/>
			<point x="71" y="646" type="line"/>
			<point x="455" y="646" type="line"/>
			<point x="443" y="661" type="line"/>
			<point x="26" y="22" type="line"/>
		</contour>
	</outline>
	<anchor name="aboveUC" x="275" y="694"/>
	<anchor name="belowLC" x="274" y="-20"/>
</glyph>
<glyph name="bracketleft" format="2">
	<unicode hex="005B"/>
	<advance width="299"/>
	<outline>
		<contour>
			<point x="99" y="-159" type="curve"/>
			<point x="146" y="-159" type="line"/>
			<point x="143" y="-60"/>
			<point x="143" y="53"/>
			<point x="143" y="159" type="curve" smooth="yes"/>
			<point x="143" y="399" type="line" smooth="yes"/>
			<point x="143" y="505"/>
			<point x="143" y="618"/>
			<point x="146" y="715" type="curve"/>
			<point x="99" y="715" type="line"/>
			<point x="102" y="616"/>
			<point x="102" y="504"/>
			<point x="102" y="399" type="curve" smooth="yes"/>
			<point x="102" y="159" type="line" smooth="yes"/>
			<point x="102" y="52"/>
			<point x="102" y="-61"/>
		</contour>
		<contour>
			<point x="120" y="-159" type="line"/>
			<point x="257" y="-159" type="line"/>
			<point x="257" y="-135" type="line"/>
			<point x="136" y="-125" type="line"/>
			<point x="120" y="-125" type="line"/>
		</contour>
		<contour>
			<point x="120" y="681" type="line"/>
			<point x="136" y="681" type="line"/>
			<point x="257" y="691" type="line"/>
			<point x="257" y="715" type="line"/>
			<point x="120" y="715" type="line"/>
		</contour>
	</outline>
</glyph>
<glyph name="asciicircum" format="2">
	<unicode hex="005E"/>
	<advance width="521"/>
	<outline>
		<contour>
			<point x="87" y="231" type="line"/>
			<point x="113" y="213" type="line"/>
			<point x="272" y="472" type="line"/>
			<point x="247" y="472" type="line"/>
			<point x="411" y="213" type="line"/>
			<point x="437" y="231" type="line"/>
			<point x="275" y="490" type="line"/>
			<point x="245" y="490" type="line"/>
		</contour>
	</outline>
</glyph>
<glyph name="b" format="2">
	<unicode hex="0062"/>
	<advance width="565"/>
	<outline>
		<contour>
			<point x="41" y="0" type="line"/>
			<point x="167" y="-6" type="line"/>
			<point x="171" y="75" type="line"/>
			<point x="171" y="77" type="line"/>
			<point x="171" y="379" type="line"/>
			<point x="170" y="387" type="line"/>
			<point x="170" y="586" type="line"/>
			<point x="173" y="738" type="line"/>
			<point x="160" y="745" type="line"/>
			<point x="39" y="723" type="line"/>
			<point x="39" y="701" type="line"/>
			<point x="125" y="697" type="line"/>
			<point x="125" y="210" type="line" smooth="yes"/>
			<point x="125" y="157"/>
			<point x="124" y="84"/>
			<point x="123" y="30" type="curve"/>
			<point x="41" y="22" type="line"/>
		</contour>
		<contour>
			<point x="320" y="-13" type="curve" smooth="yes"/>
			<point x="434" y="-13"/>
			<point x="517" y="83"/>
			<point x="517" y="240" type="curve" smooth="yes"/>
			<point x="517" y="387"/>
			<point x="437" y="478"/>
			<point x="328" y="478" type="curve" smooth="yes"/>
			<point x="269" y="478"/>
			<point x="208" y="450"/>
			<point x="159" y="382" type="curve"/>
			<point x="149" y="382" type="line"/>
			<point x="158" y="355" type="line"/>
			<point x="213" y="421"/>
			<point x="263" y="446"/>
			<point x="315" y="446" type="curve" smooth="yes"/>
			<point x="403" y="446"/>
			<point x="466" y="374"/>
			<point x="466" y="237" type="curve" smooth="yes"/>
			<point x="466" y="86"/>
			<point x="396" y="20"/>
			<point x="314" y="20" type="curve" smooth="yes"/>
			<point x="258" y="20"/>
			<point x="211" y="45"/>
			<point x="158" y="105" type="curve"/>
			<point x="150" y="78" type="line"/>
			<point x="160" y="78" type="line"/>
			<point x="208" y="10"/>
			<point x="266" y="-13"/>
		</contour>
	</outline>
	<anchor name="aboveLC" x="141" y="746"/>
	<anchor name="belowLC" x="318" y="-20"/>
</glyph>
<glyph name="i" format="2">
	<unicode hex="0069"/>
	<advance width="292"/>
	<outline>
		<contour>
			<point x="42" y="0" type="line"/>
			<point x="250" y="0" type="line"/>
			<point x="250" y="22" type="line"/>
			<point x="155" y="32" type="line"/>
			<point x="142" y="32" type="line"/>
			<point x="42" y="22" type="line"/>
		</contour>
		<contour>
			<point x="123" y="0" type="curve"/>
			<point x="175" y="0" type="line"/>
			<point x="173" y="45"/>
			<point x="172" y="148"/>
			<point x="172" y="210" type="curve" smooth="yes"/>
			<point x="172" y="347" type="line"/>
			<point x="175" y="468" type="line"/>
			<point x="164" y="475" type="line"/>
			<point x="37" y="447" type="line"/>
			<point x="37" y="425" type="line"/>
			<point x="123" y="421" type="line"/>
			<point x="125" y="372"/>
			<point x="126" y="320"/>
			<point x="126" y="257" type="curve" smooth="yes"/>
			<point x="126" y="210" type="line" smooth="yes"/>
			<point x="126" y="148"/>
			<point x="125" y="45"/>
		</contour>
		<contour>
			<point x="143" y="609" type="curve" smooth="yes"/>
			<point x="166" y="609"/>
			<point x="186" y="626"/>
			<point x="186" y="651" type="curve" smooth="yes"/>
			<point x="186" y="676"/>
			<point x="166" y="693"/>
			<point x="143" y="693" type="curve" smooth="yes"/>
			<point x="120" y="693"/>
			<point x="100" y="676"/>
			<point x="100" y="651" type="curve" smooth="yes"/>
			<point x="100" y="626"/>
			<point x="120" y="609"/>
		</contour>
	</outline>
	<anchor name="aboveLC" x="146" y="693"/>
	<anchor name="belowLC" x="152" y="-20"/>
	<anchor name="ogonek" x="179" y="0"/>
</glyph>
<glyph name="l" format="2">
	<unicode hex="006C"/>
	<advance width="292"/>
	<outline>
		<contour>
			<point x="35" y="0" type="line"/>
			<point x="258" y="0" type="line"/>
			<point x="258" y="22" type="line"/>
			<point x="153" y="32" type="line"/>
			<point x="141" y="32" type="line"/>
			<point x="35" y="22" type="line"/>
		</contour>
		<contour>
			<point x="122" y="0" type="curve"/>
			<point x="174" y="0" type="line"/>
			<point x="172" y="52"/>
			<point x="171" y="146"/>
			<point x="171" y="210" type="curve" smooth="yes"/>
			<point x="171" y="588" type="line"/>
			<point x="174" y="738" type="line"/>
			<point x="162" y="745" type="line"/>
			<point x="39" y="723" type="line"/>
			<point x="39" y="701" type="line"/>
			<point x="125" y="697" type="line"/>
			<point x="125" y="210" type="line" smooth="yes"/>
			<point x="125" y="146"/>
			<point x="124" y="52"/>
		</contour>
	</outline>
	<anchor name="aboveLC" x="141" y="746"/>
	<anchor name="belowLC" x="149" y="-20"/>
</glyph>
<glyph name="r" format="2">
	<unicode hex="0072"/>
	<advance width="402"/>
	<outline>
		<contour>
			<point x="41" y="0" type="line"/>
			<point x="263" y="0" type="line"/>
			<point x="263" y="22" type="line"/>
			<point x="155" y="32" type="line"/>
			<point x="142" y="32" type="line"/>
			<point x="41" y="22" type="line"/>
		</contour>
		<contour>
			<point x="122" y="0" type="curve"/>
			<point x="175" y="0" type="line"/>
			<point x="172" y="45"/>
			<point x="171" y="148"/>
			<point x="171" y="210" type="curve" smooth="yes"/>
			<point x="171" y="334" type="line"/>
			<point x="171" y="335" type="line"/>
			<point x="167" y="468" type="line"/>
			<point x="157" y="475" type="line"/>
			<point x="36" y="447" type="line"/>
			<point x="36" y="425" type="line"/>
			<point x="122" y="421" type="line"/>
			<point x="124" y="372"/>
			<point x="125" y="321"/>
			<point x="125" y="257" type="curve" smooth="yes"/>
			<point x="125" y="210" type="line" smooth="yes"/>
			<point x="125" y="148"/>
			<point x="124" y="45"/>
		</contour>
		<contour>
			<point x="169" y="292" type="line"/>
			<point x="204" y="388"/>
			<point x="255" y="439"/>
			<point x="321" y="452" type="curve"/>
			<point x="279" y="451" type="line"/>
			<point x="300" y="432" type="line" smooth="yes"/>
			<point x="319" y="416"/>
			<point x="334" y="407"/>
			<point x="354" y="407" type="curve" smooth="yes"/>
			<point x="379" y="407"/>
			<point x="393" y="420"/>
			<point x="393" y="447" type="curve"/>
			<point x="386" y="465"/>
			<point x="359" y="478"/>
			<point x="327" y="478" type="curve" smooth="yes"/>
			<point x="261" y="478"/>
			<point x="197" y="420"/>
			<point x="168" y="334" type="curve"/>
			<point x="157" y="334" type="line"/>
		</contour>
	</outline>
	<anchor name="aboveLC" x="231" y="486"/>
	<anchor name="belowLC" x="148" y="-20"/>
</glyph>
<glyph name="z" format="2">
	<unicode hex="007A"/>
	<advance width="444"/>
	<outline>
		<contour>
			<point x="44" y="0" type="line"/>
			<point x="403" y="0" type="line"/>
			<point x="411" y="147" type="line"/>
			<point x="384" y="147" type="line"/>
			<point x="356" y="10" type="line"/>
			<point x="378" y="25" type="line"/>
			<point x="79" y="25" type="line"/>
			<point x="88" y="9" type="line"/>
			<point x="396" y="444" type="line"/>
			<point x="396" y="466" type="line"/>
			<point x="54" y="466" type="line"/>
			<point x="48" y="332" type="line"/>
			<point x="74" y="328" type="line"/>
			<point x="100" y="456" type="line"/>
			<point x="77" y="441" type="line"/>
			<point x="360" y="441" type="line"/>
			<point x="352" y="456" type="line"/>
			<point x="44" y="21" type="line"/>
		</contour>
	</outline>
	<anchor name="aboveLC" x="232" y="486"/>
	<anchor name="belowLC" x="232" y="-20"/>
</glyph>
<glyph name="asciitilde" format="2">
	<unicode hex="007E"/>
	<advance width="521"/>
	<outline>
		<contour>
			<point x="274" y="354" type="curve" smooth="yes"/>
			<point x="242" y="385"/>
			<point x="210" y="407"/>
			<point x="166" y="407" type="curve" smooth="yes"/>
			<point x="103" y="407"/>
			<point x="63" y="363"/>
			<point x="57" y="291" type="curve"/>
			<point x="87" y="286" type="line"/>
			<point x="96" y="350"/>
			<point x="124" y="374"/>
			<point x="164" y="374" type="curve" smooth="yes"/>
			<point x="198" y="374"/>
			<point x="220" y="359"/>
			<point x="249" y="331" type="curve" smooth="yes"/>
			<point x="283" y="299"/>
			<point x="313" y="279"/>
			<point x="357" y="279" type="curve" smooth="yes"/>
			<point x="421" y="279"/>
			<point x="460" y="325"/>
			<point x="465" y="395" type="curve"/>
			<point x="436" y="400" type="line"/>
			<point x="427" y="337"/>
			<point x="399" y="312"/>
			<point x="359" y="312" type="curve" smooth="yes"/>
			<point x="327" y="312"/>
			<point x="303" y="326"/>
		</contour>
	</outline>
</glyph>
<glyph name="cent" format="2">
	<unicode hex="00A2"/>
	<advance width="485"/>
	<outline>
		<contour>
			<point x="276" y="-48" type="line"/>
			<point x="276" y="665" type="line"/>
			<point x="249" y="665" type="line"/>
			<point x="249" y="-48" type="line"/>
		</contour>
		<contour>
			<point x="272" y="536" type="curve" smooth="yes"/>
			<point x="309" y="536"/>
			<point x="341" y="526"/>
			<point x="377" y="499" type="curve"/>
			<point x="344" y="531" type="line"/>
			<point x="367" y="459" type="line" smooth="yes"/>
			<point x="374" y="433"/>
			<point x="385" y="422"/>
			<point x="404" y="422" type="curve" smooth="yes"/>
			<point x="420" y="422"/>
			<point x="430" y="431"/>
			<point x="433" y="448" type="curve"/>
			<point x="412" y="519"/>
			<point x="349" y="562"/>
			<point x="273" y="562" type="curve" smooth="yes"/>
			<point x="158" y="562"/>
			<point x="51" y="471"/>
			<point x="51" y="314" type="curve" smooth="yes"/>
			<point x="51" y="162"/>
			<point x="140" y="67"/>
			<point x="264" y="67" type="curve" smooth="yes"/>
			<point x="342" y="67"/>
			<point x="399" y="103"/>
			<point x="435" y="164" type="curve"/>
			<point x="421" y="174" type="line"/>
			<point x="383" y="129"/>
			<point x="330" y="105"/>
			<point x="271" y="105" type="curve" smooth="yes"/>
			<point x="170" y="105"/>
			<point x="101" y="191"/>
			<point x="101" y="319" type="curve" smooth="yes"/>
			<point x="101" y="451"/>
			<point x="174" y="536"/>
		</contour>
	</outline>
</glyph>
<glyph name="sterling" format="2">
	<unicode hex="00A3"/>
	<advance width="485"/>
	<outline>
		<contour>
			<point x="39" y="298" type="line"/>
			<point x="378" y="298" type="line"/>
			<point x="378" y="327" type="line"/>
			<point x="39" y="327" type="line"/>
		</contour>
		<contour>
			<point x="38" y="0" type="line"/>
			<point x="449" y="0" type="line"/>
			<point x="449" y="44" type="line"/>
			<point x="72" y="44" type="line"/>
			<point x="72" y="33" type="line"/>
			<point x="145" y="83"/>
			<point x="186" y="153"/>
			<point x="186" y="247" type="curve" smooth="yes"/>
			<point x="186" y="347"/>
			<point x="144" y="401"/>
			<point x="144" y="497" type="curve" smooth="yes"/>
			<point x="144" y="585"/>
			<point x="192" y="639"/>
			<point x="272" y="639" type="curve" smooth="yes"/>
			<point x="310" y="639"/>
			<point x="339" y="629"/>
			<point x="380" y="600" type="curve"/>
			<point x="343" y="632" type="line"/>
			<point x="372" y="553" type="line" smooth="yes"/>
			<point x="380" y="526"/>
			<point x="391" y="516"/>
			<point x="407" y="516" type="curve" smooth="yes"/>
			<point x="421" y="516"/>
			<point x="431" y="523"/>
			<point x="436" y="537" type="curve"/>
			<point x="414" y="614"/>
			<point x="353" y="664"/>
			<point x="267" y="664" type="curve" smooth="yes"/>
			<point x="164" y="664"/>
			<point x="93" y="596"/>
			<point x="93" y="495" type="curve" smooth="yes"/>
			<point x="93" y="392"/>
			<point x="152" y="339"/>
			<point x="152" y="238" type="curve" smooth="yes"/>
			<point x="152" y="152"/>
			<point x="115" y="86"/>
			<point x="38" y="30" type="curve"/>
		</contour>
	</outline>
</glyph>
<glyph name="brokenbar" format="2">
	<unicode hex="00A6"/>
	<advance width="243"/>
	<outline>
		<contour>
			<point x="104" y="-251" type="line"/>
			<point x="140" y="-251" type="line"/>
			<point x="140" y="200" type="line"/>
			<point x="104" y="200" type="line"/>
		</contour>
		<contour>
			<point x="140" y="320" type="line"/>
			<point x="140" y="749" type="line"/>
			<point x="104" y="749" type="line"/>
			<point x="104" y="320" type="line"/>
		</contour>
	</outline>
</glyph>
<glyph name="section" format="2">
	<unicode hex="00A7"/>
	<advance width="479"/>
	<outline>
		<contour>
			<point x="220" y="-106" type="curve" smooth="yes"/>
			<point x="330" y="-106"/>
			<point x="383" y="-49"/>
			<point x="383" y="27" type="curve" smooth="yes"/>
			<point x="383" y="86"/>
			<point x="351" y="121"/>
			<point x="309" y="147" type="curve"/>
			<point x="308" y="151" type="line"/>
			<point x="285" y="166"/>
			<point x="254" y="181"/>
			<point x="223" y="195" type="curve" smooth="yes"/>
			<point x="130" y="237"/>
			<point x="99" y="266"/>
			<point x="99" y="321" type="curve" smooth="yes"/>
			<point x="99" y="369"/>
			<point x="123" y="408"/>
			<point x="194" y="435" type="curve"/>
			<point x="183" y="459" type="line"/>
			<point x="183" y="452" type="line"/>
			<point x="99" y="425"/>
			<point x="60" y="372"/>
			<point x="60" y="310" type="curve" smooth="yes"/>
			<point x="60" y="235"/>
			<point x="111" y="196"/>
			<point x="202" y="155" type="curve" smooth="yes"/>
			<point x="299" y="111"/>
			<point x="343" y="82"/>
			<point x="343" y="18" type="curve" smooth="yes"/>
			<point x="343" y="-44"/>
			<point x="300" y="-82"/>
			<point x="217" y="-82" type="curve" smooth="yes"/>
			<point x="182" y="-82"/>
			<point x="155" y="-73"/>
			<point x="129" y="-57" type="curve"/>
			<point x="154" y="-81" type="line"/>
			<point x="123" y="-6" type="line" smooth="yes"/>
			<point x="115" y="14"/>
			<point x="104" y="24"/>
			<point x="88" y="24" type="curve" smooth="yes"/>
			<point x="74" y="24"/>
			<point x="64" y="16"/>
			<point x="60" y="0" type="curve"/>
			<point x="75" y="-65"/>
			<point x="136" y="-106"/>
		</contour>
		<contour>
			<point x="262" y="687" type="curve" smooth="yes"/>
			<point x="157" y="687"/>
			<point x="102" y="632"/>
			<point x="102" y="557" type="curve" smooth="yes"/>
			<point x="102" y="504"/>
			<point x="127" y="469"/>
			<point x="173" y="441" type="curve"/>
			<point x="174" y="438" type="line"/>
			<point x="198" y="422"/>
			<point x="227" y="407"/>
			<point x="259" y="393" type="curve" smooth="yes"/>
			<point x="353" y="351"/>
			<point x="386" y="320"/>
			<point x="386" y="268" type="curve" smooth="yes"/>
			<point x="386" y="217"/>
			<point x="358" y="180"/>
			<point x="291" y="153" type="curve"/>
			<point x="301" y="129" type="line"/>
			<point x="301" y="136" type="line"/>
			<point x="386" y="163"/>
			<point x="425" y="217"/>
			<point x="425" y="276" type="curve" smooth="yes"/>
			<point x="425" y="350"/>
			<point x="378" y="388"/>
			<point x="281" y="433" type="curve" smooth="yes"/>
			<point x="187" y="475"/>
			<point x="142" y="502"/>
			<point x="142" y="566" type="curve" smooth="yes"/>
			<point x="142" y="627"/>
			<point x="183" y="663"/>
			<point x="264" y="663" type="curve" smooth="yes"/>
			<point x="300" y="663"/>
			<point x="326" y="655"/>
			<point x="353" y="637" type="curve"/>
			<point x="325" y="663" type="line"/>
			<point x="356" y="588" type="line" smooth="yes"/>
			<point x="364" y="568"/>
			<point x="375" y="558"/>
			<point x="391" y="558" type="curve" smooth="yes"/>
			<point x="405" y="558"/>
			<point x="414" y="566"/>
			<point x="418" y="581" type="curve"/>
			<point x="402" y="649"/>
			<point x="341" y="687"/>
		</contour>
	</outline>
</glyph>
<glyph name="copyright" format="2">
	<unicode hex="00A9"/>
	<advance width="758"/>
	<outline>
		<contour>
			<point x="379" y="-14" type="curve" smooth="yes"/>
			<point x="570" y="-14"/>
			<point x="728" y="120"/>
			<point x="728" y="339" type="curve" smooth="yes"/>
			<point x="728" y="557"/>
			<point x="570" y="687"/>
			<point x="379" y="687" type="curve" smooth="yes"/>
			<point x="188" y="687"/>
			<point x="30" y="557"/>
			<point x="30" y="339" type="curve" smooth="yes"/>
			<point x="30" y="120"/>
			<point x="188" y="-14"/>
		</contour>
		<contour>
			<point x="379" y="11" type="curve" smooth="yes"/>
			<point x="201" y="11"/>
			<point x="62" y="135"/>
			<point x="62" y="339" type="curve" smooth="yes"/>
			<point x="62" y="540"/>
			<point x="201" y="662"/>
			<point x="379" y="662" type="curve" smooth="yes"/>
			<point x="558" y="662"/>
			<point x="696" y="539"/>
			<point x="696" y="339" type="curve" smooth="yes"/>
			<point x="696" y="139"/>
			<point x="559" y="11"/>
		</contour>
		<contour>
			<point x="393" y="131" type="curve" smooth="yes"/>
			<point x="435" y="131"/>
			<point x="471" y="138"/>
			<point x="510" y="161" type="curve"/>
			<point x="513" y="250" type="line"/>
			<point x="488" y="250" type="line"/>
			<point x="471" y="159" type="line"/>
			<point x="498" y="185" type="line"/>
			<point x="466" y="161"/>
			<point x="429" y="154"/>
			<point x="395" y="154" type="curve" smooth="yes"/>
			<point x="308" y="154"/>
			<point x="245" y="222"/>
			<point x="245" y="339" type="curve" smooth="yes"/>
			<point x="245" y="456"/>
			<point x="308" y="526"/>
			<point x="398" y="526" type="curve" smooth="yes"/>
			<point x="434" y="526"/>
			<point x="462" y="517"/>
			<point x="495" y="493" type="curve"/>
			<point x="466" y="522" type="line"/>
			<point x="483" y="430" type="line"/>
			<point x="509" y="430" type="line"/>
			<point x="505" y="519" type="line"/>
			<point x="469" y="541"/>
			<point x="437" y="549"/>
			<point x="394" y="549" type="curve" smooth="yes"/>
			<point x="282" y="549"/>
			<point x="200" y="464"/>
			<point x="200" y="339" type="curve" smooth="yes"/>
			<point x="200" y="215"/>
			<point x="278" y="131"/>
		</contour>
	</outline>
</glyph>
<glyph name="logicalnot" format="2">
	<unicode hex="00AC"/>
	<advance width="521"/>
	<outline>
		<contour>
			<point x="33" y="355" type="line"/>
			<point x="458" y="355" type="line"/>
			<point x="448" y="366" type="line"/>
			<point x="448" y="171" type="line"/>
			<point x="484" y="171" type="line"/>
			<point x="484" y="388" type="line"/>
			<point x="33" y="388" type="line"/>
		</contour>
	</outline>
</glyph>
<glyph name="plusminus" format="2">
	<unicode hex="00B1"/>
	<advance width="521"/>
	<outline>
		<contour>
			<point x="243" y="100" type="line"/>
			<point x="278" y="100" type="line"/>
			<point x="278" y="562" type="line"/>
			<point x="243" y="562" type="line"/>
		</contour>
		<contour>
			<point x="486" y="318" type="line"/>
			<point x="486" y="351" type="line"/>
			<point x="35" y="351" type="line"/>
			<point x="35" y="318" type="line"/>
		</contour>
		<contour>
			<point x="486" y="0" type="line"/>
			<point x="486" y="33" type="line"/>
			<point x="35" y="33" type="line"/>
			<point x="35" y="0" type="line"/>
		</contour>
	</outline>
</glyph>
<glyph name="eth" format="2">
	<unicode hex="00F0"/>
	<advance width="527"/>
	<outline>
		<contour>
			<point x="259" y="-13" type="curve" smooth="yes"/>
			<point x="386" y="-13"/>
			<point x="473" y="87"/>
			<point x="473" y="269" type="curve" smooth="yes"/>
			<point x="473" y="487"/>
			<point x="372" y="651"/>
			<point x="158" y="756" type="curve"/>
			<point x="145" y="735" type="line"/>
			<point x="340" y="628"/>
			<point x="403" y="503"/>
			<point x="427" y="328" type="curve"/>
			<point x="436" y="323" type="line"/>
			<point x="411" y="416"/>
			<point x="344" y="469"/>
			<point x="260" y="469" type="curve" smooth="yes"/>
			<point x="147" y="469"/>
			<point x="49" y="382"/>
			<point x="49" y="228" type="curve" smooth="yes"/>
			<point x="49" y="73"/>
			<point x="145" y="-13"/>
		</contour>
		<contour>
			<point x="261" y="13" type="curve" smooth="yes"/>
			<point x="169" y="13"/>
			<point x="100" y="92"/>
			<point x="100" y="227" type="curve" smooth="yes"/>
			<point x="100" y="366"/>
			<point x="168" y="443"/>
			<point x="261" y="443" type="curve" smooth="yes"/>
			<point x="351" y="443"/>
			<point x="424" y="373"/>
			<point x="424" y="233" type="curve" smooth="yes"/>
			<point x="424" y="100"/>
			<point x="360" y="13"/>
		</contour>
		<contour>
			<point x="156" y="543" type="line"/>
			<point x="480" y="713" type="line"/>
			<point x="469" y="735" type="line"/>
			<point x="145" y="565" type="line"/>
		</contour>
	</outline>
</glyph>
<glyph name="aogonek" format="2">
	<unicode hex="0105"/>
	<advance width="493"/>
	<outline>
		<contour>
			<point x="174" y="-13" type="curve" smooth="yes"/>
			<point x="237" y="-13"/>
			<point x="280" y="16"/>
			<point x="339" y="81" type="curve"/>
			<point x="360" y="81" type="line"/>
			<point x="340" y="109" type="line"/>
			<point x="277" y="46"/>
			<point x="240" y="24"/>
			<point x="191" y="24" type="curve" smooth="yes"/>
			<point x="136" y="24"/>
			<point x="100" y="55"/>
			<point x="100" y="113" type="curve" smooth="yes"/>
			<point x="100" y="158"/>
			<point x="128" y="196"/>
			<point x="209" y="227" type="curve" smooth="yes"/>
			<point x="251" y="243"/>
			<point x="308" y="258"/>
			<point x="357" y="270" type="curve"/>
			<point x="357" y="291" type="line"/>
			<point x="306" y="280"/>
			<point x="249" y="267"/>
			<point x="201" y="251" type="curve" smooth="yes"/>
			<point x="93" y="214"/>
			<point x="51" y="169"/>
			<point x="51" y="104" type="curve" smooth="yes"/>
			<point x="51" y="28"/>
			<point x="104" y="-13"/>
		</contour>
		<contour>
			<point x="408" y="-219" type="curve" smooth="yes"/>
			<point x="446" y="-219"/>
			<point x="479" y="-202"/>
			<point x="498" y="-175" type="curve"/>
			<point x="488" y="-163" type="line"/>
			<point x="467" y="-180"/>
			<point x="448" y="-185"/>
			<point x="426" y="-185" type="curve" smooth="yes"/>
			<point x="388" y="-185"/>
			<point x="360" y="-160"/>
			<point x="360" y="-114" type="curve" smooth="yes"/>
			<point x="360" y="-72"/>
			<point x="399" y="-33"/>
			<point x="443" y="-4" type="curve" smooth="yes"/>
			<point x="457" y="6"/>
			<point x="467" y="13"/>
			<point x="477" y="26" type="curve"/>
			<point x="466" y="39" type="line"/>
			<point x="450" y="26"/>
			<point x="437" y="20"/>
			<point x="421" y="20" type="curve" smooth="yes"/>
			<point x="395" y="20"/>
			<point x="380" y="40"/>
			<point x="380" y="98" type="curve" smooth="yes"/>
			<point x="380" y="326" type="line" smooth="yes"/>
			<point x="380" y="433"/>
			<point x="333" y="478"/>
			<point x="236" y="478" type="curve" smooth="yes"/>
			<point x="151" y="478"/>
			<point x="84" y="437"/>
			<point x="65" y="363" type="curve"/>
			<point x="67" y="346"/>
			<point x="78" y="336"/>
			<point x="95" y="336" type="curve" smooth="yes"/>
			<point x="111" y="336"/>
			<point x="124" y="346"/>
			<point x="129" y="365" type="curve" smooth="yes"/>
			<point x="147" y="442" type="line"/>
			<point x="116" y="416" type="line"/>
			<point x="158" y="443"/>
			<point x="190" y="452"/>
			<point x="226" y="452" type="curve" smooth="yes"/>
			<point x="299" y="452"/>
			<point x="334" y="423"/>
			<point x="334" y="318" type="curve" smooth="yes"/>
			<point x="334" y="88" type="line"/>
			<point x="334" y="86" type="line" smooth="yes"/>
			<point x="334" y="24"/>
			<point x="358" y="-10"/>
			<point x="412" y="-10" type="curve" smooth="yes"/>
			<point x="413" y="-10"/>
			<point x="416" y="-10"/>
			<point x="420" y="-9" type="curve"/>
			<point x="419" y="-4" type="line"/>
			<point x="366" y="-36"/>
			<point x="321" y="-78"/>
			<point x="321" y="-131" type="curve" smooth="yes"/>
			<point x="321" y="-186"/>
			<point x="359" y="-219"/>
		</contour>
	</outline>
	<anchor name="aboveLC" x="231" y="486"/>
	<anchor name="belowLC" x="237" y="-20"/>
</glyph>
<glyph name="Hbar" format="2">
	<unicode hex="0126"/>
	<advance width="767"/>
	<outline>
		<contour>
			<point x="148" y="0" type="curve"/>
			<point x="204" y="0" type="line"/>
			<point x="201" y="98"/>
			<point x="201" y="208"/>
			<point x="201" y="331" type="curve" smooth="yes"/>
			<point x="201" y="363" type="line" smooth="yes"/>
			<point x="201" y="467"/>
			<point x="201" y="577"/>
			<point x="204" y="674" type="curve"/>
			<point x="148" y="674" type="line"/>
			<point x="150" y="577"/>
			<point x="150" y="467"/>
			<point x="150" y="363" type="curve" smooth="yes"/>
			<point x="150" y="313" type="line" smooth="yes"/>
			<point x="150" y="208"/>
			<point x="150" y="97"/>
		</contour>
		<contour>
			<point x="563" y="0" type="curve"/>
			<point x="619" y="0" type="line"/>
			<point x="616" y="98"/>
			<point x="616" y="208"/>
			<point x="616" y="313" type="curve" smooth="yes"/>
			<point x="616" y="363" type="line" smooth="yes"/>
			<point x="616" y="467"/>
			<point x="616" y="577"/>
			<point x="619" y="674" type="curve"/>
			<point x="563" y="674" type="line"/>
			<point x="566" y="577"/>
			<point x="566" y="467"/>
			<point x="566" y="363" type="curve" smooth="yes"/>
			<point x="566" y="331" type="line" smooth="yes"/>
			<point x="566" y="208"/>
			<point x="566" y="97"/>
		</contour>
		<contour>
			<point x="51" y="0" type="line"/>
			<point x="301" y="0" type="line"/>
			<point x="301" y="23" type="line"/>
			<point x="184" y="33" type="line"/>
			<point x="167" y="33" type="line"/>
			<point x="51" y="23" type="line"/>
		</contour>
		<contour>
			<point x="51" y="650" type="line"/>
			<point x="167" y="641" type="line"/>
			<point x="184" y="641" type="line"/>
			<point x="301" y="650" type="line"/>
			<point x="301" y="674" type="line"/>
			<point x="51" y="674" type="line"/>
		</contour>
		<contour>
			<point x="466" y="0" type="line"/>
			<point x="717" y="0" type="line"/>
			<point x="717" y="23" type="line"/>
			<point x="600" y="33" type="line"/>
			<point x="583" y="33" type="line"/>
			<point x="466" y="23" type="line"/>
		</contour>
		<contour>
			<point x="466" y="650" type="line"/>
			<point x="583" y="641" type="line"/>
			<point x="600" y="641" type="line"/>
			<point x="717" y="650" type="line"/>
			<point x="717" y="674" type="line"/>
			<point x="466" y="674" type="line"/>
		</contour>
		<contour>
			<point x="34" y="489" type="line"/>
			<point x="733" y="489" type="line"/>
			<point x="733" y="516" type="line"/>
			<point x="34" y="516" type="line"/>
		</contour>
		<contour>
			<point x="175" y="320" type="line"/>
			<point x="593" y="320" type="line"/>
			<point x="593" y="347" type="line"/>
			<point x="175" y="347" type="line"/>
		</contour>
	</outline>
</glyph>
<glyph name="kgreenlandic" format="2">
	<unicode hex="0138"/>
	<advance width="533"/>
	<outline>
		<contour>
			<point x="41" y="0" type="line"/>
			<point x="249" y="0" type="line"/>
			<point x="249" y="22" type="line"/>
			<point x="154" y="32" type="line"/>
			<point x="141" y="32" type="line"/>
			<point x="41" y="22" type="line"/>
		</contour>
		<contour>
			<point x="122" y="0" type="curve"/>
			<point x="175" y="0" type="line"/>
			<point x="172" y="45"/>
			<point x="171" y="148"/>
			<point x="171" y="210" type="curve" smooth="yes"/>
			<point x="171" y="347" type="line"/>
			<point x="174" y="466" type="line"/>
			<point x="163" y="473" type="line"/>
			<point x="36" y="445" type="line"/>
			<point x="36" y="424" type="line"/>
			<point x="122" y="419" type="line"/>
			<point x="124" y="370"/>
			<point x="125" y="319"/>
			<point x="125" y="256" type="curve" smooth="yes"/>
			<point x="125" y="210" type="line" smooth="yes"/>
			<point x="125" y="148"/>
			<point x="124" y="45"/>
		</contour>
		<contour>
			<point x="149" y="158" type="line"/>
			<point x="448" y="466" type="line"/>
			<point x="410" y="466" type="line"/>
			<point x="152" y="197" type="line"/>
			<point x="149" y="197" type="line"/>
		</contour>
		<contour>
			<point x="415" y="0" type="line"/>
			<point x="526" y="0" type="line"/>
			<point x="526" y="22" type="line"/>
			<point x="427" y="32" type="line"/>
			<point x="462" y="14" type="line"/>
			<point x="279" y="308" type="line"/>
			<point x="246" y="275" type="line"/>
		</contour>
		<contour>
			<point x="391" y="431" type="line"/>
			<point x="403" y="433" type="line"/>
			<point x="507" y="443" type="line"/>
			<point x="507" y="466" type="line"/>
			<point x="290" y="466" type="line"/>
			<point x="290" y="443" type="line"/>
		</contour>
	</outline>
</glyph>
<glyph name="Lslash" format="2">
	<unicode hex="0141"/>
	<advance width="560"/>
	<outline>
		<contour>
			<point x="384" y="448" type="line"/>
			<point x="177" y="329" type="line"/>
			<point x="177" y="299" type="line"/>
			<point x="384" y="418" type="line"/>
		</contour>
		<contour>
			<point x="176" y="331" type="line"/>
			<point x="52" y="260" type="line"/>
			<point x="52" y="231" type="line"/>
			<point x="176" y="300" type="line"/>
		</contour>
		<component base="L"/>
	</outline>
</glyph>
<glyph name="lslash" format="2">
	<unicode hex="0142"/>
	<advance width="292"/>
	<outline>
		<contour>
			<point x="147" y="400" type="line"/>
			<point x="33" y="336" type="line"/>
			<point x="33" y="306" type="line"/>
			<point x="147" y="370" type="line"/>
		</contour>
		<contour>
			<point x="259" y="459" type="line"/>
			<point x="146" y="395" type="line"/>
			<point x="146" y="367" type="line"/>
			<point x="259" y="429" type="line"/>
		</contour>
		<component base="l"/>
	</outline>
</glyph>
<glyph name="OE" format="2">
	<unicode hex="0152"/>
	<advance width="901"/>
	<outline>
		<contour>
			<point x="114" y="337" type="curve" smooth="yes"/>
			<point x="114" y="515"/>
			<point x="200" y="660"/>
			<point x="376" y="660" type="curve" smooth="yes"/>
			<point x="417" y="660"/>
			<point x="450" y="655"/>
			<point x="487" y="641" type="curve"/>
			<point x="487" y="673" type="line"/>
			<point x="448" y="683"/>
			<point x="409" y="687"/>
			<point x="373" y="687" type="curve" smooth="yes"/>
			<point x="188" y="687"/>
			<point x="57" y="549"/>
			<point x="57" y="337" type="curve" smooth="yes"/>
			<point x="57" y="125"/>
			<point x="186" y="-14"/>
			<point x="372" y="-14" type="curve" smooth="yes"/>
			<point x="409" y="-14"/>
			<point x="447" y="-10"/>
			<point x="487" y="1" type="curve"/>
			<point x="487" y="34" type="line"/>
			<point x="449" y="18"/>
			<point x="414" y="14"/>
			<point x="374" y="14" type="curve" smooth="yes"/>
			<point x="200" y="14"/>
			<point x="114" y="159"/>
		</contour>
		<contour>
			<point x="463" y="0" type="curve"/>
			<point x="519" y="0" type="line"/>
			<point x="517" y="98"/>
			<point x="517" y="208"/>
			<point x="517" y="330" type="curve" smooth="yes"/>
			<point x="517" y="354" type="line" smooth="yes"/>
			<point x="517" y="467"/>
			<point x="517" y="577"/>
			<point x="519" y="674" type="curve"/>
			<point x="463" y="674" type="line"/>
			<point x="466" y="577"/>
			<point x="466" y="467"/>
			<point x="466" y="363" type="curve" smooth="yes"/>
			<point x="466" y="313" type="line" smooth="yes"/>
			<point x="466" y="208"/>
			<point x="466" y="97"/>
		</contour>
		<contour>
			<point x="702" y="232" type="line"/>
			<point x="727" y="232" type="line"/>
			<point x="727" y="453" type="line"/>
			<point x="702" y="453" type="line"/>
			<point x="688" y="352" type="line"/>
			<point x="688" y="334" type="line"/>
		</contour>
		<contour>
			<point x="491" y="329" type="line"/>
			<point x="705" y="329" type="line"/>
			<point x="705" y="356" type="line"/>
			<point x="491" y="356" type="line"/>
		</contour>
		<contour>
			<point x="814" y="510" type="line"/>
			<point x="843" y="510" type="line"/>
			<point x="834" y="674" type="line"/>
			<point x="491" y="674" type="line"/>
			<point x="491" y="646" type="line"/>
			<point x="790" y="646" type="line"/>
		</contour>
		<contour>
			<point x="829" y="167" type="line"/>
			<point x="806" y="28" type="line"/>
			<point x="491" y="28" type="line"/>
			<point x="491" y="0" type="line"/>
			<point x="849" y="0" type="line"/>
			<point x="859" y="167" type="line"/>
		</contour>
	</outline>
	<anchor name="aboveUC" x="492" y="694"/>
</glyph>
<glyph name="oe" format="2">
	<unicode hex="0153"/>
	<advance width="855"/>
	<outline>
		<contour>
			<point x="262" y="-13" type="curve" smooth="yes"/>
			<point x="346" y="-13"/>
			<point x="431" y="40"/>
			<point x="459" y="146" type="curve"/>
			<point x="436" y="146" type="line"/>
			<point x="462" y="39"/>
			<point x="539" y="-13"/>
			<point x="640" y="-13" type="curve" smooth="yes"/>
			<point x="713" y="-13"/>
			<point x="773" y="21"/>
			<point x="812" y="80" type="curve"/>
			<point x="799" y="91" type="line"/>
			<point x="760" y="48"/>
			<point x="710" y="25"/>
			<point x="649" y="25" type="curve" smooth="yes"/>
			<point x="542" y="25"/>
			<point x="470" y="97"/>
			<point x="470" y="241" type="curve" smooth="yes"/>
			<point x="470" y="367"/>
			<point x="542" y="452"/>
			<point x="633" y="452" type="curve" smooth="yes"/>
			<point x="717" y="452"/>
			<point x="763" y="387"/>
			<point x="763" y="309" type="curve" smooth="yes"/>
			<point x="763" y="279"/>
			<point x="755" y="266"/>
			<point x="727" y="266" type="curve" smooth="yes"/>
			<point x="445" y="266" type="line"/>
			<point x="445" y="241" type="line"/>
			<point x="803" y="241" type="line"/>
			<point x="807" y="255"/>
			<point x="809" y="273"/>
			<point x="809" y="295" type="curve" smooth="yes"/>
			<point x="809" y="399"/>
			<point x="742" y="478"/>
			<point x="634" y="478" type="curve" smooth="yes"/>
			<point x="545" y="478"/>
			<point x="468" y="417"/>
			<point x="439" y="319" type="curve"/>
			<point x="459" y="318" type="line"/>
			<point x="433" y="426"/>
			<point x="345" y="478"/>
			<point x="262" y="478" type="curve" smooth="yes"/>
			<point x="155" y="478"/>
			<point x="49" y="397"/>
			<point x="49" y="231" type="curve" smooth="yes"/>
			<point x="49" y="65"/>
			<point x="154" y="-13"/>
		</contour>
		<contour>
			<point x="262" y="13" type="curve" smooth="yes"/>
			<point x="165" y="13"/>
			<point x="100" y="91"/>
			<point x="100" y="231" type="curve" smooth="yes"/>
			<point x="100" y="371"/>
			<point x="165" y="453"/>
			<point x="262" y="453" type="curve" smooth="yes"/>
			<point x="359" y="453"/>
			<point x="423" y="371"/>
			<point x="423" y="231" type="curve" smooth="yes"/>
			<point x="423" y="91"/>
			<point x="359" y="13"/>
		</contour>
	</outline>
	<anchor name="aboveLC" x="449" y="486"/>
</glyph>
<glyph name="longs" format="2">
	<unicode hex="017F"/>
	<advance width="341"/>
	<outline>
		<contour>
			<point x="32" y="0" type="line"/>
			<point x="268" y="0" type="line"/>
			<point x="268" y="22" type="line"/>
			<point x="152" y="32" type="line"/>
			<point x="138" y="32" type="line"/>
			<point x="32" y="22" type="line"/>
		</contour>
		<contour>
			<point x="119" y="0" type="curve"/>
			<point x="172" y="0" type="line"/>
			<point x="170" y="63"/>
			<point x="169" y="142"/>
			<point x="169" y="210" type="curve" smooth="yes"/>
			<point x="169" y="446" type="line" smooth="yes"/>
			<point x="169" y="600"/>
			<point x="187" y="658"/>
			<point x="230" y="701" type="curve" smooth="yes"/>
			<point x="251" y="722"/>
			<point x="275" y="735"/>
			<point x="300" y="736" type="curve"/>
			<point x="302" y="739" type="line"/>
			<point x="283" y="741" type="line"/>
			<point x="270" y="738" type="line"/>
			<point x="297" y="717" type="line" smooth="yes"/>
			<point x="322" y="698"/>
			<point x="339" y="689"/>
			<point x="358" y="689" type="curve" smooth="yes"/>
			<point x="381" y="689"/>
			<point x="394" y="701"/>
			<point x="395" y="717" type="curve"/>
			<point x="387" y="741"/>
			<point x="354" y="756"/>
			<point x="316" y="756" type="curve" smooth="yes"/>
			<point x="276" y="756"/>
			<point x="235" y="741"/>
			<point x="200" y="708" type="curve" smooth="yes"/>
			<point x="147" y="656"/>
			<point x="123" y="581"/>
			<point x="123" y="444" type="curve" smooth="yes"/>
			<point x="123" y="210" type="line" smooth="yes"/>
			<point x="123" y="142"/>
			<point x="121" y="63"/>
		</contour>
	</outline>
</glyph>
<glyph name="florin" format="2">
	<unicode hex="0192"/>
	<advance width="485"/>
	<outline>
		<contour>
			<point x="66" y="-100" type="curve" smooth="yes"/>
			<point x="103" y="-100"/>
			<point x="140" y="-87"/>
			<point x="174" y="-53" type="curve" smooth="yes"/>
			<point x="225" y="-3"/>
			<point x="246" y="76"/>
			<point x="258" y="224" type="curve" smooth="yes"/>
			<point x="269" y="359" type="line" smooth="yes"/>
			<point x="279" y="492"/>
			<point x="291" y="553"/>
			<point x="327" y="600" type="curve" smooth="yes"/>
			<point x="344" y="623"/>
			<point x="372" y="640"/>
			<point x="409" y="645" type="curve"/>
			<point x="409" y="646" type="line"/>
			<point x="370" y="648" type="line"/>
			<point x="400" y="626" type="line" smooth="yes"/>
			<point x="426" y="607"/>
			<point x="448" y="597"/>
			<point x="467" y="597" type="curve" smooth="yes"/>
			<point x="488" y="597"/>
			<point x="500" y="610"/>
			<point x="501" y="627" type="curve"/>
			<point x="485" y="650"/>
			<point x="454" y="665"/>
			<point x="414" y="665" type="curve" smooth="yes"/>
			<point x="377" y="665"/>
			<point x="339" y="651"/>
			<point x="308" y="621" type="curve" smooth="yes"/>
			<point x="254" y="568"/>
			<point x="233" y="496"/>
			<point x="223" y="361" type="curve" smooth="yes"/>
			<point x="212" y="216" type="line" smooth="yes"/>
			<point x="201" y="75"/>
			<point x="189" y="12"/>
			<point x="153" y="-35" type="curve" smooth="yes"/>
			<point x="136" y="-58"/>
			<point x="108" y="-75"/>
			<point x="71" y="-80" type="curve" smooth="yes"/>
			<point x="70" y="-81" type="line"/>
			<point x="108" y="-85" type="line"/>
			<point x="77" y="-62" type="line" smooth="yes"/>
			<point x="52" y="-43"/>
			<point x="31" y="-32"/>
			<point x="12" y="-32" type="curve" smooth="yes"/>
			<point x="-9" y="-32"/>
			<point x="-21" y="-45"/>
			<point x="-22" y="-62" type="curve"/>
			<point x="-6" y="-84"/>
			<point x="26" y="-100"/>
		</contour>
		<contour>
			<point x="102" y="357" type="line"/>
			<point x="407" y="357" type="line"/>
			<point x="407" y="385" type="line"/>
			<point x="102" y="385" type="line"/>
		</contour>
	</outline>
</glyph>
<glyph name="dotlessj" format="2">
	<unicode hex="0237"/>
	<advance width="271"/>
	<outline>
		<contour>
			<point x="8" y="-256" type="curve" smooth="yes"/>
			<point x="51" y="-256"/>
			<point x="80" y="-242"/>
			<point x="109" y="-212" type="curve" smooth="yes"/>
			<point x="164" y="-157"/>
			<point x="169" y="-83"/>
			<point x="169" y="93" type="curve" smooth="yes"/>
			<point x="169" y="347" type="line"/>
			<point x="171" y="468" type="line"/>
			<point x="161" y="475" type="line"/>
			<point x="35" y="447" type="line"/>
			<point x="35" y="425" type="line"/>
			<point x="121" y="421" type="line"/>
			<point x="123" y="372"/>
			<point x="124" y="320"/>
			<point x="124" y="257" type="curve" smooth="yes"/>
			<point x="124" y="69" type="line" smooth="yes"/>
			<point x="124" y="-57"/>
			<point x="119" y="-146"/>
			<point x="92" y="-190" type="curve" smooth="yes"/>
			<point x="80" y="-211"/>
			<point x="61" y="-225"/>
			<point x="42" y="-232" type="curve"/>
			<point x="42" y="-241" type="line"/>
			<point x="68" y="-241" type="line"/>
			<point x="68" y="-235" type="line"/>
			<point x="37" y="-215" type="line" smooth="yes"/>
			<point x="16" y="-201"/>
			<point x="-2" y="-195"/>
			<point x="-20" y="-195" type="curve" smooth="yes"/>
			<point x="-42" y="-195"/>
			<point x="-57" y="-205"/>
			<point x="-61" y="-223" type="curve"/>
			<point x="-56" y="-240"/>
			<point x="-33" y="-256"/>
		</contour>
	</outline>
	<anchor name="aboveLC" x="142" y="486"/>
</glyph>
<glyph name="h.sups" format="2">
	<unicode hex="02B0"/>
	<advance width="393"/>
	<outline>
		<contour>
			<point x="76" y="433" type="line"/>
			<point x="116" y="433" type="line"/>
			<point x="116" y="667" type="line"/>
			<point x="116" y="669" type="line"/>
			<point x="116" y="904" type="line"/>
			<point x="108" y="909" type="line"/>
			<point x="21" y="891" type="line"/>
			<point x="21" y="874" type="line"/>
			<point x="76" y="870" type="line"/>
		</contour>
		<contour>
			<point x="282" y="433" type="line"/>
			<point x="322" y="433" type="line"/>
			<point x="322" y="635" type="line" smooth="yes"/>
			<point x="322" y="715"/>
			<point x="292" y="746"/>
			<point x="239" y="746" type="curve" smooth="yes"/>
			<point x="196" y="746"/>
			<point x="152" y="723"/>
			<point x="111" y="674" type="curve"/>
			<point x="100" y="674" type="line"/>
			<point x="111" y="652" type="line"/>
			<point x="156" y="699"/>
			<point x="194" y="713"/>
			<point x="223" y="713" type="curve" smooth="yes"/>
			<point x="262" y="713"/>
			<point x="282" y="692"/>
			<point x="282" y="631" type="curve" smooth="yes"/>
		</contour>
		<contour>
			<point x="22" y="433" type="line"/>
			<point x="166" y="433" type="line"/>
			<point x="166" y="450" type="line"/>
			<point x="102" y="459" type="line"/>
			<point x="90" y="459" type="line"/>
			<point x="22" y="450" type="line"/>
		</contour>
		<contour>
			<point x="229" y="433" type="line"/>
			<point x="371" y="433" type="line"/>
			<point x="371" y="450" type="line"/>
			<point x="308" y="459" type="line"/>
			<point x="296" y="459" type="line"/>
			<point x="229" y="450" type="line"/>
		</contour>
	</outline>
</glyph>
<glyph name="j.sups" format="2">
	<unicode hex="02B2"/>
	<advance width="182"/>
	<outline>
		<contour>
			<point x="8" y="269" type="curve" smooth="yes"/>
			<point x="35" y="269"/>
			<point x="59" y="278"/>
			<point x="80" y="299" type="curve" smooth="yes"/>
			<point x="112" y="331"/>
			<point x="119" y="375"/>
			<point x="119" y="492" type="curve" smooth="yes"/>
			<point x="119" y="737" type="line"/>
			<point x="111" y="742" type="line"/>
			<point x="22" y="719" type="line"/>
			<point x="22" y="703" type="line"/>
			<point x="79" y="699" type="line"/>
			<point x="79" y="474" type="line" smooth="yes"/>
			<point x="79" y="388"/>
			<point x="78" y="341"/>
			<point x="58" y="310" type="curve" smooth="yes"/>
			<point x="49" y="296"/>
			<point x="32" y="285"/>
			<point x="15" y="284" type="curve"/>
			<point x="28" y="275" type="line"/>
			<point x="49" y="284" type="line"/>
			<point x="29" y="300" type="line" smooth="yes"/>
			<point x="13" y="313"/>
			<point x="0" y="318"/>
			<point x="-14" y="318" type="curve" smooth="yes"/>
			<point x="-31" y="318"/>
			<point x="-42" y="309"/>
			<point x="-45" y="295" type="curve"/>
			<point x="-42" y="281"/>
			<point x="-24" y="269"/>
		</contour>
		<contour>
			<point x="97" y="833" type="curve" smooth="yes"/>
			<point x="115" y="833"/>
			<point x="130" y="846"/>
			<point x="130" y="865" type="curve" smooth="yes"/>
			<point x="130" y="885"/>
			<point x="115" y="898"/>
			<point x="97" y="898" type="curve" smooth="yes"/>
			<point x="79" y="898"/>
			<point x="64" y="885"/>
			<point x="64" y="865" type="curve" smooth="yes"/>
			<point x="64" y="846"/>
			<point x="79" y="833"/>
		</contour>
	</outline>
</glyph>
<glyph name="ringhalfrightmod" format="2">
	<unicode hex="02BE"/>
	<advance width="155"/>
	<outline>
		<contour>
			<point x="28" y="562" type="line"/>
			<point x="86" y="563"/>
			<point x="127" y="597"/>
			<point x="127" y="654" type="curve" smooth="yes"/>
			<point x="127" y="710"/>
			<point x="86" y="745"/>
			<point x="28" y="746" type="curve"/>
			<point x="28" y="720" type="line"/>
			<point x="68" y="720"/>
			<point x="94" y="689"/>
			<point x="94" y="654" type="curve" smooth="yes"/>
			<point x="94" y="619"/>
			<point x="68" y="588"/>
			<point x="28" y="588" type="curve"/>
		</contour>
	</outline>
</glyph>
<glyph name="l.sups" format="2">
	<unicode hex="02E1"/>
	<advance width="193"/>
	<outline>
		<contour>
			<point x="22" y="433" type="line"/>
			<point x="174" y="433" type="line"/>
			<point x="174" y="450" type="line"/>
			<point x="104" y="459" type="line"/>
			<point x="92" y="459" type="line"/>
			<point x="22" y="450" type="line"/>
		</contour>
		<contour>
			<point x="79" y="433" type="line"/>
			<point x="118" y="433" type="line"/>
			<point x="118" y="904" type="line"/>
			<point x="110" y="909" type="line"/>
			<point x="23" y="891" type="line"/>
			<point x="23" y="874" type="line"/>
			<point x="79" y="870" type="line"/>
		</contour>
	</outline>
</glyph>
<glyph name="x.sups" format="2">
	<unicode hex="02E3"/>
	<advance width="330"/>
	<outline>
		<contour>
			<point x="7" y="433" type="line"/>
			<point x="122" y="433" type="line"/>
			<point x="122" y="450" type="line"/>
			<point x="68" y="457" type="line"/>
			<point x="59" y="457" type="line"/>
			<point x="7" y="450" type="line"/>
		</contour>
		<contour>
			<point x="10" y="717" type="line"/>
			<point x="70" y="710" type="line"/>
			<point x="81" y="710" type="line"/>
			<point x="141" y="717" type="line"/>
			<point x="141" y="735" type="line"/>
			<point x="10" y="735" type="line"/>
		</contour>
		<contour>
			<point x="250" y="433" type="line"/>
			<point x="296" y="433" type="line"/>
			<point x="178" y="599" type="line"/>
			<point x="81" y="735" type="line"/>
			<point x="37" y="735" type="line"/>
			<point x="150" y="575" type="line"/>
		</contour>
		<contour>
			<point x="187" y="433" type="line"/>
			<point x="323" y="433" type="line"/>
			<point x="323" y="450" type="line"/>
			<point x="263" y="459" type="line"/>
			<point x="252" y="459" type="line"/>
			<point x="187" y="450" type="line"/>
		</contour>
		<contour>
			<point x="203" y="717" type="line"/>
			<point x="258" y="710" type="line"/>
			<point x="267" y="710" type="line"/>
			<point x="315" y="717" type="line"/>
			<point x="315" y="735" type="line"/>
			<point x="203" y="735" type="line"/>
		</contour>
		<contour>
			<point x="34" y="433" type="line"/>
			<point x="60" y="433" type="line"/>
			<point x="171" y="585" type="line"/>
			<point x="157" y="596" type="line"/>
		</contour>
		<contour>
			<point x="170" y="574" type="line"/>
			<point x="292" y="735" type="line"/>
			<point x="266" y="735" type="line"/>
			<point x="157" y="586" type="line"/>
		</contour>
	</outline>
</glyph>
<glyph name="circumflexcmb" format="2">
	<unicode hex="0302"/>
	<outline>
		<contour>
			<point x="115" y="545" type="line"/>
			<point x="129" y="557" type="line"/>
			<point x="10" y="720" type="line"/>
			<point x="-10" y="720" type="line"/>
			<point x="-129" y="557" type="line"/>
			<point x="-115" y="545" type="line"/>
			<point x="18" y="684" type="line"/>
			<point x="-18" y="684" type="line"/>
		</contour>
	</outline>
	<anchor name="_aboveLC" x="0" y="486"/>
	<anchor name="aboveLC" x="0" y="720"/>
</glyph>
<glyph name="brevecmb" format="2">
	<unicode hex="0306"/>
	<outline>
		<contour>
			<point x="-143" y="709" type="line"/>
			<point x="-131" y="630"/>
			<point x="-80" y="569"/>
			<point x="0" y="569" type="curve" smooth="yes"/>
			<point x="80" y="569"/>
			<point x="131" y="630"/>
			<point x="143" y="710" type="curve"/>
			<point x="124" y="715" type="line"/>
			<point x="104" y="653"/>
			<point x="68" y="608"/>
			<point x="0" y="608" type="curve" smooth="yes"/>
			<point x="-68" y="608"/>
			<point x="-104" y="653"/>
			<point x="-124" y="715" type="curve"/>
		</contour>
	</outline>
	<anchor name="_aboveLC" x="0" y="486"/>
	<anchor name="aboveLC" x="-1" y="715"/>
</glyph>
<glyph name="dotaccentcmb" format="2">
	<unicode hex="0307"/>
	<outline>
		<contour>
			<point x="0" y="609" type="curve" smooth="yes"/>
			<point x="23" y="609"/>
			<point x="43" y="626"/>
			<point x="43" y="651" type="curve" smooth="yes"/>
			<point x="43" y="676"/>
			<point x="23" y="693"/>
			<point x="0" y="693" type="curve" smooth="yes"/>
			<point x="-23" y="693"/>
			<point x="-43" y="676"/>
			<point x="-43" y="651" type="curve" smooth="yes"/>
			<point x="-43" y="626"/>
			<point x="-23" y="609"/>
		</contour>
	</outline>
	<anchor name="_aboveLC" x="0" y="486"/>
	<anchor name="aboveLC" x="0" y="693"/>
</glyph>
<glyph name="dieresiscmb" format="2">
	<unicode hex="0308"/>
	<outline>
		<contour>
			<point x="-94" y="619" type="curve" smooth="yes"/>
			<point x="-73" y="619"/>
			<point x="-55" y="635"/>
			<point x="-55" y="658" type="curve" smooth="yes"/>
			<point x="-55" y="681"/>
			<point x="-73" y="696"/>
			<point x="-94" y="696" type="curve" smooth="yes"/>
			<point x="-115" y="696"/>
			<point x="-133" y="681"/>
			<point x="-133" y="658" type="curve" smooth="yes"/>
			<point x="-133" y="635"/>
			<point x="-115" y="619"/>
		</contour>
		<contour>
			<point x="94" y="619" type="curve" smooth="yes"/>
			<point x="115" y="619"/>
			<point x="133" y="635"/>
			<point x="133" y="658" type="curve" smooth="yes"/>
			<point x="133" y="681"/>
			<point x="115" y="696"/>
			<point x="94" y="696" type="curve" smooth="yes"/>
			<point x="73" y="696"/>
			<point x="55" y="681"/>
			<point x="55" y="658" type="curve" smooth="yes"/>
			<point x="55" y="635"/>
			<point x="73" y="619"/>
		</contour>
	</outline>
	<anchor name="_aboveLC" x="0" y="486"/>
	<anchor name="aboveLC" x="0" y="696"/>
</glyph>
<glyph name="hungarumlautcmb" format="2">
	<unicode hex="030B"/>
	<outline>
		<contour>
			<point x="-97" y="558" type="line"/>
			<point x="-80" y="550" type="line"/>
			<point x="1" y="680" type="line" smooth="yes"/>
			<point x="12" y="697"/>
			<point x="16" y="707"/>
			<point x="16" y="716" type="curve" smooth="yes"/>
			<point x="16" y="730"/>
			<point x="6" y="739"/>
			<point x="-7" y="739" type="curve" smooth="yes"/>
			<point x="-21" y="739"/>
			<point x="-32" y="728"/>
			<point x="-41" y="703" type="curve" smooth="yes"/>
		</contour>
		<contour>
			<point x="35" y="558" type="line"/>
			<point x="52" y="550" type="line"/>
			<point x="134" y="680" type="line" smooth="yes"/>
			<point x="144" y="697"/>
			<point x="148" y="707"/>
			<point x="148" y="716" type="curve" smooth="yes"/>
			<point x="148" y="730"/>
			<point x="138" y="739"/>
			<point x="126" y="739" type="curve" smooth="yes"/>
			<point x="112" y="739"/>
			<point x="101" y="728"/>
			<point x="91" y="703" type="curve" smooth="yes"/>
		</contour>
	</outline>
	<anchor name="_aboveLC" x="0" y="486"/>
	<anchor name="aboveLC" x="0" y="739"/>
</glyph>
<glyph name="caroncmb" format="2">
	<unicode hex="030C"/>
	<outline>
		<contour>
			<point x="-116" y="720" type="line"/>
			<point x="-130" y="707" type="line"/>
			<point x="-17" y="561" type="line"/>
			<point x="17" y="561" type="line"/>
			<point x="130" y="707" type="line"/>
			<point x="116" y="720" type="line"/>
			<point x="-18" y="591" type="line"/>
			<point x="18" y="591" type="line"/>
		</contour>
	</outline>
	<anchor name="_aboveLC" x="0" y="486"/>
	<anchor name="aboveLC" x="0" y="720"/>
</glyph>
<glyph name="commabelowcmb" format="2">
	<unicode hex="0326"/>
	<outline>
		<contour>
			<point x="41" y="-113" type="curve" smooth="yes"/>
			<point x="41" y="-98"/>
			<point x="39" y="-87"/>
			<point x="34" y="-76" type="curve"/>
			<point x="25" y="-67"/>
			<point x="15" y="-63"/>
			<point x="3" y="-63" type="curve" smooth="yes"/>
			<point x="-20" y="-63"/>
			<point x="-33" y="-78"/>
			<point x="-33" y="-98" type="curve" smooth="yes"/>
			<point x="-33" y="-116"/>
			<point x="-18" y="-137"/>
			<point x="17" y="-149" type="curve"/>
			<point x="12" y="-131" type="line"/>
			<point x="3" y="-167"/>
			<point x="-16" y="-192"/>
			<point x="-53" y="-211" type="curve"/>
			<point x="-44" y="-232" type="line"/>
			<point x="9" y="-208"/>
			<point x="41" y="-160"/>
		</contour>
	</outline>
	<anchor name="_belowLC" x="0" y="-20"/>
	<anchor name="belowLC" x="0" y="-233"/>
</glyph>
<glyph name="ogonekcmb" format="2">
	<unicode hex="0328"/>
	<outline>
		<contour>
			<point x="-86" y="-133" type="curve" smooth="yes"/>
			<point x="-86" y="-190"/>
			<point x="-47" y="-222"/>
			<point x="3" y="-222" type="curve" smooth="yes"/>
			<point x="39" y="-222"/>
			<point x="73" y="-207"/>
			<point x="93" y="-180" type="curve"/>
			<point x="83" y="-167" type="line"/>
			<point x="61" y="-184"/>
			<point x="41" y="-189"/>
			<point x="21" y="-189" type="curve" smooth="yes"/>
			<point x="-19" y="-189"/>
			<point x="-47" y="-162"/>
			<point x="-47" y="-115" type="curve" smooth="yes"/>
			<point x="-47" y="-71"/>
			<point x="-20" y="-25"/>
			<point x="18" y="6" type="curve"/>
			<point x="-2" y="8" type="line"/>
			<point x="-2" y="5" type="line"/>
			<point x="-45" y="-25"/>
			<point x="-86" y="-76"/>
		</contour>
	</outline>
	<anchor name="_ogonek" x="0" y="0"/>
</glyph>
<glyph name="Theta" format="2">
	<unicode hex="0398"/>
	<advance width="690"/>
	<outline>
		<contour>
			<point x="205" y="240" type="line"/>
			<point x="229" y="240" type="line"/>
			<point x="243" y="327" type="line"/>
			<point x="243" y="345" type="line"/>
			<point x="229" y="431" type="line"/>
			<point x="205" y="431" type="line"/>
		</contour>
		<contour>
			<point x="460" y="240" type="line"/>
			<point x="484" y="240" type="line"/>
			<point x="484" y="431" type="line"/>
			<point x="460" y="431" type="line"/>
			<point x="447" y="345" type="line"/>
			<point x="447" y="327" type="line"/>
		</contour>
		<contour>
			<point x="345" y="-14" type="curve" smooth="yes"/>
			<point x="508" y="-14"/>
			<point x="633" y="121"/>
			<point x="633" y="337" type="curve" smooth="yes"/>
			<point x="633" y="556"/>
			<point x="508" y="687"/>
			<point x="345" y="687" type="curve" smooth="yes"/>
			<point x="183" y="687"/>
			<point x="57" y="553"/>
			<point x="57" y="337" type="curve" smooth="yes"/>
			<point x="57" y="117"/>
			<point x="182" y="-14"/>
		</contour>
		<contour>
			<point x="345" y="14" type="curve" smooth="yes"/>
			<point x="192" y="14"/>
			<point x="114" y="160"/>
			<point x="114" y="337" type="curve" smooth="yes"/>
			<point x="114" y="513"/>
			<point x="192" y="660"/>
			<point x="345" y="660" type="curve" smooth="yes"/>
			<point x="499" y="660"/>
			<point x="577" y="513"/>
			<point x="577" y="337" type="curve" smooth="yes"/>
			<point x="577" y="160"/>
			<point x="499" y="14"/>
		</contour>
		<contour>
			<point x="224" y="319" type="line"/>
			<point x="466" y="319" type="line"/>
			<point x="466" y="352" type="line"/>
			<point x="224" y="352" type="line"/>
		</contour>
	</outline>
</glyph>
<glyph name="Xi" format="2">
	<unicode hex="039E"/>
	<advance width="574"/>
	<outline>
		<contour>
			<point x="49" y="0" type="line"/>
			<point x="525" y="0" type="line"/>
			<point x="535" y="168" type="line"/>
			<point x="505" y="168" type="line"/>
			<point x="475" y="3" type="line"/>
			<point x="502" y="43" type="line"/>
			<point x="72" y="43" type="line"/>
			<point x="99" y="3" type="line"/>
			<point x="69" y="168" type="line"/>
			<point x="39" y="168" type="line"/>
		</contour>
		<contour>
			<point x="137" y="236" type="line"/>
			<point x="161" y="236" type="line"/>
			<point x="175" y="333" type="line"/>
			<point x="175" y="351" type="line"/>
			<point x="161" y="447" type="line"/>
			<point x="137" y="447" type="line"/>
		</contour>
		<contour>
			<point x="156" y="324" type="line"/>
			<point x="418" y="324" type="line"/>
			<point x="418" y="359" type="line"/>
			<point x="156" y="359" type="line"/>
		</contour>
		<contour>
			<point x="414" y="236" type="line"/>
			<point x="438" y="236" type="line"/>
			<point x="438" y="447" type="line"/>
			<point x="414" y="447" type="line"/>
			<point x="400" y="351" type="line"/>
			<point x="400" y="333" type="line"/>
		</contour>
		<contour>
			<point x="50" y="510" type="line"/>
			<point x="80" y="510" type="line"/>
			<point x="107" y="671" type="line"/>
			<point x="83" y="631" type="line"/>
			<point x="491" y="631" type="line"/>
			<point x="467" y="671" type="line"/>
			<point x="495" y="510" type="line"/>
			<point x="524" y="510" type="line"/>
			<point x="514" y="674" type="line"/>
			<point x="60" y="674" type="line"/>
		</contour>
	</outline>
</glyph>
<glyph name="Phi" format="2">
	<unicode hex="03A6"/>
	<advance width="697"/>
	<outline>
		<contour>
			<point x="45" y="350" type="curve" smooth="yes"/>
			<point x="45" y="213"/>
			<point x="142" y="117"/>
			<point x="329" y="117" type="curve" smooth="yes"/>
			<point x="345" y="117" type="line"/>
			<point x="345" y="144" type="line"/>
			<point x="328" y="144" type="line" smooth="yes"/>
			<point x="179" y="144"/>
			<point x="96" y="226"/>
			<point x="96" y="351" type="curve" smooth="yes"/>
			<point x="96" y="479"/>
			<point x="178" y="557"/>
			<point x="328" y="557" type="curve" smooth="yes"/>
			<point x="345" y="557" type="line"/>
			<point x="345" y="584" type="line"/>
			<point x="329" y="584" type="line"/>
			<point x="150" y="584"/>
			<point x="45" y="493"/>
		</contour>
		<contour>
			<point x="352" y="117" type="line"/>
			<point x="368" y="117" type="line" smooth="yes"/>
			<point x="555" y="117"/>
			<point x="652" y="215"/>
			<point x="652" y="351" type="curve" smooth="yes"/>
			<point x="652" y="494"/>
			<point x="549" y="584"/>
			<point x="368" y="584" type="curve"/>
			<point x="352" y="584" type="line"/>
			<point x="352" y="557" type="line"/>
			<point x="369" y="557" type="line" smooth="yes"/>
			<point x="518" y="557"/>
			<point x="601" y="479"/>
			<point x="601" y="351" type="curve" smooth="yes"/>
			<point x="601" y="226"/>
			<point x="518" y="144"/>
			<point x="369" y="144" type="curve" smooth="yes"/>
			<point x="352" y="144" type="line"/>
		</contour>
		<contour>
			<point x="323" y="0" type="curve"/>
			<point x="374" y="0" type="line"/>
			<point x="373" y="105"/>
			<point x="372" y="216"/>
			<point x="372" y="322" type="curve" smooth="yes"/>
			<point x="372" y="369" type="line" smooth="yes"/>
			<point x="372" y="474"/>
			<point x="373" y="579"/>
			<point x="374" y="683" type="curve"/>
			<point x="323" y="683" type="line"/>
			<point x="325" y="579"/>
			<point x="325" y="474"/>
			<point x="325" y="368" type="curve" smooth="yes"/>
			<point x="325" y="322" type="line" smooth="yes"/>
			<point x="325" y="215"/>
			<point x="325" y="105"/>
		</contour>
		<contour>
			<point x="224" y="660" type="line"/>
			<point x="340" y="651" type="line"/>
			<point x="358" y="651" type="line"/>
			<point x="473" y="660" type="line"/>
			<point x="473" y="683" type="line"/>
			<point x="224" y="683" type="line"/>
		</contour>
		<contour>
			<point x="224" y="0" type="line"/>
			<point x="473" y="0" type="line"/>
			<point x="473" y="23" type="line"/>
			<point x="359" y="33" type="line"/>
			<point x="340" y="33" type="line"/>
			<point x="224" y="23" type="line"/>
		</contour>
	</outline>
</glyph>
<glyph name="beta" format="2">
	<unicode hex="03B2"/>
	<advance width="547"/>
	<outline>
		<contour>
			<point x="95" y="-188" type="line"/>
			<point x="106" y="-195" type="line"/>
			<point x="148" y="-183" type="line"/>
			<point x="142" y="61" type="line"/>
			<point x="145" y="69" type="line"/>
			<point x="146" y="507" type="line" smooth="yes"/>
			<point x="146" y="648"/>
			<point x="200" y="719"/>
			<point x="287" y="719" type="curve" smooth="yes"/>
			<point x="361" y="719"/>
			<point x="411" y="671"/>
			<point x="411" y="580" type="curve" smooth="yes"/>
			<point x="411" y="486"/>
			<point x="362" y="426"/>
			<point x="226" y="396" type="curve"/>
			<point x="231" y="368" type="line"/>
			<point x="398" y="379"/>
			<point x="450" y="294"/>
			<point x="450" y="192" type="curve" smooth="yes"/>
			<point x="450" y="89"/>
			<point x="386" y="20"/>
			<point x="289" y="20" type="curve" smooth="yes"/>
			<point x="226" y="20"/>
			<point x="174" y="44"/>
			<point x="125" y="94" type="curve"/>
			<point x="119" y="83" type="line"/>
			<point x="121" y="80" type="line"/>
			<point x="160" y="14"/>
			<point x="226" y="-17"/>
			<point x="296" y="-17" type="curve" smooth="yes"/>
			<point x="400" y="-17"/>
			<point x="498" y="60"/>
			<point x="498" y="192" type="curve" smooth="yes"/>
			<point x="498" y="316"/>
			<point x="414" y="397"/>
			<point x="249" y="392" type="curve"/>
			<point x="250" y="381" type="line"/>
			<point x="394" y="403"/>
			<point x="458" y="490"/>
			<point x="458" y="580" type="curve" smooth="yes"/>
			<point x="458" y="686"/>
			<point x="391" y="745"/>
			<point x="292" y="745" type="curve" smooth="yes"/>
			<point x="175" y="745"/>
			<point x="101" y="656"/>
			<point x="100" y="495" type="curve" smooth="yes"/>
			<point x="99" y="15" type="line"/>
		</contour>
	</outline>
</glyph>
<glyph name="zeta" format="2">
	<unicode hex="03B6"/>
	<advance width="408"/>
	<outline>
		<contour>
			<point x="311" y="-205" type="curve"/>
			<point x="338" y="-205" type="line"/>
			<point x="367" y="-157"/>
			<point x="384" y="-118"/>
			<point x="384" y="-77" type="curve" smooth="yes"/>
			<point x="384" y="-18"/>
			<point x="358" y="20"/>
			<point x="250" y="47" type="curve" smooth="yes"/>
			<point x="135" y="77"/>
			<point x="95" y="116"/>
			<point x="95" y="191" type="curve" smooth="yes"/>
			<point x="95" y="314"/>
			<point x="186" y="451"/>
			<point x="402" y="712" type="curve"/>
			<point x="399" y="736" type="line"/>
			<point x="82" y="749" type="line"/>
			<point x="82" y="706" type="line"/>
			<point x="384" y="706" type="line"/>
			<point x="375" y="722" type="line"/>
			<point x="143" y="455"/>
			<point x="48" y="300"/>
			<point x="48" y="182" type="curve" smooth="yes"/>
			<point x="48" y="95"/>
			<point x="93" y="39"/>
			<point x="233" y="4" type="curve" smooth="yes"/>
			<point x="328" y="-20"/>
			<point x="344" y="-50"/>
			<point x="344" y="-91" type="curve" smooth="yes"/>
			<point x="344" y="-124"/>
			<point x="330" y="-161"/>
		</contour>
	</outline>
</glyph>
<glyph name="lambda" format="2">
	<unicode hex="03BB"/>
	<advance width="504"/>
	<outline>
		<contour>
			<point x="27" y="-2" type="line"/>
			<point x="73" y="-7" type="line"/>
			<point x="268" y="450" type="line"/>
			<point x="276" y="450" type="line"/>
			<point x="250" y="495" type="line"/>
			<point x="24" y="6" type="line"/>
		</contour>
		<contour>
			<point x="450" y="-13" type="curve" smooth="yes"/>
			<point x="475" y="-13"/>
			<point x="502" y="8"/>
			<point x="515" y="30" type="curve"/>
			<point x="509" y="45" type="line"/>
			<point x="494" y="38"/>
			<point x="475" y="35"/>
			<point x="463" y="35" type="curve" smooth="yes"/>
			<point x="432" y="35"/>
			<point x="417" y="52"/>
			<point x="387" y="141" type="curve" smooth="yes"/>
			<point x="230" y="618" type="line" smooth="yes"/>
			<point x="201" y="708"/>
			<point x="165" y="745"/>
			<point x="111" y="745" type="curve" smooth="yes"/>
			<point x="74" y="745"/>
			<point x="43" y="727"/>
			<point x="17" y="692" type="curve"/>
			<point x="28" y="671" type="line"/>
			<point x="51" y="685"/>
			<point x="75" y="695"/>
			<point x="103" y="695" type="curve" smooth="yes"/>
			<point x="153" y="695"/>
			<point x="179" y="672"/>
			<point x="207" y="593" type="curve" smooth="yes"/>
			<point x="255" y="457" type="line"/>
			<point x="356" y="125" type="line" smooth="yes"/>
			<point x="391" y="7"/>
			<point x="415" y="-13"/>
		</contour>
	</outline>
</glyph>
<glyph name="mu" format="2">
	<unicode hex="03BC"/>
	<unicode hex="00B5"/>
	<advance width="554"/>
	<outline>
		<contour>
			<point x="96" y="-188" type="line"/>
			<point x="105" y="-195" type="line"/>
			<point x="149" y="-183" type="line"/>
			<point x="134" y="77" type="line"/>
			<point x="139" y="90" type="line"/>
			<point x="140" y="187"/>
			<point x="144" y="281"/>
			<point x="150" y="469" type="curve"/>
			<point x="141" y="476" type="line"/>
			<point x="97" y="463" type="line"/>
			<point x="108" y="87" type="line"/>
		</contour>
		<contour>
			<point x="470" y="-13" type="curve" smooth="yes"/>
			<point x="501" y="-13"/>
			<point x="523" y="7"/>
			<point x="535" y="28" type="curve"/>
			<point x="528" y="42" type="line"/>
			<point x="515" y="34"/>
			<point x="502" y="27"/>
			<point x="484" y="27" type="curve" smooth="yes"/>
			<point x="453" y="27"/>
			<point x="439" y="43"/>
			<point x="438" y="103" type="curve" smooth="yes"/>
			<point x="438" y="179"/>
			<point x="444" y="262"/>
			<point x="454" y="469" type="curve"/>
			<point x="445" y="476" type="line"/>
			<point x="401" y="463" type="line"/>
			<point x="405" y="114" type="line"/>
			<point x="405" y="108" type="line" smooth="yes"/>
			<point x="406" y="22"/>
			<point x="426" y="-13"/>
		</contour>
		<contour>
			<point x="255" y="-13" type="curve" smooth="yes"/>
			<point x="329" y="-13"/>
			<point x="385" y="41"/>
			<point x="420" y="137" type="curve"/>
			<point x="422" y="137" type="line"/>
			<point x="410" y="148" type="line"/>
			<point x="371" y="67"/>
			<point x="323" y="29"/>
			<point x="264" y="29" type="curve" smooth="yes"/>
			<point x="212" y="29"/>
			<point x="168" y="52"/>
			<point x="134" y="119" type="curve"/>
			<point x="122" y="91" type="line"/>
			<point x="123" y="88" type="line"/>
			<point x="144" y="22"/>
			<point x="202" y="-13"/>
		</contour>
	</outline>
</glyph>
<glyph name="xi" format="2">
	<unicode hex="03BE"/>
	<advance width="425"/>
	<outline>
		<contour>
			<point x="316" y="-205" type="curve"/>
			<point x="343" y="-205" type="line"/>
			<point x="372" y="-156"/>
			<point x="388" y="-117"/>
			<point x="388" y="-77" type="curve" smooth="yes"/>
			<point x="388" y="-18"/>
			<point x="363" y="21"/>
			<point x="254" y="47" type="curve" smooth="yes"/>
			<point x="140" y="76"/>
			<point x="97" y="117"/>
			<point x="97" y="196" type="curve" smooth="yes"/>
			<point x="97" y="290"/>
			<point x="169" y="361"/>
			<point x="311" y="361" type="curve" smooth="yes"/>
			<point x="328" y="361"/>
			<point x="352" y="360"/>
			<point x="376" y="359" type="curve"/>
			<point x="376" y="404" type="line"/>
			<point x="356" y="403"/>
			<point x="327" y="403"/>
			<point x="312" y="403" type="curve" smooth="yes"/>
			<point x="188" y="403"/>
			<point x="133" y="463"/>
			<point x="133" y="540" type="curve" smooth="yes"/>
			<point x="133" y="634"/>
			<point x="209" y="700"/>
			<point x="406" y="706" type="curve"/>
			<point x="405" y="737" type="line"/>
			<point x="50" y="748" type="line"/>
			<point x="50" y="705" type="line"/>
			<point x="305" y="709" type="line"/>
			<point x="313" y="715" type="line"/>
			<point x="180" y="700"/>
			<point x="91" y="637"/>
			<point x="91" y="530" type="curve" smooth="yes"/>
			<point x="91" y="450"/>
			<point x="151" y="380"/>
			<point x="276" y="373" type="curve"/>
			<point x="280" y="381" type="line"/>
			<point x="132" y="375"/>
			<point x="49" y="294"/>
			<point x="49" y="187" type="curve" smooth="yes"/>
			<point x="49" y="90"/>
			<point x="105" y="38"/>
			<point x="237" y="4" type="curve" smooth="yes"/>
			<point x="333" y="-20"/>
			<point x="349" y="-50"/>
			<point x="349" y="-91" type="curve" smooth="yes"/>
			<point x="349" y="-124"/>
			<point x="335" y="-161"/>
		</contour>
	</outline>
</glyph>
<glyph name="sigma.end" format="2">
	<unicode hex="03C2"/>
	<advance width="439"/>
	<outline>
		<contour>
			<point x="310" y="-205" type="curve"/>
			<point x="337" y="-205" type="line"/>
			<point x="364" y="-160"/>
			<point x="382" y="-119"/>
			<point x="382" y="-77" type="curve" smooth="yes"/>
			<point x="382" y="-15"/>
			<point x="355" y="20"/>
			<point x="251" y="47" type="curve" smooth="yes"/>
			<point x="145" y="77"/>
			<point x="95" y="121"/>
			<point x="95" y="229" type="curve" smooth="yes"/>
			<point x="95" y="379"/>
			<point x="173" y="456"/>
			<point x="282" y="456" type="curve" smooth="yes"/>
			<point x="301" y="456"/>
			<point x="313" y="453"/>
			<point x="332" y="447" type="curve"/>
			<point x="275" y="466" type="line"/>
			<point x="333" y="411" type="line" smooth="yes"/>
			<point x="348" y="397"/>
			<point x="357" y="391"/>
			<point x="373" y="391" type="curve" smooth="yes"/>
			<point x="391" y="391"/>
			<point x="407" y="404"/>
			<point x="403" y="428" type="curve"/>
			<point x="374" y="462"/>
			<point x="336" y="478"/>
			<point x="277" y="478" type="curve" smooth="yes"/>
			<point x="150" y="478"/>
			<point x="48" y="389"/>
			<point x="48" y="224" type="curve" smooth="yes"/>
			<point x="48" y="110"/>
			<point x="92" y="42"/>
			<point x="233" y="4" type="curve" smooth="yes"/>
			<point x="325" y="-21"/>
			<point x="343" y="-47"/>
			<point x="343" y="-91" type="curve" smooth="yes"/>
			<point x="343" y="-124"/>
			<point x="329" y="-161"/>
		</contour>
	</outline>
</glyph>
<glyph name="phi" format="2">
	<unicode hex="03C6"/>
	<advance width="680"/>
	<outline>
		<contour>
			<point x="312" y="-192" type="line"/>
			<point x="322" y="-199" type="line"/>
			<point x="365" y="-188" type="line"/>
			<point x="361" y="-2" type="line"/>
			<point x="358" y="623" type="line"/>
			<point x="329" y="623" type="line"/>
			<point x="319" y="0" type="line"/>
		</contour>
		<contour>
			<point x="330" y="-13" type="curve"/>
			<point x="330" y="14" type="line"/>
			<point x="191" y="14"/>
			<point x="96" y="87"/>
			<point x="96" y="233" type="curve" smooth="yes"/>
			<point x="96" y="367"/>
			<point x="180" y="452"/>
			<point x="331" y="452" type="curve"/>
			<point x="331" y="479" type="line"/>
			<point x="167" y="479"/>
			<point x="47" y="383"/>
			<point x="47" y="229" type="curve" smooth="yes"/>
			<point x="47" y="68"/>
			<point x="168" y="-13"/>
		</contour>
		<contour>
			<point x="352" y="-13" type="line"/>
			<point x="514" y="-13"/>
			<point x="633" y="80"/>
			<point x="633" y="239" type="curve" smooth="yes"/>
			<point x="633" y="391"/>
			<point x="525" y="479"/>
			<point x="352" y="479" type="curve"/>
			<point x="352" y="452" type="line"/>
			<point x="509" y="452"/>
			<point x="584" y="366"/>
			<point x="584" y="235" type="curve" smooth="yes"/>
			<point x="584" y="100"/>
			<point x="508" y="14"/>
			<point x="352" y="14" type="curve"/>
		</contour>
	</outline>
</glyph>
<glyph name="chi" format="2">
	<unicode hex="03C7"/>
	<advance width="474"/>
	<outline>
		<contour>
			<point x="42" y="-187" type="line"/>
			<point x="82" y="-194" type="line"/>
			<point x="254" y="143" type="line"/>
			<point x="433" y="463" type="line"/>
			<point x="430" y="471" type="line"/>
			<point x="388" y="475" type="line"/>
			<point x="238" y="186" type="line"/>
			<point x="39" y="-179" type="line"/>
		</contour>
		<contour>
			<point x="422" y="-196" type="curve" smooth="yes"/>
			<point x="454" y="-196"/>
			<point x="473" y="-179"/>
			<point x="487" y="-154" type="curve"/>
			<point x="478" y="-137" type="line"/>
			<point x="464" y="-146"/>
			<point x="450" y="-149"/>
			<point x="433" y="-149" type="curve" smooth="yes"/>
			<point x="398" y="-149"/>
			<point x="371" y="-126"/>
			<point x="336" y="-36" type="curve" smooth="yes"/>
			<point x="256" y="165" type="line"/>
			<point x="237" y="141" type="line"/>
			<point x="242" y="141" type="line"/>
			<point x="311" y="-55" type="line" smooth="yes"/>
			<point x="346" y="-154"/>
			<point x="371" y="-196"/>
		</contour>
		<contour>
			<point x="236" y="157" type="line"/>
			<point x="256" y="179" type="line"/>
			<point x="250" y="179" type="line"/>
			<point x="188" y="351" type="line" smooth="yes"/>
			<point x="155" y="441"/>
			<point x="127" y="476"/>
			<point x="77" y="476" type="curve" smooth="yes"/>
			<point x="45" y="476"/>
			<point x="21" y="458"/>
			<point x="8" y="437" type="curve"/>
			<point x="15" y="418" type="line"/>
			<point x="29" y="426"/>
			<point x="46" y="431"/>
			<point x="65" y="431" type="curve" smooth="yes"/>
			<point x="106" y="431"/>
			<point x="130" y="414"/>
			<point x="165" y="329" type="curve" smooth="yes"/>
		</contour>
	</outline>
</glyph>
<glyph name="iotadieresis" format="2">
	<unicode hex="03CA"/>
	<advance width="258"/>
	<outline>
		<contour>
			<point x="59" y="619" type="curve" smooth="yes"/>
			<point x="80" y="619"/>
			<point x="98" y="635"/>
			<point x="98" y="658" type="curve" smooth="yes"/>
			<point x="98" y="681"/>
			<point x="80" y="696"/>
			<point x="59" y="696" type="curve" smooth="yes"/>
			<point x="39" y="696"/>
			<point x="21" y="681"/>
			<point x="21" y="658" type="curve" smooth="yes"/>
			<point x="21" y="635"/>
			<point x="39" y="619"/>
		</contour>
		<contour>
			<point x="228" y="619" type="curve" smooth="yes"/>
			<point x="249" y="619"/>
			<point x="266" y="635"/>
			<point x="266" y="658" type="curve" smooth="yes"/>
			<point x="266" y="681"/>
			<point x="249" y="696"/>
			<point x="228" y="696" type="curve" smooth="yes"/>
			<point x="207" y="696"/>
			<point x="189" y="681"/>
			<point x="189" y="658" type="curve" smooth="yes"/>
			<point x="189" y="635"/>
			<point x="207" y="619"/>
		</contour>
		<component base="iota"/>
	</outline>
</glyph>
<glyph name="kai" format="2">
	<unicode hex="03D7"/>
	<advance width="565"/>
	<outline>
		<contour>
			<point x="166" y="-9" type="line"/>
			<point x="202" y="0" type="line"/>
			<point x="203" y="47"/>
			<point x="204" y="96"/>
			<point x="205" y="145" type="curve"/>
			<point x="204" y="147" type="line"/>
			<point x="207" y="219"/>
			<point x="208" y="293"/>
			<point x="208" y="364" type="curve" smooth="yes"/>
			<point x="208" y="447"/>
			<point x="187" y="475"/>
			<point x="139" y="475" type="curve" smooth="yes"/>
			<point x="114" y="475"/>
			<point x="92" y="461"/>
			<point x="81" y="446" type="curve"/>
			<point x="88" y="430" type="line"/>
			<point x="99" y="434"/>
			<point x="111" y="437"/>
			<point x="123" y="437" type="curve" smooth="yes"/>
			<point x="155" y="437"/>
			<point x="169" y="419"/>
			<point x="169" y="368" type="curve"/>
			<point x="166" y="165" type="line"/>
			<point x="156" y="-2" type="line"/>
		</contour>
		<contour>
			<point x="193" y="101" type="line"/>
			<point x="232" y="177"/>
			<point x="256" y="214"/>
			<point x="295" y="271" type="curve"/>
			<point x="349" y="342"/>
			<point x="402" y="396"/>
			<point x="464" y="441" type="curve"/>
			<point x="404" y="411" type="line"/>
			<point x="480" y="414" type="line" smooth="yes"/>
			<point x="518" y="416"/>
			<point x="535" y="427"/>
			<point x="535" y="450" type="curve" smooth="yes"/>
			<point x="535" y="468"/>
			<point x="524" y="475"/>
			<point x="510" y="479" type="curve"/>
			<point x="485" y="477"/>
			<point x="452" y="468"/>
			<point x="411" y="433" type="curve" smooth="yes"/>
			<point x="326" y="361"/>
			<point x="242" y="251"/>
			<point x="188" y="128" type="curve"/>
			<point x="185" y="126" type="line"/>
		</contour>
		<contour>
			<point x="278" y="-197" type="curve" smooth="yes"/>
			<point x="403" y="-197"/>
			<point x="485" y="-132"/>
			<point x="548" y="31" type="curve"/>
			<point x="541" y="45" type="line"/>
			<point x="530" y="40"/>
			<point x="512" y="35"/>
			<point x="494" y="35" type="curve" smooth="yes"/>
			<point x="453" y="35"/>
			<point x="425" y="76"/>
			<point x="301" y="287" type="curve"/>
			<point x="281" y="267" type="line"/>
			<point x="404" y="30"/>
			<point x="436" y="-11"/>
			<point x="481" y="-11" type="curve" smooth="yes"/>
			<point x="497" y="-11"/>
			<point x="511" y="-6"/>
			<point x="526" y="5" type="curve"/>
			<point x="526" y="10" type="line"/>
			<point x="518" y="10" type="line"/>
			<point x="459" y="-104"/>
			<point x="387" y="-151"/>
			<point x="282" y="-151" type="curve" smooth="yes"/>
			<point x="154" y="-151"/>
			<point x="71" y="-96"/>
			<point x="49" y="23" type="curve"/>
			<point x="29" y="20" type="line"/>
			<point x="40" y="-110"/>
			<point x="127" y="-197"/>
		</contour>
	</outline>
</glyph>
<glyph name="Dje" format="2">
	<unicode hex="0402"/>
	<advance width="692"/>
	<outline>
		<contour>
			<point x="24" y="503" type="line"/>
			<point x="54" y="503" type="line"/>
			<point x="81" y="671" type="line"/>
			<point x="57" y="646" type="line"/>
			<point x="525" y="646" type="line"/>
			<point x="501" y="671" type="line"/>
			<point x="529" y="503" type="line"/>
			<point x="558" y="503" type="line"/>
			<point x="548" y="674" type="line"/>
			<point x="34" y="674" type="line"/>
		</contour>
		<contour>
			<point x="247" y="0" type="curve"/>
			<point x="302" y="0" type="line"/>
			<point x="300" y="98"/>
			<point x="300" y="208"/>
			<point x="300" y="313" type="curve" smooth="yes"/>
			<point x="300" y="357" type="line" smooth="yes"/>
			<point x="300" y="467"/>
			<point x="300" y="577"/>
			<point x="302" y="674" type="curve"/>
			<point x="247" y="674" type="line"/>
			<point x="249" y="577"/>
			<point x="249" y="467"/>
			<point x="249" y="363" type="curve" smooth="yes"/>
			<point x="249" y="313" type="line" smooth="yes"/>
			<point x="249" y="208"/>
			<point x="249" y="97"/>
		</contour>
		<contour>
			<point x="435" y="-58" type="line"/>
			<point x="568" y="-46"/>
			<point x="637" y="57"/>
			<point x="637" y="175" type="curve" smooth="yes"/>
			<point x="637" y="321"/>
			<point x="571" y="384"/>
			<point x="421" y="384" type="curve" smooth="yes"/>
			<point x="372" y="384"/>
			<point x="324" y="380"/>
			<point x="272" y="370" type="curve"/>
			<point x="272" y="344" type="line"/>
			<point x="320" y="353"/>
			<point x="360" y="355"/>
			<point x="406" y="355" type="curve" smooth="yes"/>
			<point x="541" y="355"/>
			<point x="585" y="303"/>
			<point x="585" y="174" type="curve" smooth="yes"/>
			<point x="585" y="58"/>
			<point x="531" y="-18"/>
			<point x="429" y="-36" type="curve"/>
		</contour>
		<contour>
			<point x="141" y="0" type="line"/>
			<point x="278" y="0" type="line"/>
			<point x="277" y="33" type="line"/>
			<point x="266" y="33" type="line"/>
			<point x="141" y="23" type="line"/>
		</contour>
	</outline>
</glyph>
<glyph name="Pe" format="2">
	<unicode hex="041F"/>
	<advance width="758"/>
	<outline>
		<contour>
			<point x="148" y="0" type="curve"/>
			<point x="204" y="0" type="line"/>
			<point x="201" y="98"/>
			<point x="201" y="208"/>
			<point x="201" y="313" type="curve" smooth="yes"/>
			<point x="201" y="363" type="line" smooth="yes"/>
			<point x="201" y="467"/>
			<point x="201" y="577"/>
			<point x="204" y="674" type="curve"/>
			<point x="148" y="674" type="line"/>
			<point x="150" y="577"/>
			<point x="150" y="467"/>
			<point x="150" y="363" type="curve" smooth="yes"/>
			<point x="150" y="313" type="line" smooth="yes"/>
			<point x="150" y="208"/>
			<point x="150" y="97"/>
		</contour>
		<contour>
			<point x="554" y="0" type="curve"/>
			<point x="609" y="0" type="line"/>
			<point x="607" y="98"/>
			<point x="607" y="208"/>
			<point x="607" y="313" type="curve" smooth="yes"/>
			<point x="607" y="363" type="line" smooth="yes"/>
			<point x="607" y="467"/>
			<point x="607" y="577"/>
			<point x="609" y="674" type="curve"/>
			<point x="554" y="674" type="line"/>
			<point x="556" y="577"/>
			<point x="556" y="467"/>
			<point x="556" y="363" type="curve" smooth="yes"/>
			<point x="556" y="313" type="line" smooth="yes"/>
			<point x="556" y="207"/>
			<point x="556" y="97"/>
		</contour>
		<contour>
			<point x="51" y="0" type="line"/>
			<point x="301" y="0" type="line"/>
			<point x="301" y="23" type="line"/>
			<point x="184" y="33" type="line"/>
			<point x="167" y="33" type="line"/>
			<point x="51" y="23" type="line"/>
		</contour>
		<contour>
			<point x="457" y="0" type="line"/>
			<point x="707" y="0" type="line"/>
			<point x="707" y="23" type="line"/>
			<point x="591" y="33" type="line"/>
			<point x="573" y="33" type="line"/>
			<point x="457" y="23" type="line"/>
		</contour>
		<contour>
			<point x="51" y="650" type="line"/>
			<point x="167" y="641" type="line"/>
			<point x="178" y="641" type="line"/>
			<point x="178" y="674" type="line"/>
			<point x="51" y="674" type="line"/>
		</contour>
		<contour>
			<point x="579" y="641" type="line"/>
			<point x="591" y="641" type="line"/>
			<point x="707" y="650" type="line"/>
			<point x="707" y="674" type="line"/>
			<point x="578" y="674" type="line"/>
		</contour>
		<contour>
			<point x="175" y="647" type="line"/>
			<point x="583" y="647" type="line"/>
			<point x="583" y="674" type="line"/>
			<point x="175" y="674" type="line"/>
		</contour>
	</outline>
</glyph>
<glyph name="Ef" format="2">
	<unicode hex="0424"/>
	<advance width="692"/>
	<outline>
		<contour>
			<point x="327" y="110" type="curve" smooth="yes"/>
			<point x="343" y="110" type="line"/>
			<point x="343" y="137" type="line"/>
			<point x="326" y="137" type="line" smooth="yes"/>
			<point x="177" y="137"/>
			<point x="94" y="225"/>
			<point x="94" y="348" type="curve" smooth="yes"/>
			<point x="94" y="472"/>
			<point x="176" y="557"/>
			<point x="326" y="557" type="curve" smooth="yes"/>
			<point x="343" y="557" type="line"/>
			<point x="343" y="584" type="line"/>
			<point x="327" y="584" type="line"/>
			<point x="147" y="584"/>
			<point x="42" y="486"/>
			<point x="42" y="345" type="curve" smooth="yes"/>
			<point x="42" y="213"/>
			<point x="140" y="110"/>
		</contour>
		<contour>
			<point x="350" y="110" type="line"/>
			<point x="365" y="110" type="line" smooth="yes"/>
			<point x="552" y="110"/>
			<point x="650" y="214"/>
			<point x="650" y="346" type="curve" smooth="yes"/>
			<point x="650" y="487"/>
			<point x="547" y="584"/>
			<point x="365" y="584" type="curve"/>
			<point x="350" y="584" type="line"/>
			<point x="350" y="557" type="line"/>
			<point x="366" y="557" type="line" smooth="yes"/>
			<point x="516" y="557"/>
			<point x="598" y="472"/>
			<point x="598" y="348" type="curve" smooth="yes"/>
			<point x="598" y="225"/>
			<point x="515" y="137"/>
			<point x="366" y="137" type="curve" smooth="yes"/>
			<point x="350" y="137" type="line"/>
		</contour>
		<contour>
			<point x="222" y="-10" type="line"/>
			<point x="471" y="-10" type="line"/>
			<point x="471" y="13" type="line"/>
			<point x="356" y="23" type="line"/>
			<point x="338" y="23" type="line"/>
			<point x="222" y="13" type="line"/>
		</contour>
		<contour>
			<point x="338" y="650" type="line"/>
			<point x="356" y="650" type="line"/>
			<point x="471" y="659" type="line"/>
			<point x="471" y="683" type="line"/>
			<point x="222" y="683" type="line"/>
			<point x="222" y="659" type="line"/>
		</contour>
		<contour>
			<point x="323" y="-10" type="line"/>
			<point x="369" y="-10" type="line"/>
			<point x="369" y="683" type="line"/>
			<point x="323" y="683" type="line"/>
		</contour>
	</outline>
</glyph>
<glyph name="Soft" format="2">
	<unicode hex="042C"/>
	<advance width="574"/>
	<outline>
		<contour>
			<point x="175" y="0" type="line"/>
			<point x="305" y="0" type="line" smooth="yes"/>
			<point x="467" y="0"/>
			<point x="546" y="84"/>
			<point x="546" y="193" type="curve" smooth="yes"/>
			<point x="546" y="308"/>
			<point x="468" y="384"/>
			<point x="313" y="384" type="curve" smooth="yes"/>
			<point x="268" y="384"/>
			<point x="223" y="380"/>
			<point x="174" y="372" type="curve"/>
			<point x="174" y="345" type="line"/>
			<point x="216" y="353"/>
			<point x="255" y="356"/>
			<point x="299" y="356" type="curve" smooth="yes"/>
			<point x="439" y="356"/>
			<point x="493" y="295"/>
			<point x="493" y="193" type="curve" smooth="yes"/>
			<point x="493" y="89"/>
			<point x="433" y="27"/>
			<point x="298" y="27" type="curve" smooth="yes"/>
			<point x="175" y="27" type="line"/>
		</contour>
		<contour>
			<point x="148" y="0" type="curve"/>
			<point x="204" y="0" type="line"/>
			<point x="201" y="98"/>
			<point x="201" y="208"/>
			<point x="201" y="313" type="curve" smooth="yes"/>
			<point x="201" y="360" type="line" smooth="yes"/>
			<point x="201" y="467"/>
			<point x="201" y="577"/>
			<point x="204" y="674" type="curve"/>
			<point x="148" y="674" type="line"/>
			<point x="150" y="577"/>
			<point x="150" y="467"/>
			<point x="150" y="363" type="curve" smooth="yes"/>
			<point x="150" y="313" type="line" smooth="yes"/>
			<point x="150" y="208"/>
			<point x="150" y="97"/>
		</contour>
		<contour>
			<point x="51" y="650" type="line"/>
			<point x="167" y="641" type="line"/>
			<point x="187" y="641" type="line"/>
			<point x="308" y="650" type="line"/>
			<point x="308" y="674" type="line"/>
			<point x="51" y="674" type="line"/>
		</contour>
		<contour>
			<point x="51" y="0" type="line"/>
			<point x="177" y="0" type="line"/>
			<point x="177" y="33" type="line"/>
			<point x="167" y="33" type="line"/>
			<point x="51" y="23" type="line"/>
		</contour>
	</outline>
</glyph>
<glyph name="Ecyr" format="2">
	<unicode hex="042D"/>
	<advance width="611"/>
	<outline>
		<contour>
			<point x="58" y="37" type="line"/>
			<point x="122" y="-2"/>
			<point x="181" y="-14"/>
			<point x="249" y="-14" type="curve" smooth="yes"/>
			<point x="441" y="-14"/>
			<point x="554" y="126"/>
			<point x="554" y="337" type="curve" smooth="yes"/>
			<point x="554" y="548"/>
			<point x="437" y="687"/>
			<point x="249" y="687" type="curve" smooth="yes"/>
			<point x="181" y="687"/>
			<point x="125" y="674"/>
			<point x="64" y="636" type="curve"/>
			<point x="59" y="493" type="line"/>
			<point x="90" y="493" type="line"/>
			<point x="115" y="642" type="line"/>
			<point x="81" y="633" type="line"/>
			<point x="81" y="605" type="line"/>
			<point x="136" y="645"/>
			<point x="180" y="660"/>
			<point x="245" y="660" type="curve" smooth="yes"/>
			<point x="407" y="660"/>
			<point x="501" y="545"/>
			<point x="501" y="337" type="curve" smooth="yes"/>
			<point x="501" y="128"/>
			<point x="403" y="14"/>
			<point x="250" y="14" type="curve" smooth="yes"/>
			<point x="188" y="14"/>
			<point x="132" y="28"/>
			<point x="77" y="68" type="curve"/>
			<point x="77" y="41" type="line"/>
			<point x="108" y="35" type="line"/>
			<point x="84" y="181" type="line"/>
			<point x="53" y="181" type="line"/>
		</contour>
		<contour>
			<point x="228" y="231" type="line"/>
			<point x="252" y="231" type="line"/>
			<point x="265" y="334" type="line"/>
			<point x="265" y="352" type="line"/>
			<point x="252" y="454" type="line"/>
			<point x="228" y="454" type="line"/>
		</contour>
		<contour>
			<point x="249" y="328" type="line"/>
			<point x="524" y="328" type="line"/>
			<point x="524" y="356" type="line"/>
			<point x="249" y="356" type="line"/>
		</contour>
	</outline>
	<anchor name="aboveUC" x="264" y="694"/>
</glyph>
<glyph name="Yu" format="2">
	<unicode hex="042E"/>
	<advance width="954"/>
	<outline>
		<contour>
			<point x="148" y="0" type="curve"/>
			<point x="201" y="0" type="line"/>
			<point x="199" y="98"/>
			<point x="199" y="208"/>
			<point x="199" y="337" type="curve" smooth="yes"/>
			<point x="199" y="361" type="line" smooth="yes"/>
			<point x="199" y="467"/>
			<point x="199" y="577"/>
			<point x="201" y="674" type="curve"/>
			<point x="148" y="674" type="line"/>
			<point x="150" y="577"/>
			<point x="150" y="467"/>
			<point x="150" y="363" type="curve" smooth="yes"/>
			<point x="150" y="313" type="line" smooth="yes"/>
			<point x="150" y="208"/>
			<point x="150" y="97"/>
		</contour>
		<contour>
			<point x="51" y="0" type="line"/>
			<point x="299" y="0" type="line"/>
			<point x="299" y="23" type="line"/>
			<point x="184" y="33" type="line"/>
			<point x="167" y="33" type="line"/>
			<point x="51" y="23" type="line"/>
		</contour>
		<contour>
			<point x="51" y="650" type="line"/>
			<point x="167" y="641" type="line"/>
			<point x="184" y="641" type="line"/>
			<point x="299" y="650" type="line"/>
			<point x="299" y="674" type="line"/>
			<point x="51" y="674" type="line"/>
		</contour>
		<contour>
			<point x="171" y="336" type="line"/>
			<point x="382" y="336" type="line"/>
			<point x="382" y="363" type="line"/>
			<point x="171" y="363" type="line"/>
		</contour>
		<contour>
			<point x="626" y="-14" type="curve" smooth="yes"/>
			<point x="782" y="-14"/>
			<point x="897" y="117"/>
			<point x="897" y="337" type="curve" smooth="yes"/>
			<point x="897" y="557"/>
			<point x="782" y="687"/>
			<point x="626" y="687" type="curve" smooth="yes"/>
			<point x="470" y="687"/>
			<point x="355" y="553"/>
			<point x="355" y="341" type="curve" smooth="yes"/>
			<point x="355" y="117"/>
			<point x="470" y="-14"/>
		</contour>
		<contour>
			<point x="626" y="14" type="curve" smooth="yes"/>
			<point x="483" y="14"/>
			<point x="409" y="162"/>
			<point x="409" y="341" type="curve" smooth="yes"/>
			<point x="409" y="511"/>
			<point x="483" y="660"/>
			<point x="626" y="660" type="curve" smooth="yes"/>
			<point x="769" y="660"/>
			<point x="843" y="512"/>
			<point x="843" y="337" type="curve" smooth="yes"/>
			<point x="843" y="162"/>
			<point x="769" y="14"/>
		</contour>
	</outline>
	<anchor name="aboveUC" x="411" y="694"/>
</glyph>
<glyph name="Ya" format="2">
	<unicode hex="042F"/>
	<advance width="635"/>
	<outline>
		<contour>
			<point x="10" y="0" type="line"/>
			<point x="27" y="-4"/>
			<point x="51" y="-7"/>
			<point x="79" y="-7" type="curve" smooth="yes"/>
			<point x="127" y="-7"/>
			<point x="143" y="6"/>
			<point x="156" y="40" type="curve" smooth="yes"/>
			<point x="228" y="213" type="line" smooth="yes"/>
			<point x="258" y="286"/>
			<point x="279" y="311"/>
			<point x="365" y="311" type="curve" smooth="yes"/>
			<point x="462" y="311" type="line"/>
			<point x="462" y="338" type="line"/>
			<point x="326" y="338" type="line" smooth="yes"/>
			<point x="228" y="338"/>
			<point x="163" y="408"/>
			<point x="163" y="496" type="curve" smooth="yes"/>
			<point x="163" y="592"/>
			<point x="222" y="647"/>
			<point x="339" y="647" type="curve" smooth="yes"/>
			<point x="462" y="647" type="line"/>
			<point x="462" y="674" type="line"/>
			<point x="331" y="674" type="line" smooth="yes"/>
			<point x="197" y="674"/>
			<point x="112" y="611"/>
			<point x="112" y="495" type="curve" smooth="yes"/>
			<point x="112" y="400"/>
			<point x="183" y="326"/>
			<point x="304" y="318" type="curve"/>
			<point x="310" y="327" type="line"/>
			<point x="238" y="316"/>
			<point x="211" y="287"/>
			<point x="179" y="211" type="curve" smooth="yes"/>
			<point x="97" y="18" type="line"/>
			<point x="117" y="31" type="line"/>
			<point x="10" y="23" type="line"/>
		</contour>
		<contour>
			<point x="434" y="0" type="curve"/>
			<point x="489" y="0" type="line"/>
			<point x="487" y="97"/>
			<point x="487" y="208"/>
			<point x="487" y="313" type="curve" smooth="yes"/>
			<point x="487" y="363" type="line" smooth="yes"/>
			<point x="487" y="467"/>
			<point x="487" y="577"/>
			<point x="489" y="674" type="curve"/>
			<point x="434" y="674" type="line"/>
			<point x="436" y="576"/>
			<point x="436" y="468"/>
			<point x="436" y="340" type="curve" smooth="yes"/>
			<point x="436" y="320" type="line" smooth="yes"/>
			<point x="436" y="208"/>
			<point x="436" y="98"/>
		</contour>
		<contour>
			<point x="337" y="0" type="line"/>
			<point x="587" y="0" type="line"/>
			<point x="587" y="23" type="line"/>
			<point x="470" y="33" type="line"/>
			<point x="453" y="33" type="line"/>
			<point x="337" y="23" type="line"/>
		</contour>
		<contour>
			<point x="460" y="641" type="line"/>
			<point x="470" y="641" type="line"/>
			<point x="587" y="650" type="line"/>
			<point x="587" y="674" type="line"/>
			<point x="460" y="674" type="line"/>
		</contour>
	</outline>
	<anchor name="aboveUC" x="350" y="694"/>
</glyph>
<glyph name="be" format="2">
	<unicode hex="0431"/>
	<advance width="527"/>
	<outline>
		<contour>
			<point x="273" y="-13" type="curve" smooth="yes"/>
			<point x="376" y="-13"/>
			<point x="479" y="67"/>
			<point x="479" y="242" type="curve" smooth="yes"/>
			<point x="479" y="397"/>
			<point x="385" y="471"/>
			<point x="279" y="471" type="curve" smooth="yes"/>
			<point x="175" y="471"/>
			<point x="107" y="404"/>
			<point x="82" y="299" type="curve"/>
			<point x="85" y="301" type="line"/>
			<point x="91" y="465"/>
			<point x="116" y="558"/>
			<point x="165" y="602" type="curve" smooth="yes"/>
			<point x="197" y="632"/>
			<point x="243" y="644"/>
			<point x="317" y="656" type="curve" smooth="yes"/>
			<point x="386" y="668"/>
			<point x="432" y="674"/>
			<point x="448" y="689" type="curve" smooth="yes"/>
			<point x="462" y="702"/>
			<point x="467" y="730"/>
			<point x="472" y="768" type="curve"/>
			<point x="453" y="773" type="line"/>
			<point x="434" y="725" type="line"/>
			<point x="399" y="718"/>
			<point x="350" y="709"/>
			<point x="308" y="701" type="curve" smooth="yes"/>
			<point x="234" y="688"/>
			<point x="187" y="674"/>
			<point x="144" y="631" type="curve" smooth="yes"/>
			<point x="86" y="574"/>
			<point x="61" y="444"/>
			<point x="61" y="286" type="curve" smooth="yes"/>
			<point x="61" y="77"/>
			<point x="146" y="-13"/>
		</contour>
		<contour>
			<point x="273" y="13" type="curve" smooth="yes"/>
			<point x="182" y="13"/>
			<point x="113" y="95"/>
			<point x="113" y="235" type="curve" smooth="yes"/>
			<point x="113" y="370"/>
			<point x="184" y="446"/>
			<point x="274" y="446" type="curve" smooth="yes"/>
			<point x="365" y="446"/>
			<point x="429" y="376"/>
			<point x="429" y="236" type="curve" smooth="yes"/>
			<point x="429" y="99"/>
			<point x="364" y="13"/>
		</contour>
	</outline>
</glyph>
<glyph name="ze" format="2">
	<unicode hex="0437"/>
	<advance width="410"/>
	<outline>
		<contour>
			<point x="194" y="-13" type="curve" smooth="yes"/>
			<point x="312" y="-13"/>
			<point x="376" y="54"/>
			<point x="376" y="126" type="curve" smooth="yes"/>
			<point x="376" y="199"/>
			<point x="323" y="246"/>
			<point x="227" y="251" type="curve"/>
			<point x="225" y="245" type="line"/>
			<point x="317" y="250"/>
			<point x="361" y="298"/>
			<point x="361" y="359" type="curve" smooth="yes"/>
			<point x="361" y="432"/>
			<point x="305" y="478"/>
			<point x="204" y="478" type="curve" smooth="yes"/>
			<point x="153" y="478"/>
			<point x="102" y="465"/>
			<point x="60" y="439" type="curve"/>
			<point x="63" y="332" type="line"/>
			<point x="91" y="332" type="line"/>
			<point x="106" y="446" type="line"/>
			<point x="85" y="420" type="line"/>
			<point x="119" y="444"/>
			<point x="157" y="453"/>
			<point x="198" y="453" type="curve" smooth="yes"/>
			<point x="278" y="453"/>
			<point x="317" y="416"/>
			<point x="317" y="357" type="curve" smooth="yes"/>
			<point x="317" y="297"/>
			<point x="279" y="261"/>
			<point x="195" y="261" type="curve" smooth="yes"/>
			<point x="159" y="261" type="line"/>
			<point x="159" y="234" type="line"/>
			<point x="198" y="234" type="line" smooth="yes"/>
			<point x="292" y="234"/>
			<point x="328" y="191"/>
			<point x="328" y="127" type="curve" smooth="yes"/>
			<point x="328" y="54"/>
			<point x="275" y="11"/>
			<point x="196" y="11" type="curve" smooth="yes"/>
			<point x="152" y="11"/>
			<point x="116" y="18"/>
			<point x="80" y="43" type="curve"/>
			<point x="116" y="10" type="line"/>
			<point x="94" y="83" type="line" smooth="yes"/>
			<point x="89" y="102"/>
			<point x="79" y="113"/>
			<point x="63" y="113" type="curve" smooth="yes"/>
			<point x="49" y="113"/>
			<point x="39" y="107"/>
			<point x="35" y="91" type="curve"/>
			<point x="50" y="22"/>
			<point x="114" y="-13"/>
		</contour>
	</outline>
</glyph>
<glyph name="em" format="2">
	<unicode hex="043C"/>
	<advance width="709"/>
	<outline>
		<contour>
			<point x="334" y="41" type="line"/>
			<point x="361" y="41" type="line"/>
			<point x="547" y="450" type="line"/>
			<point x="553" y="450" type="line"/>
			<point x="553" y="466" type="line"/>
			<point x="527" y="466" type="line"/>
			<point x="350" y="76" type="line"/>
			<point x="365" y="76" type="line"/>
			<point x="184" y="466" type="line"/>
			<point x="137" y="466" type="line"/>
			<point x="137" y="449" type="line"/>
			<point x="143" y="450" type="line"/>
		</contour>
		<contour>
			<point x="538" y="0" type="line"/>
			<point x="587" y="0" type="line"/>
			<point x="585" y="45"/>
			<point x="584" y="146"/>
			<point x="584" y="208" type="curve" smooth="yes"/>
			<point x="584" y="257" type="line" smooth="yes"/>
			<point x="584" y="319"/>
			<point x="585" y="421"/>
			<point x="587" y="466" type="curve"/>
			<point x="542" y="466" type="line"/>
			<point x="539" y="208" type="line"/>
		</contour>
		<contour>
			<point x="43" y="0" type="line"/>
			<point x="235" y="0" type="line"/>
			<point x="235" y="22" type="line"/>
			<point x="145" y="32" type="line"/>
			<point x="135" y="32" type="line"/>
			<point x="43" y="22" type="line"/>
		</contour>
		<contour>
			<point x="456" y="0" type="line"/>
			<point x="666" y="0" type="line"/>
			<point x="666" y="22" type="line"/>
			<point x="569" y="32" type="line"/>
			<point x="555" y="32" type="line"/>
			<point x="456" y="22" type="line"/>
		</contour>
		<contour>
			<point x="43" y="444" type="line"/>
			<point x="137" y="433" type="line"/>
			<point x="146" y="433" type="line"/>
			<point x="146" y="466" type="line"/>
			<point x="43" y="466" type="line"/>
		</contour>
		<contour>
			<point x="125" y="0" type="line"/>
			<point x="153" y="0" type="line"/>
			<point x="153" y="208" type="line"/>
			<point x="148" y="463" type="line"/>
			<point x="125" y="463" type="line"/>
		</contour>
		<contour>
			<point x="558" y="433" type="line"/>
			<point x="569" y="433" type="line"/>
			<point x="666" y="444" type="line"/>
			<point x="666" y="466" type="line"/>
			<point x="558" y="466" type="line"/>
		</contour>
	</outline>
</glyph>
<glyph name="pe" format="2">
	<unicode hex="043F"/>
	<advance width="603"/>
	<outline>
		<contour>
			<point x="121" y="0" type="curve"/>
			<point x="174" y="0" type="line"/>
			<point x="172" y="45"/>
			<point x="171" y="146"/>
			<point x="171" y="208" type="curve" smooth="yes"/>
			<point x="171" y="257" type="line" smooth="yes"/>
			<point x="171" y="319"/>
			<point x="172" y="421"/>
			<point x="174" y="466" type="curve"/>
			<point x="121" y="466" type="line"/>
			<point x="124" y="421"/>
			<point x="125" y="319"/>
			<point x="125" y="257" type="curve" smooth="yes"/>
			<point x="125" y="208" type="line" smooth="yes"/>
			<point x="125" y="146"/>
			<point x="124" y="45"/>
		</contour>
		<contour>
			<point x="429" y="0" type="curve"/>
			<point x="482" y="0" type="line"/>
			<point x="479" y="45"/>
			<point x="478" y="146"/>
			<point x="478" y="208" type="curve" smooth="yes"/>
			<point x="478" y="257" type="line" smooth="yes"/>
			<point x="478" y="319"/>
			<point x="479" y="421"/>
			<point x="482" y="466" type="curve"/>
			<point x="429" y="466" type="line"/>
			<point x="431" y="421"/>
			<point x="432" y="319"/>
			<point x="432" y="257" type="curve" smooth="yes"/>
			<point x="432" y="208" type="line" smooth="yes"/>
			<point x="432" y="146"/>
			<point x="431" y="45"/>
		</contour>
		<contour>
			<point x="43" y="0" type="line"/>
			<point x="251" y="0" type="line"/>
			<point x="251" y="22" type="line"/>
			<point x="155" y="32" type="line"/>
			<point x="142" y="32" type="line"/>
			<point x="43" y="22" type="line"/>
		</contour>
		<contour>
			<point x="352" y="0" type="line"/>
			<point x="561" y="0" type="line"/>
			<point x="561" y="22" type="line"/>
			<point x="463" y="32" type="line"/>
			<point x="450" y="32" type="line"/>
			<point x="352" y="22" type="line"/>
		</contour>
		<contour>
			<point x="43" y="444" type="line"/>
			<point x="142" y="433" type="line"/>
			<point x="149" y="433" type="line"/>
			<point x="149" y="466" type="line"/>
			<point x="43" y="466" type="line"/>
		</contour>
		<contour>
			<point x="454" y="433" type="line"/>
			<point x="463" y="433" type="line"/>
			<point x="560" y="444" type="line"/>
			<point x="560" y="466" type="line"/>
			<point x="454" y="466" type="line"/>
		</contour>
		<contour>
			<point x="148" y="440" type="line"/>
			<point x="455" y="440" type="line"/>
			<point x="455" y="466" type="line"/>
			<point x="148" y="466" type="line"/>
		</contour>
	</outline>
</glyph>
<glyph name="te" format="2">
	<unicode hex="0442"/>
	<advance width="506"/>
	<outline>
		<contour>
			<point x="31" y="315" type="line"/>
			<point x="56" y="315" type="line"/>
			<point x="86" y="461" type="line"/>
			<point x="61" y="440" type="line"/>
			<point x="445" y="440" type="line"/>
			<point x="420" y="461" type="line"/>
			<point x="450" y="315" type="line"/>
			<point x="475" y="315" type="line"/>
			<point x="467" y="466" type="line"/>
			<point x="39" y="466" type="line"/>
		</contour>
		<contour>
			<point x="140" y="0" type="line"/>
			<point x="366" y="0" type="line"/>
			<point x="366" y="22" type="line"/>
			<point x="260" y="32" type="line"/>
			<point x="246" y="32" type="line"/>
			<point x="140" y="22" type="line"/>
		</contour>
		<contour>
			<point x="227" y="0" type="curve"/>
			<point x="279" y="0" type="line"/>
			<point x="277" y="45"/>
			<point x="276" y="146"/>
			<point x="276" y="208" type="curve" smooth="yes"/>
			<point x="276" y="257" type="line" smooth="yes"/>
			<point x="276" y="319"/>
			<point x="277" y="421"/>
			<point x="279" y="466" type="curve"/>
			<point x="227" y="466" type="line"/>
			<point x="229" y="421"/>
			<point x="230" y="319"/>
			<point x="230" y="257" type="curve" smooth="yes"/>
			<point x="230" y="208" type="line" smooth="yes"/>
			<point x="230" y="146"/>
			<point x="229" y="45"/>
		</contour>
	</outline>
</glyph>
<glyph name="tse" format="2">
	<unicode hex="0446"/>
	<advance width="598"/>
	<outline>
		<contour>
			<point x="121" y="0" type="curve"/>
			<point x="174" y="0" type="line"/>
			<point x="172" y="45"/>
			<point x="171" y="146"/>
			<point x="171" y="208" type="curve" smooth="yes"/>
			<point x="171" y="257" type="line" smooth="yes"/>
			<point x="171" y="319"/>
			<point x="172" y="421"/>
			<point x="174" y="466" type="curve"/>
			<point x="121" y="466" type="line"/>
			<point x="124" y="421"/>
			<point x="125" y="319"/>
			<point x="125" y="257" type="curve" smooth="yes"/>
			<point x="125" y="208" type="line" smooth="yes"/>
			<point x="125" y="146"/>
			<point x="124" y="45"/>
		</contour>
		<contour>
			<point x="424" y="0" type="curve"/>
			<point x="476" y="0" type="line"/>
			<point x="474" y="45"/>
			<point x="473" y="146"/>
			<point x="473" y="208" type="curve" smooth="yes"/>
			<point x="473" y="257" type="line" smooth="yes"/>
			<point x="473" y="319"/>
			<point x="474" y="421"/>
			<point x="476" y="466" type="curve"/>
			<point x="424" y="466" type="line"/>
			<point x="426" y="421"/>
			<point x="427" y="319"/>
			<point x="427" y="257" type="curve" smooth="yes"/>
			<point x="427" y="208" type="line" smooth="yes"/>
			<point x="427" y="146"/>
			<point x="426" y="45"/>
		</contour>
		<contour>
			<point x="529" y="-148" type="line"/>
			<point x="555" y="-148" type="line"/>
			<point x="562" y="26" type="line"/>
			<point x="148" y="26" type="line"/>
			<point x="148" y="0" type="line"/>
			<point x="541" y="0" type="line"/>
			<point x="514" y="22" type="line"/>
		</contour>
		<contour>
			<point x="43" y="444" type="line"/>
			<point x="142" y="433" type="line"/>
			<point x="155" y="433" type="line"/>
			<point x="251" y="444" type="line"/>
			<point x="251" y="466" type="line"/>
			<point x="43" y="466" type="line"/>
		</contour>
		<contour>
			<point x="347" y="444" type="line"/>
			<point x="445" y="433" type="line"/>
			<point x="458" y="433" type="line"/>
			<point x="555" y="444" type="line"/>
			<point x="555" y="466" type="line"/>
			<point x="347" y="466" type="line"/>
		</contour>
		<contour>
			<point x="43" y="0" type="line"/>
			<point x="149" y="0" type="line"/>
			<point x="149" y="32" type="line"/>
			<point x="142" y="32" type="line"/>
			<point x="43" y="22" type="line"/>
		</contour>
	</outline>
	<anchor name="aboveLC" x="299" y="486"/>
</glyph>
<glyph name="che" format="2">
	<unicode hex="0447"/>
	<advance width="535"/>
	<outline>
		<contour>
			<point x="227" y="192" type="curve" smooth="yes"/>
			<point x="281" y="192"/>
			<point x="334" y="208"/>
			<point x="389" y="228" type="curve"/>
			<point x="389" y="251" type="line"/>
			<point x="336" y="233"/>
			<point x="291" y="224"/>
			<point x="239" y="224" type="curve" smooth="yes"/>
			<point x="167" y="224"/>
			<point x="133" y="246"/>
			<point x="133" y="322" type="curve" smooth="yes"/>
			<point x="133" y="374"/>
			<point x="133" y="416"/>
			<point x="136" y="466" type="curve"/>
			<point x="90" y="466" type="line"/>
			<point x="88" y="417"/>
			<point x="87" y="365"/>
			<point x="87" y="317" type="curve" smooth="yes"/>
			<point x="87" y="229"/>
			<point x="129" y="192"/>
		</contour>
		<contour>
			<point x="361" y="0" type="curve"/>
			<point x="414" y="0" type="line"/>
			<point x="412" y="45"/>
			<point x="411" y="146"/>
			<point x="411" y="208" type="curve" smooth="yes"/>
			<point x="411" y="257" type="line" smooth="yes"/>
			<point x="411" y="319"/>
			<point x="412" y="421"/>
			<point x="414" y="466" type="curve"/>
			<point x="361" y="466" type="line"/>
			<point x="364" y="421"/>
			<point x="365" y="319"/>
			<point x="365" y="257" type="curve" smooth="yes"/>
			<point x="365" y="213" type="line" smooth="yes"/>
			<point x="365" y="146"/>
			<point x="364" y="45"/>
		</contour>
		<contour>
			<point x="16" y="444" type="line"/>
			<point x="106" y="433" type="line"/>
			<point x="118" y="433" type="line"/>
			<point x="215" y="444" type="line"/>
			<point x="215" y="466" type="line"/>
			<point x="16" y="466" type="line"/>
		</contour>
		<contour>
			<point x="283" y="0" type="line"/>
			<point x="493" y="0" type="line"/>
			<point x="493" y="22" type="line"/>
			<point x="394" y="32" type="line"/>
			<point x="380" y="32" type="line"/>
			<point x="283" y="22" type="line"/>
		</contour>
		<contour>
			<point x="283" y="444" type="line"/>
			<point x="382" y="433" type="line"/>
			<point x="395" y="433" type="line"/>
			<point x="493" y="444" type="line"/>
			<point x="493" y="466" type="line"/>
			<point x="283" y="466" type="line"/>
		</contour>
	</outline>
	<anchor name="aboveLC" x="250" y="486"/>
</glyph>
<glyph name="sha" format="2">
	<unicode hex="0448"/>
	<advance width="842"/>
	<outline>
		<contour>
			<point x="121" y="0" type="curve"/>
			<point x="173" y="0" type="line"/>
			<point x="171" y="45"/>
			<point x="170" y="146"/>
			<point x="170" y="208" type="curve" smooth="yes"/>
			<point x="170" y="257" type="line" smooth="yes"/>
			<point x="170" y="319"/>
			<point x="171" y="421"/>
			<point x="173" y="466" type="curve"/>
			<point x="121" y="466" type="line"/>
			<point x="124" y="421"/>
			<point x="125" y="319"/>
			<point x="125" y="257" type="curve" smooth="yes"/>
			<point x="125" y="208" type="line" smooth="yes"/>
			<point x="125" y="146"/>
			<point x="124" y="45"/>
		</contour>
		<contour>
			<point x="396" y="0" type="curve"/>
			<point x="447" y="0" type="line"/>
			<point x="445" y="45"/>
			<point x="444" y="146"/>
			<point x="444" y="208" type="curve" smooth="yes"/>
			<point x="444" y="257" type="line" smooth="yes"/>
			<point x="444" y="319"/>
			<point x="445" y="421"/>
			<point x="447" y="466" type="curve"/>
			<point x="396" y="466" type="line"/>
			<point x="398" y="421"/>
			<point x="399" y="319"/>
			<point x="399" y="257" type="curve" smooth="yes"/>
			<point x="399" y="208" type="line" smooth="yes"/>
			<point x="399" y="146"/>
			<point x="398" y="45"/>
		</contour>
		<contour>
			<point x="670" y="0" type="curve"/>
			<point x="721" y="0" type="line"/>
			<point x="719" y="45"/>
			<point x="718" y="146"/>
			<point x="718" y="208" type="curve" smooth="yes"/>
			<point x="718" y="257" type="line" smooth="yes"/>
			<point x="718" y="319"/>
			<point x="719" y="421"/>
			<point x="721" y="466" type="curve"/>
			<point x="670" y="466" type="line"/>
			<point x="672" y="421"/>
			<point x="673" y="319"/>
			<point x="673" y="257" type="curve" smooth="yes"/>
			<point x="673" y="208" type="line" smooth="yes"/>
			<point x="673" y="146"/>
			<point x="672" y="45"/>
		</contour>
		<contour>
			<point x="43" y="444" type="line"/>
			<point x="142" y="433" type="line"/>
			<point x="154" y="433" type="line"/>
			<point x="249" y="444" type="line"/>
			<point x="249" y="466" type="line"/>
			<point x="43" y="466" type="line"/>
		</contour>
		<contour>
			<point x="320" y="444" type="line"/>
			<point x="416" y="433" type="line"/>
			<point x="429" y="433" type="line"/>
			<point x="523" y="444" type="line"/>
			<point x="523" y="466" type="line"/>
			<point x="320" y="466" type="line"/>
		</contour>
		<contour>
			<point x="594" y="444" type="line"/>
			<point x="690" y="433" type="line"/>
			<point x="702" y="433" type="line"/>
			<point x="800" y="444" type="line"/>
			<point x="800" y="466" type="line"/>
			<point x="594" y="466" type="line"/>
		</contour>
		<contour>
			<point x="43" y="0" type="line"/>
			<point x="148" y="0" type="line"/>
			<point x="149" y="32" type="line"/>
			<point x="141" y="32" type="line"/>
			<point x="43" y="22" type="line"/>
		</contour>
		<contour>
			<point x="694" y="0" type="line"/>
			<point x="800" y="0" type="line"/>
			<point x="800" y="22" type="line"/>
			<point x="702" y="32" type="line"/>
			<point x="694" y="32" type="line"/>
		</contour>
		<contour>
			<point x="146" y="0" type="line"/>
			<point x="696" y="0" type="line"/>
			<point x="696" y="26" type="line"/>
			<point x="146" y="26" type="line"/>
		</contour>
	</outline>
</glyph>
<glyph name="soft" format="2">
	<unicode hex="044C"/>
	<advance width="470"/>
	<outline>
		<contour>
			<point x="156" y="0" type="line"/>
			<point x="257" y="0" type="line" smooth="yes"/>
			<point x="389" y="0"/>
			<point x="446" y="65"/>
			<point x="446" y="146" type="curve" smooth="yes"/>
			<point x="446" y="225"/>
			<point x="394" y="285"/>
			<point x="270" y="285" type="curve" smooth="yes"/>
			<point x="232" y="285"/>
			<point x="194" y="280"/>
			<point x="157" y="273" type="curve"/>
			<point x="156" y="247" type="line"/>
			<point x="192" y="255"/>
			<point x="225" y="258"/>
			<point x="259" y="258" type="curve" smooth="yes"/>
			<point x="354" y="258"/>
			<point x="397" y="219"/>
			<point x="397" y="144" type="curve" smooth="yes"/>
			<point x="397" y="65"/>
			<point x="351" y="25"/>
			<point x="245" y="25" type="curve" smooth="yes"/>
			<point x="156" y="25" type="line"/>
		</contour>
		<contour>
			<point x="127" y="0" type="curve"/>
			<point x="180" y="0" type="line"/>
			<point x="177" y="45"/>
			<point x="176" y="146"/>
			<point x="176" y="208" type="curve" smooth="yes"/>
			<point x="176" y="257" type="line" smooth="yes"/>
			<point x="176" y="319"/>
			<point x="177" y="421"/>
			<point x="180" y="466" type="curve"/>
			<point x="127" y="466" type="line"/>
			<point x="129" y="421"/>
			<point x="130" y="319"/>
			<point x="130" y="257" type="curve" smooth="yes"/>
			<point x="130" y="208" type="line" smooth="yes"/>
			<point x="130" y="146"/>
			<point x="129" y="45"/>
		</contour>
		<contour>
			<point x="48" y="444" type="line"/>
			<point x="147" y="433" type="line"/>
			<point x="161" y="433" type="line"/>
			<point x="258" y="444" type="line"/>
			<point x="258" y="466" type="line"/>
			<point x="48" y="466" type="line"/>
		</contour>
		<contour>
			<point x="48" y="0" type="line"/>
			<point x="157" y="0" type="line"/>
			<point x="157" y="32" type="line"/>
			<point x="147" y="32" type="line"/>
			<point x="48" y="22" type="line"/>
		</contour>
	</outline>
</glyph>
<glyph name="dje" format="2">
	<unicode hex="0452"/>
	<advance width="537"/>
	<outline>
		<contour>
			<point x="123" y="0" type="curve"/>
			<point x="175" y="0" type="line"/>
			<point x="173" y="45"/>
			<point x="172" y="148"/>
			<point x="172" y="210" type="curve" smooth="yes"/>
			<point x="172" y="356" type="line"/>
			<point x="172" y="366" type="line"/>
			<point x="172" y="581" type="line"/>
			<point x="174" y="738" type="line"/>
			<point x="161" y="745" type="line"/>
			<point x="41" y="723" type="line"/>
			<point x="41" y="701" type="line"/>
			<point x="126" y="697" type="line"/>
			<point x="126" y="210" type="line" smooth="yes"/>
			<point x="126" y="148"/>
			<point x="125" y="45"/>
		</contour>
		<contour>
			<point x="389" y="-148" type="line"/>
			<point x="441" y="-27"/>
			<point x="484" y="90"/>
			<point x="484" y="240" type="curve" smooth="yes"/>
			<point x="484" y="396"/>
			<point x="441" y="461"/>
			<point x="345" y="461" type="curve" smooth="yes"/>
			<point x="278" y="461"/>
			<point x="207" y="420"/>
			<point x="153" y="349" type="curve"/>
			<point x="149" y="349" type="line"/>
			<point x="160" y="331" type="line"/>
			<point x="222" y="395"/>
			<point x="276" y="422"/>
			<point x="329" y="422" type="curve" smooth="yes"/>
			<point x="409" y="422"/>
			<point x="436" y="360"/>
			<point x="436" y="242" type="curve" smooth="yes"/>
			<point x="436" y="73"/>
			<point x="404" y="-23"/>
			<point x="359" y="-148" type="curve"/>
		</contour>
		<contour>
			<point x="42" y="0" type="line"/>
			<point x="245" y="0" type="line"/>
			<point x="245" y="22" type="line"/>
			<point x="155" y="32" type="line"/>
			<point x="142" y="32" type="line"/>
			<point x="42" y="22" type="line"/>
		</contour>
		<contour>
			<point x="41" y="571" type="line"/>
			<point x="365" y="571" type="line"/>
			<point x="365" y="598" type="line"/>
			<point x="41" y="598" type="line"/>
		</contour>
	</outline>
</glyph>
<glyph name="lje" format="2">
	<unicode hex="0459"/>
	<advance width="719"/>
	<outline>
		<contour>
			<point x="78" y="-9" type="curve" smooth="yes"/>
			<point x="124" y="-9"/>
			<point x="165" y="31"/>
			<point x="193" y="123" type="curve" smooth="yes"/>
			<point x="219" y="206"/>
			<point x="236" y="326"/>
			<point x="241" y="466" type="curve"/>
			<point x="211" y="466" type="line"/>
			<point x="207" y="331"/>
			<point x="191" y="215"/>
			<point x="163" y="133" type="curve" smooth="yes"/>
			<point x="146" y="77"/>
			<point x="126" y="49"/>
			<point x="95" y="29" type="curve"/>
			<point x="95" y="20" type="line"/>
			<point x="120" y="20" type="line"/>
			<point x="120" y="29" type="line"/>
			<point x="100" y="50"/>
			<point x="83" y="64"/>
			<point x="62" y="64" type="curve" smooth="yes"/>
			<point x="43" y="64"/>
			<point x="30" y="54"/>
			<point x="24" y="38" type="curve"/>
			<point x="25" y="9"/>
			<point x="46" y="-9"/>
		</contour>
		<contour>
			<point x="218" y="433" type="line"/>
			<point x="224" y="433" type="line"/>
			<point x="224" y="466" type="line"/>
			<point x="128" y="466" type="line"/>
			<point x="128" y="444" type="line"/>
		</contour>
		<contour>
			<point x="225" y="440" type="line"/>
			<point x="411" y="440" type="line"/>
			<point x="411" y="466" type="line"/>
			<point x="225" y="466" type="line"/>
		</contour>
		<contour>
			<point x="303" y="0" type="line"/>
			<point x="411" y="0" type="line"/>
			<point x="411" y="32" type="line"/>
			<point x="402" y="32" type="line"/>
			<point x="303" y="22" type="line"/>
		</contour>
		<contour>
			<point x="381" y="0" type="curve"/>
			<point x="434" y="0" type="line"/>
			<point x="432" y="45"/>
			<point x="431" y="146"/>
			<point x="431" y="208" type="curve" smooth="yes"/>
			<point x="431" y="257" type="line" smooth="yes"/>
			<point x="431" y="319"/>
			<point x="432" y="421"/>
			<point x="434" y="466" type="curve"/>
			<point x="381" y="466" type="line"/>
			<point x="383" y="421"/>
			<point x="384" y="319"/>
			<point x="384" y="257" type="curve" smooth="yes"/>
			<point x="384" y="208" type="line" smooth="yes"/>
			<point x="384" y="146"/>
			<point x="383" y="45"/>
		</contour>
		<contour>
			<point x="406" y="433" type="line"/>
			<point x="415" y="433" type="line"/>
			<point x="513" y="444" type="line"/>
			<point x="513" y="466" type="line"/>
			<point x="407" y="466" type="line"/>
		</contour>
		<contour>
			<point x="411" y="0" type="line"/>
			<point x="504" y="0" type="line" smooth="yes"/>
			<point x="634" y="0"/>
			<point x="689" y="62"/>
			<point x="689" y="142" type="curve" smooth="yes"/>
			<point x="689" y="220"/>
			<point x="638" y="279"/>
			<point x="517" y="279" type="curve" smooth="yes"/>
			<point x="485" y="279"/>
			<point x="445" y="276"/>
			<point x="411" y="271" type="curve"/>
			<point x="411" y="245" type="line"/>
			<point x="443" y="250"/>
			<point x="479" y="252"/>
			<point x="506" y="252" type="curve" smooth="yes"/>
			<point x="599" y="252"/>
			<point x="641" y="215"/>
			<point x="641" y="141" type="curve" smooth="yes"/>
			<point x="641" y="64"/>
			<point x="596" y="25"/>
			<point x="493" y="25" type="curve" smooth="yes"/>
			<point x="411" y="25" type="line"/>
		</contour>
	</outline>
</glyph>
<glyph name="yat" format="2">
	<unicode hex="0463"/>
	<advance width="572"/>
	<outline>
		<contour>
			<point x="31" y="330" type="line"/>
			<point x="56" y="330" type="line"/>
			<point x="84" y="473" type="line"/>
			<point x="61" y="451" type="line"/>
			<point x="449" y="451" type="line"/>
			<point x="426" y="473" type="line"/>
			<point x="453" y="336" type="line"/>
			<point x="479" y="336" type="line"/>
			<point x="471" y="477" type="line"/>
			<point x="39" y="477" type="line"/>
		</contour>
		<contour>
			<point x="139" y="0" type="line"/>
			<point x="247" y="0" type="line"/>
			<point x="247" y="32" type="line"/>
			<point x="240" y="32" type="line"/>
			<point x="139" y="22" type="line"/>
		</contour>
		<contour>
			<point x="220" y="0" type="curve"/>
			<point x="272" y="0" type="line"/>
			<point x="270" y="45"/>
			<point x="269" y="147"/>
			<point x="269" y="210" type="curve" smooth="yes"/>
			<point x="269" y="259" type="line"/>
			<point x="268" y="263" type="line"/>
			<point x="268" y="466" type="line"/>
			<point x="271" y="617" type="line"/>
			<point x="259" y="625" type="line"/>
			<point x="137" y="602" type="line"/>
			<point x="137" y="580" type="line"/>
			<point x="223" y="576" type="line"/>
			<point x="223" y="210" type="line" smooth="yes"/>
			<point x="223" y="147"/>
			<point x="222" y="45"/>
		</contour>
		<contour>
			<point x="249" y="0" type="line"/>
			<point x="345" y="0" type="line" smooth="yes"/>
			<point x="478" y="0"/>
			<point x="530" y="64"/>
			<point x="530" y="143" type="curve" smooth="yes"/>
			<point x="530" y="220"/>
			<point x="481" y="279"/>
			<point x="358" y="279" type="curve" smooth="yes"/>
			<point x="325" y="279"/>
			<point x="287" y="276"/>
			<point x="250" y="269" type="curve"/>
			<point x="249" y="245" type="line"/>
			<point x="283" y="250"/>
			<point x="318" y="253"/>
			<point x="347" y="253" type="curve" smooth="yes"/>
			<point x="439" y="253"/>
			<point x="482" y="215"/>
			<point x="482" y="141" type="curve" smooth="yes"/>
			<point x="482" y="64"/>
			<point x="439" y="25"/>
			<point x="333" y="25" type="curve" smooth="yes"/>
			<point x="249" y="25" type="line"/>
		</contour>
	</outline>
</glyph>
<glyph name="Izhitsa" format="2">
	<unicode hex="0474"/>
	<advance width="656"/>
	<outline>
		<contour>
			<point x="312" y="-7" type="line"/>
			<point x="336" y="-7" type="line"/>
			<point x="489" y="473" type="line" smooth="yes"/>
			<point x="520" y="569"/>
			<point x="543" y="627"/>
			<point x="574" y="653" type="curve"/>
			<point x="555" y="658" type="line"/>
			<point x="543" y="646" type="line"/>
			<point x="570" y="622"/>
			<point x="591" y="612"/>
			<point x="618" y="612" type="curve" smooth="yes"/>
			<point x="644" y="612"/>
			<point x="662" y="623"/>
			<point x="668" y="645" type="curve"/>
			<point x="667" y="671"/>
			<point x="642" y="687"/>
			<point x="606" y="687" type="curve" smooth="yes"/>
			<point x="535" y="687"/>
			<point x="507" y="629"/>
			<point x="461" y="481" type="curve" smooth="yes"/>
			<point x="326" y="52" type="line"/>
			<point x="339" y="52" type="line"/>
			<point x="134" y="674" type="line"/>
			<point x="80" y="674" type="line"/>
		</contour>
		<contour>
			<point x="7" y="650" type="line"/>
			<point x="113" y="641" type="line"/>
			<point x="130" y="641" type="line"/>
			<point x="247" y="649" type="line"/>
			<point x="247" y="674" type="line"/>
			<point x="7" y="674" type="line"/>
		</contour>
	</outline>
</glyph>
<glyph name="izhitsa" format="2">
	<unicode hex="0475"/>
	<advance width="504"/>
	<outline>
		<contour>
			<point x="-3" y="442" type="line"/>
			<point x="86" y="433" type="line"/>
			<point x="99" y="433" type="line"/>
			<point x="202" y="442" type="line"/>
			<point x="202" y="466" type="line"/>
			<point x="-3" y="466" type="line"/>
		</contour>
		<contour>
			<point x="237" y="-5" type="line"/>
			<point x="262" y="-5" type="line"/>
			<point x="383" y="327" type="line" smooth="yes"/>
			<point x="403" y="380"/>
			<point x="417" y="410"/>
			<point x="447" y="443" type="curve"/>
			<point x="422" y="443" type="line"/>
			<point x="411" y="425" type="line"/>
			<point x="428" y="417"/>
			<point x="443" y="411"/>
			<point x="464" y="411" type="curve" smooth="yes"/>
			<point x="492" y="411"/>
			<point x="509" y="423"/>
			<point x="509" y="445" type="curve" smooth="yes"/>
			<point x="509" y="461"/>
			<point x="497" y="473"/>
			<point x="479" y="477" type="curve"/>
			<point x="451" y="475"/>
			<point x="432" y="466"/>
			<point x="415" y="449" type="curve" smooth="yes"/>
			<point x="395" y="428"/>
			<point x="381" y="397"/>
			<point x="357" y="333" type="curve" smooth="yes"/>
			<point x="251" y="36" type="line"/>
			<point x="268" y="36" type="line"/>
			<point x="105" y="466" type="line"/>
			<point x="51" y="466" type="line"/>
		</contour>
	</outline>
</glyph>
<glyph name="gheup" format="2">
	<unicode hex="0491"/>
	<advance width="433"/>
	<outline>
		<contour>
			<point x="121" y="0" type="curve"/>
			<point x="174" y="0" type="line"/>
			<point x="172" y="45"/>
			<point x="171" y="146"/>
			<point x="171" y="208" type="curve" smooth="yes"/>
			<point x="171" y="257" type="line" smooth="yes"/>
			<point x="171" y="319"/>
			<point x="172" y="421"/>
			<point x="174" y="466" type="curve"/>
			<point x="121" y="466" type="line"/>
			<point x="124" y="421"/>
			<point x="125" y="319"/>
			<point x="125" y="257" type="curve" smooth="yes"/>
			<point x="125" y="208" type="line" smooth="yes"/>
			<point x="125" y="146"/>
			<point x="124" y="45"/>
		</contour>
		<contour>
			<point x="145" y="466" type="line"/>
			<point x="145" y="440" type="line"/>
			<point x="393" y="440" type="line"/>
			<point x="402" y="596" type="line"/>
			<point x="376" y="596" type="line"/>
			<point x="344" y="444" type="line"/>
			<point x="372" y="466" type="line"/>
		</contour>
		<contour>
			<point x="43" y="0" type="line"/>
			<point x="259" y="0" type="line"/>
			<point x="259" y="22" type="line"/>
			<point x="154" y="32" type="line"/>
			<point x="140" y="32" type="line"/>
			<point x="43" y="22" type="line"/>
		</contour>
		<contour>
			<point x="43" y="444" type="line"/>
			<point x="142" y="433" type="line"/>
			<point x="148" y="433" type="line"/>
			<point x="148" y="466" type="line"/>
			<point x="43" y="466" type="line"/>
		</contour>
	</outline>
</glyph>
<glyph name="Ghestroke" format="2">
	<unicode hex="0492"/>
	<advance width="546"/>
	<outline>
		<contour>
			<point x="52" y="337" type="line"/>
			<point x="353" y="337" type="line"/>
			<point x="353" y="364" type="line"/>
			<point x="52" y="364" type="line"/>
		</contour>
		<component base="Ghe"/>
	</outline>
</glyph>
<glyph name="chedescender" format="2">
	<unicode hex="04B7"/>
	<advance width="536"/>
	<outline>
		<contour>
			<point x="478" y="0" type="line"/>
			<point x="451" y="22" type="line"/>
			<point x="469" y="-148" type="line"/>
			<point x="495" y="-148" type="line"/>
			<point x="499" y="23" type="line"/>
			<point x="390" y="33" type="line"/>
			<point x="390" y="0" type="line"/>
		</contour>
		<component base="che"/>
	</outline>
</glyph>
<glyph name="Schwacyr" format="2">
	<unicode hex="04D8"/>
	<advance width="643"/>
	<outline>
		<contour>
			<point x="315" y="-14" type="curve" smooth="yes"/>
			<point x="466" y="-14"/>
			<point x="587" y="114"/>
			<point x="587" y="342" type="curve" smooth="yes"/>
			<point x="587" y="569"/>
			<point x="467" y="687"/>
			<point x="307" y="687" type="curve" smooth="yes"/>
			<point x="228" y="687"/>
			<point x="165" y="666"/>
			<point x="100" y="622" type="curve"/>
			<point x="96" y="482" type="line"/>
			<point x="127" y="482" type="line"/>
			<point x="152" y="637" type="line"/>
			<point x="118" y="596" type="line"/>
			<point x="179" y="640"/>
			<point x="232" y="657"/>
			<point x="298" y="657" type="curve" smooth="yes"/>
			<point x="435" y="657"/>
			<point x="533" y="557"/>
			<point x="533" y="339" type="curve" smooth="yes"/>
			<point x="533" y="134"/>
			<point x="447" y="14"/>
			<point x="316" y="14" type="curve" smooth="yes"/>
			<point x="176" y="14"/>
			<point x="109" y="135"/>
			<point x="109" y="267" type="curve" smooth="yes"/>
			<point x="109" y="292"/>
			<point x="110" y="310"/>
			<point x="114" y="330" type="curve"/>
			<point x="551" y="330" type="line"/>
			<point x="551" y="357" type="line"/>
			<point x="64" y="357" type="line"/>
			<point x="59" y="337"/>
			<point x="56" y="311"/>
			<point x="56" y="276" type="curve" smooth="yes"/>
			<point x="56" y="113"/>
			<point x="144" y="-14"/>
		</contour>
	</outline>
</glyph>
<glyph name="d.sups" format="2">
	<unicode hex="1D48"/>
	<advance width="377"/>
	<outline>
		<contour>
			<point x="161" y="423" type="curve" smooth="yes"/>
			<point x="206" y="423"/>
			<point x="246" y="448"/>
			<point x="277" y="495" type="curve"/>
			<point x="277" y="504" type="line"/>
			<point x="274" y="508" type="line"/>
			<point x="241" y="469"/>
			<point x="210" y="450"/>
			<point x="173" y="450" type="curve" smooth="yes"/>
			<point x="118" y="450"/>
			<point x="76" y="490"/>
			<point x="76" y="581" type="curve" smooth="yes"/>
			<point x="76" y="678"/>
			<point x="120" y="719"/>
			<point x="177" y="719" type="curve" smooth="yes"/>
			<point x="210" y="719"/>
			<point x="238" y="701"/>
			<point x="273" y="665" type="curve"/>
			<point x="280" y="678" type="line"/>
			<point x="277" y="678" type="line"/>
			<point x="247" y="725"/>
			<point x="210" y="746"/>
			<point x="171" y="746" type="curve" smooth="yes"/>
			<point x="95" y="746"/>
			<point x="34" y="686"/>
			<point x="34" y="580" type="curve" smooth="yes"/>
			<point x="34" y="481"/>
			<point x="89" y="423"/>
		</contour>
		<contour>
			<point x="266" y="428" type="line"/>
			<point x="360" y="433" type="line"/>
			<point x="360" y="450" type="line"/>
			<point x="302" y="456" type="line"/>
			<point x="302" y="904" type="line"/>
			<point x="294" y="909" type="line"/>
			<point x="207" y="891" type="line"/>
			<point x="207" y="874" type="line"/>
			<point x="262" y="870" type="line"/>
			<point x="262" y="686" type="line"/>
			<point x="262" y="684" type="line"/>
			<point x="262" y="489" type="line"/>
			<point x="262" y="487" type="line"/>
		</contour>
	</outline>
</glyph>
<glyph name="e.sups" format="2">
	<unicode hex="1D49"/>
	<advance width="327"/>
	<outline>
		<contour>
			<point x="178" y="423" type="curve" smooth="yes"/>
			<point x="227" y="423"/>
			<point x="269" y="447"/>
			<point x="294" y="490" type="curve"/>
			<point x="283" y="499" type="line"/>
			<point x="259" y="471"/>
			<point x="228" y="455"/>
			<point x="187" y="455" type="curve" smooth="yes"/>
			<point x="123" y="455"/>
			<point x="74" y="500"/>
			<point x="74" y="589" type="curve" smooth="yes"/>
			<point x="74" y="678"/>
			<point x="121" y="725"/>
			<point x="175" y="725" type="curve" smooth="yes"/>
			<point x="227" y="725"/>
			<point x="258" y="686"/>
			<point x="258" y="638" type="curve" smooth="yes"/>
			<point x="258" y="617"/>
			<point x="252" y="608"/>
			<point x="231" y="608" type="curve" smooth="yes"/>
			<point x="51" y="608" type="line"/>
			<point x="51" y="588" type="line"/>
			<point x="292" y="588" type="line"/>
			<point x="294" y="598"/>
			<point x="296" y="610"/>
			<point x="296" y="624" type="curve" smooth="yes"/>
			<point x="296" y="694"/>
			<point x="250" y="746"/>
			<point x="177" y="746" type="curve" smooth="yes"/>
			<point x="100" y="746"/>
			<point x="32" y="681"/>
			<point x="32" y="583" type="curve" smooth="yes"/>
			<point x="32" y="478"/>
			<point x="96" y="423"/>
		</contour>
	</outline>
</glyph>
<glyph name="m.sups" format="2">
	<unicode hex="1D50"/>
	<advance width="584"/>
	<outline>
		<contour>
			<point x="81" y="433" type="line"/>
			<point x="121" y="433" type="line"/>
			<point x="121" y="666" type="line"/>
			<point x="121" y="668" type="line"/>
			<point x="117" y="738" type="line"/>
			<point x="109" y="743" type="line"/>
			<point x="24" y="719" type="line"/>
			<point x="24" y="702" type="line"/>
			<point x="81" y="698" type="line"/>
		</contour>
		<contour>
			<point x="279" y="433" type="line"/>
			<point x="318" y="433" type="line"/>
			<point x="318" y="635" type="line" smooth="yes"/>
			<point x="318" y="715"/>
			<point x="287" y="746"/>
			<point x="237" y="746" type="curve" smooth="yes"/>
			<point x="195" y="746"/>
			<point x="155" y="722"/>
			<point x="115" y="674" type="curve"/>
			<point x="104" y="674" type="line"/>
			<point x="114" y="652" type="line"/>
			<point x="158" y="697"/>
			<point x="194" y="713"/>
			<point x="223" y="713" type="curve" smooth="yes"/>
			<point x="259" y="713"/>
			<point x="279" y="692"/>
			<point x="279" y="631" type="curve" smooth="yes"/>
		</contour>
		<contour>
			<point x="475" y="433" type="line"/>
			<point x="514" y="433" type="line"/>
			<point x="514" y="636" type="line" smooth="yes"/>
			<point x="514" y="714"/>
			<point x="484" y="746"/>
			<point x="431" y="746" type="curve" smooth="yes"/>
			<point x="389" y="746"/>
			<point x="349" y="722"/>
			<point x="310" y="675" type="curve"/>
			<point x="300" y="675" type="line"/>
			<point x="311" y="655" type="line"/>
			<point x="353" y="697"/>
			<point x="388" y="713"/>
			<point x="417" y="713" type="curve" smooth="yes"/>
			<point x="454" y="713"/>
			<point x="475" y="692"/>
			<point x="475" y="631" type="curve" smooth="yes"/>
		</contour>
		<contour>
			<point x="27" y="433" type="line"/>
			<point x="171" y="433" type="line"/>
			<point x="171" y="450" type="line"/>
			<point x="107" y="459" type="line"/>
			<point x="95" y="459" type="line"/>
			<point x="27" y="450" type="line"/>
		</contour>
		<contour>
			<point x="225" y="433" type="line"/>
			<point x="368" y="433" type="line"/>
			<point x="368" y="450" type="line"/>
			<point x="304" y="459" type="line"/>
			<point x="293" y="459" type="line"/>
			<point x="225" y="450" type="line"/>
		</contour>
		<contour>
			<point x="421" y="433" type="line"/>
			<point x="564" y="433" type="line"/>
			<point x="564" y="450" type="line"/>
			<point x="500" y="459" type="line"/>
			<point x="488" y="459" type="line"/>
			<point x="421" y="450" type="line"/>
		</contour>
	</outline>
</glyph>
<glyph name="p.sups" format="2">
	<unicode hex="1D56"/>
	<advance width="381"/>
	<outline>
		<contour>
			<point x="217" y="423" type="curve" smooth="yes"/>
			<point x="291" y="423"/>
			<point x="348" y="484"/>
			<point x="348" y="589" type="curve" smooth="yes"/>
			<point x="348" y="688"/>
			<point x="294" y="746"/>
			<point x="223" y="746" type="curve" smooth="yes"/>
			<point x="179" y="746"/>
			<point x="138" y="721"/>
			<point x="105" y="671" type="curve"/>
			<point x="101" y="671" type="line"/>
			<point x="108" y="659" type="line"/>
			<point x="144" y="700"/>
			<point x="175" y="719"/>
			<point x="212" y="719" type="curve" smooth="yes"/>
			<point x="266" y="719"/>
			<point x="306" y="677"/>
			<point x="306" y="587" type="curve" smooth="yes"/>
			<point x="306" y="490"/>
			<point x="262" y="451"/>
			<point x="211" y="451" type="curve" smooth="yes"/>
			<point x="173" y="451"/>
			<point x="145" y="465"/>
			<point x="108" y="504" type="curve"/>
			<point x="102" y="497" type="line"/>
			<point x="104" y="494" type="line"/>
			<point x="137" y="441"/>
			<point x="176" y="423"/>
		</contour>
		<contour>
			<point x="80" y="273" type="line"/>
			<point x="120" y="273" type="line"/>
			<point x="120" y="481" type="line"/>
			<point x="120" y="482" type="line"/>
			<point x="120" y="680" type="line"/>
			<point x="120" y="683" type="line"/>
			<point x="116" y="738" type="line"/>
			<point x="109" y="743" type="line"/>
			<point x="23" y="719" type="line"/>
			<point x="23" y="702" type="line"/>
			<point x="80" y="698" type="line"/>
		</contour>
		<contour>
			<point x="25" y="273" type="line"/>
			<point x="182" y="273" type="line"/>
			<point x="182" y="291" type="line"/>
			<point x="106" y="300" type="line"/>
			<point x="93" y="300" type="line"/>
			<point x="25" y="291" type="line"/>
		</contour>
	</outline>
</glyph>
<glyph name="v.sups" format="2">
	<unicode hex="1D5B"/>
	<advance width="333"/>
	<outline>
		<contour>
			<point x="161" y="427" type="line"/>
			<point x="180" y="427" type="line"/>
			<point x="298" y="735" type="line"/>
			<point x="275" y="735" type="line"/>
			<point x="168" y="446" type="line"/>
			<point x="186" y="465" type="line"/>
			<point x="78" y="735" type="line"/>
			<point x="33" y="735" type="line"/>
		</contour>
		<contour>
			<point x="0" y="717" type="line"/>
			<point x="60" y="709" type="line"/>
			<point x="73" y="709" type="line"/>
			<point x="143" y="717" type="line"/>
			<point x="143" y="735" type="line"/>
			<point x="0" y="735" type="line"/>
		</contour>
		<contour>
			<point x="211" y="717" type="line"/>
			<point x="273" y="710" type="line"/>
			<point x="282" y="710" type="line"/>
			<point x="331" y="717" type="line"/>
			<point x="331" y="735" type="line"/>
			<point x="211" y="735" type="line"/>
		</contour>
	</outline>
</glyph>
<glyph name="guilsinglleft" format="2">
	<unicode hex="2039"/>
	<advance width="279"/>
	<outline>
		<contour>
			<point x="236" y="47" type="line"/>
			<point x="250" y="63" type="line"/>
			<point x="62" y="262" type="line"/>
			<point x="62" y="235" type="line"/>
			<point x="250" y="434" type="line"/>
			<point x="236" y="449" type="line"/>
			<point x="24" y="261" type="line"/>
			<point x="24" y="235" type="line"/>
		</contour>
	</outline>
</glyph>
<glyph name="fraction" format="2">
	<unicode hex="2044"/>
	<unicode hex="2215"/>
	<advance width="139"/>
	<outline>
		<contour>
			<point x="-157" y="-22" type="line"/>
			<point x="315" y="657" type="line"/>
			<point x="295" y="672" type="line"/>
			<point x="-178" y="-8" type="line"/>
		</contour>
	</outline>
</glyph>
<glyph name="i.sups" format="2">
	<unicode hex="2071"/>
	<advance width="192"/>
	<outline>
		<contour>
			<point x="79" y="433" type="line"/>
			<point x="119" y="433" type="line"/>
			<point x="119" y="738" type="line"/>
			<point x="112" y="743" type="line"/>
			<point x="23" y="719" type="line"/>
			<point x="23" y="702" type="line"/>
			<point x="79" y="698" type="line"/>
		</contour>
		<contour>
			<point x="26" y="433" type="line"/>
			<point x="170" y="433" type="line"/>
			<point x="170" y="450" type="line"/>
			<point x="106" y="459" type="line"/>
			<point x="93" y="459" type="line"/>
			<point x="26" y="450" type="line"/>
		</contour>
		<contour>
			<point x="98" y="833" type="curve" smooth="yes"/>
			<point x="116" y="833"/>
			<point x="131" y="846"/>
			<point x="131" y="865" type="curve" smooth="yes"/>
			<point x="131" y="885"/>
			<point x="116" y="898"/>
			<point x="98" y="898" type="curve" smooth="yes"/>
			<point x="79" y="898"/>
			<point x="65" y="885"/>
			<point x="65" y="865" type="curve" smooth="yes"/>
			<point x="65" y="846"/>
			<point x="79" y="833"/>
		</contour>
	</outline>
</glyph>
<glyph name="five.sups" format="2">
	<unicode hex="2075"/>
	<advance width="341"/>
	<outline>
		<contour>
			<point x="157" y="424" type="curve" smooth="yes"/>
			<point x="242" y="424"/>
			<point x="302" y="476"/>
			<point x="302" y="555" type="curve" smooth="yes"/>
			<point x="302" y="635"/>
			<point x="246" y="679"/>
			<point x="165" y="679" type="curve" smooth="yes"/>
			<point x="134" y="679"/>
			<point x="105" y="673"/>
			<point x="76" y="659" type="curve"/>
			<point x="76" y="653" type="line"/>
			<point x="93" y="653" type="line"/>
			<point x="105" y="814" type="line"/>
			<point x="93" y="789" type="line"/>
			<point x="290" y="789" type="line"/>
			<point x="290" y="830" type="line"/>
			<point x="84" y="830" type="line"/>
			<point x="71" y="645" type="line"/>
			<point x="83" y="640" type="line"/>
			<point x="105" y="649"/>
			<point x="129" y="653"/>
			<point x="155" y="653" type="curve" smooth="yes"/>
			<point x="219" y="653"/>
			<point x="258" y="616"/>
			<point x="258" y="551" type="curve" smooth="yes"/>
			<point x="258" y="487"/>
			<point x="219" y="444"/>
			<point x="153" y="444" type="curve" smooth="yes"/>
			<point x="126" y="444"/>
			<point x="106" y="449"/>
			<point x="83" y="462" type="curve"/>
			<point x="104" y="442" type="line"/>
			<point x="88" y="493" type="line" smooth="yes"/>
			<point x="81" y="516"/>
			<point x="75" y="524"/>
			<point x="62" y="524" type="curve" smooth="yes"/>
			<point x="50" y="524"/>
			<point x="41" y="517"/>
			<point x="38" y="504" type="curve"/>
			<point x="49" y="453"/>
			<point x="92" y="424"/>
		</contour>
	</outline>
</glyph>
<glyph name="parenleft.sups" format="2">
	<unicode hex="207D"/>
	<advance width="233"/>
	<outline>
		<contour>
			<point x="103" y="603" type="curve" smooth="yes"/>
			<point x="103" y="705"/>
			<point x="130" y="784"/>
			<point x="203" y="885" type="curve"/>
			<point x="191" y="895" type="line"/>
			<point x="106" y="809"/>
			<point x="64" y="713"/>
			<point x="64" y="603" type="curve" smooth="yes"/>
			<point x="64" y="493"/>
			<point x="106" y="397"/>
			<point x="191" y="312" type="curve"/>
			<point x="203" y="322" type="line"/>
			<point x="130" y="422"/>
			<point x="103" y="502"/>
		</contour>
	</outline>
</glyph>
<glyph name="parenright.sups" format="2">
	<unicode hex="207E"/>
	<advance width="233"/>
	<outline>
		<contour>
			<point x="129" y="603" type="curve" smooth="yes"/>
			<point x="129" y="502"/>
			<point x="103" y="422"/>
			<point x="30" y="322" type="curve"/>
			<point x="42" y="312" type="line"/>
			<point x="127" y="397"/>
			<point x="169" y="493"/>
			<point x="169" y="603" type="curve" smooth="yes"/>
			<point x="169" y="713"/>
			<point x="127" y="809"/>
			<point x="42" y="895" type="curve"/>
			<point x="30" y="885" type="line"/>
			<point x="103" y="785"/>
			<point x="129" y="705"/>
		</contour>
	</outline>
</glyph>
<glyph name="n.sups" format="2">
	<unicode hex="207F"/>
	<advance width="396"/>
	<outline>
		<contour>
			<point x="81" y="433" type="line"/>
			<point x="120" y="433" type="line"/>
			<point x="120" y="667" type="line"/>
			<point x="120" y="668" type="line"/>
			<point x="117" y="738" type="line"/>
			<point x="109" y="743" type="line"/>
			<point x="24" y="719" type="line"/>
			<point x="24" y="702" type="line"/>
			<point x="81" y="698" type="line"/>
		</contour>
		<contour>
			<point x="286" y="433" type="line"/>
			<point x="326" y="433" type="line"/>
			<point x="326" y="635" type="line" smooth="yes"/>
			<point x="326" y="715"/>
			<point x="295" y="746"/>
			<point x="242" y="746" type="curve" smooth="yes"/>
			<point x="199" y="746"/>
			<point x="156" y="723"/>
			<point x="115" y="674" type="curve"/>
			<point x="104" y="674" type="line"/>
			<point x="114" y="652" type="line"/>
			<point x="159" y="699"/>
			<point x="197" y="713"/>
			<point x="228" y="713" type="curve" smooth="yes"/>
			<point x="265" y="713"/>
			<point x="286" y="692"/>
			<point x="286" y="631" type="curve" smooth="yes"/>
		</contour>
		<contour>
			<point x="27" y="433" type="line"/>
			<point x="171" y="433" type="line"/>
			<point x="171" y="450" type="line"/>
			<point x="107" y="459" type="line"/>
			<point x="95" y="459" type="line"/>
			<point x="27" y="450" type="line"/>
		</contour>
		<contour>
			<point x="232" y="433" type="line"/>
			<point x="375" y="433" type="line"/>
			<point x="375" y="450" type="line"/>
			<point x="312" y="459" type="line"/>
			<point x="299" y="459" type="line"/>
			<point x="232" y="450" type="line"/>
		</contour>
	</outline>
</glyph>
<glyph name="lira" format="2">
	<unicode hex="20A4"/>
	<advance width="485"/>
	<outline>
		<contour>
			<point x="38" y="0" type="line"/>
			<point x="449" y="0" type="line"/>
			<point x="449" y="44" type="line"/>
			<point x="72" y="44" type="line"/>
			<point x="72" y="33" type="line"/>
			<point x="145" y="83"/>
			<point x="186" y="155"/>
			<point x="186" y="256" type="curve" smooth="yes"/>
			<point x="186" y="344"/>
			<point x="144" y="401"/>
			<point x="144" y="497" type="curve" smooth="yes"/>
			<point x="144" y="585"/>
			<point x="192" y="639"/>
			<point x="272" y="639" type="curve" smooth="yes"/>
			<point x="310" y="639"/>
			<point x="339" y="629"/>
			<point x="380" y="600" type="curve"/>
			<point x="343" y="632" type="line"/>
			<point x="372" y="553" type="line" smooth="yes"/>
			<point x="380" y="526"/>
			<point x="391" y="516"/>
			<point x="407" y="516" type="curve" smooth="yes"/>
			<point x="421" y="516"/>
			<point x="431" y="523"/>
			<point x="436" y="537" type="curve"/>
			<point x="414" y="614"/>
			<point x="353" y="664"/>
			<point x="267" y="664" type="curve" smooth="yes"/>
			<point x="164" y="664"/>
			<point x="93" y="596"/>
			<point x="93" y="495" type="curve" smooth="yes"/>
			<point x="93" y="392"/>
			<point x="152" y="336"/>
			<point x="152" y="248" type="curve" smooth="yes"/>
			<point x="152" y="154"/>
			<point x="115" y="86"/>
			<point x="38" y="30" type="curve"/>
		</contour>
		<contour>
			<point x="39" y="237" type="line"/>
			<point x="384" y="237" type="line"/>
			<point x="384" y="265" type="line"/>
			<point x="39" y="265" type="line"/>
		</contour>
		<contour>
			<point x="39" y="355" type="line"/>
			<point x="384" y="355" type="line"/>
			<point x="384" y="384" type="line"/>
			<point x="39" y="384" type="line"/>
		</contour>
	</outline>
</glyph>
<glyph name="dong" format="2">
	<unicode hex="20AB"/>
	<advance width="485"/>
	<outline>
		<contour>
			<point x="50" y="-4" type="line"/>
			<point x="444" y="-4" type="line"/>
			<point x="444" y="25" type="line"/>
			<point x="50" y="25" type="line"/>
		</contour>
		<contour>
			<point x="202" y="85" type="curve" smooth="yes"/>
			<point x="246" y="85"/>
			<point x="292" y="102"/>
			<point x="340" y="170" type="curve"/>
			<point x="343" y="171" type="line"/>
			<point x="341" y="196" type="line"/>
			<point x="292" y="131"/>
			<point x="255" y="117"/>
			<point x="215" y="117" type="curve" smooth="yes"/>
			<point x="149" y="117"/>
			<point x="94" y="170"/>
			<point x="94" y="278" type="curve" smooth="yes"/>
			<point x="94" y="389"/>
			<point x="150" y="444"/>
			<point x="219" y="444" type="curve" smooth="yes"/>
			<point x="256" y="444"/>
			<point x="292" y="432"/>
			<point x="343" y="373" type="curve"/>
			<point x="344" y="397" type="line"/>
			<point x="342" y="398" type="line"/>
			<point x="293" y="462"/>
			<point x="250" y="476"/>
			<point x="210" y="476" type="curve" smooth="yes"/>
			<point x="116" y="476"/>
			<point x="44" y="399"/>
			<point x="44" y="277" type="curve" smooth="yes"/>
			<point x="44" y="163"/>
			<point x="108" y="85"/>
		</contour>
		<contour>
			<point x="113" y="540" type="line"/>
			<point x="445" y="540" type="line"/>
			<point x="445" y="569" type="line"/>
			<point x="113" y="569" type="line"/>
		</contour>
		<contour>
			<point x="323" y="92" type="line"/>
			<point x="442" y="97" type="line"/>
			<point x="442" y="121" type="line"/>
			<point x="368" y="127" type="line"/>
			<point x="368" y="545" type="line"/>
			<point x="371" y="682" type="line"/>
			<point x="358" y="689" type="line"/>
			<point x="230" y="672" type="line"/>
			<point x="230" y="649" type="line"/>
			<point x="323" y="645" type="line"/>
			<point x="323" y="413" type="line"/>
			<point x="322" y="405" type="line"/>
			<point x="322" y="165" type="line"/>
			<point x="322" y="163" type="line"/>
		</contour>
	</outline>
</glyph>
<glyph name="tugrik" format="2">
	<unicode hex="20AE"/>
	<advance width="485"/>
	<outline>
		<contour>
			<point x="9" y="489" type="line"/>
			<point x="38" y="489" type="line"/>
			<point x="65" y="649" type="line"/>
			<point x="41" y="625" type="line"/>
			<point x="445" y="625" type="line"/>
			<point x="420" y="649" type="line"/>
			<point x="447" y="489" type="line"/>
			<point x="476" y="489" type="line"/>
			<point x="467" y="652" type="line"/>
			<point x="18" y="652" type="line"/>
		</contour>
		<contour>
			<point x="216" y="0" type="curve"/>
			<point x="268" y="0" type="line"/>
			<point x="266" y="92"/>
			<point x="266" y="197"/>
			<point x="266" y="234" type="curve" smooth="yes"/>
			<point x="266" y="369" type="line" smooth="yes"/>
			<point x="266" y="456"/>
			<point x="266" y="560"/>
			<point x="268" y="652" type="curve"/>
			<point x="216" y="652" type="line"/>
			<point x="219" y="560"/>
			<point x="219" y="455"/>
			<point x="219" y="353" type="curve" smooth="yes"/>
			<point x="219" y="220" type="line" smooth="yes"/>
			<point x="219" y="195"/>
			<point x="219" y="92"/>
		</contour>
		<contour>
			<point x="111" y="0" type="line"/>
			<point x="374" y="0" type="line"/>
			<point x="374" y="23" type="line"/>
			<point x="251" y="32" type="line"/>
			<point x="234" y="32" type="line"/>
			<point x="111" y="23" type="line"/>
		</contour>
		<contour>
			<point x="81" y="147" type="line"/>
			<point x="242" y="212" type="line"/>
			<point x="242" y="241" type="line"/>
			<point x="81" y="177" type="line"/>
		</contour>
		<contour>
			<point x="81" y="281" type="line"/>
			<point x="242" y="345" type="line"/>
			<point x="242" y="374" type="line"/>
			<point x="81" y="310" type="line"/>
		</contour>
		<contour>
			<point x="242" y="209" type="line"/>
			<point x="404" y="274" type="line"/>
			<point x="404" y="303" type="line"/>
			<point x="242" y="239" type="line"/>
		</contour>
		<contour>
			<point x="242" y="343" type="line"/>
			<point x="404" y="407" type="line"/>
			<point x="404" y="436" type="line"/>
			<point x="242" y="372" type="line"/>
		</contour>
	</outline>
</glyph>
<glyph name="guarani" format="2">
	<unicode hex="20B2"/>
	<advance width="485"/>
	<outline>
		<contour>
			<point x="274" y="-13" type="curve" smooth="yes"/>
			<point x="324" y="-13"/>
			<point x="366" y="1"/>
			<point x="414" y="33" type="curve"/>
			<point x="414" y="91" type="line" smooth="yes"/>
			<point x="414" y="172"/>
			<point x="415" y="240"/>
			<point x="417" y="307" type="curve"/>
			<point x="363" y="307" type="line"/>
			<point x="365" y="235"/>
			<point x="366" y="162"/>
			<point x="366" y="91" type="curve" smooth="yes"/>
			<point x="366" y="27" type="line"/>
			<point x="389" y="53" type="line"/>
			<point x="354" y="25"/>
			<point x="318" y="14"/>
			<point x="281" y="14" type="curve" smooth="yes"/>
			<point x="161" y="14"/>
			<point x="89" y="135"/>
			<point x="89" y="323" type="curve" smooth="yes"/>
			<point x="89" y="513"/>
			<point x="166" y="638"/>
			<point x="285" y="638" type="curve" smooth="yes"/>
			<point x="333" y="638"/>
			<point x="363" y="624"/>
			<point x="400" y="590" type="curve"/>
			<point x="399" y="625" type="line"/>
			<point x="365" y="630" type="line"/>
			<point x="390" y="477" type="line"/>
			<point x="420" y="477" type="line"/>
			<point x="415" y="623" type="line"/>
			<point x="375" y="652"/>
			<point x="338" y="664"/>
			<point x="284" y="664" type="curve" smooth="yes"/>
			<point x="135" y="664"/>
			<point x="36" y="523"/>
			<point x="36" y="323" type="curve" smooth="yes"/>
			<point x="36" y="121"/>
			<point x="124" y="-13"/>
		</contour>
		<contour>
			<point x="267" y="285" type="line"/>
			<point x="379" y="277" type="line"/>
			<point x="395" y="277" type="line"/>
			<point x="480" y="285" type="line"/>
			<point x="480" y="307" type="line"/>
			<point x="267" y="307" type="line"/>
		</contour>
		<contour>
			<point x="265" y="-115" type="line"/>
			<point x="291" y="-115" type="line"/>
			<point x="291" y="4" type="line"/>
			<point x="265" y="4" type="line"/>
		</contour>
		<contour>
			<point x="265" y="649" type="line"/>
			<point x="291" y="649" type="line"/>
			<point x="291" y="757" type="line"/>
			<point x="265" y="757" type="line"/>
		</contour>
	</outline>
</glyph>
<glyph name="cedi" format="2">
	<unicode hex="20B5"/>
	<advance width="485"/>
	<outline>
		<contour>
			<point x="287" y="-13" type="curve" smooth="yes"/>
			<point x="370" y="-13"/>
			<point x="428" y="35"/>
			<point x="452" y="110" type="curve"/>
			<point x="448" y="124"/>
			<point x="438" y="132"/>
			<point x="423" y="132" type="curve" smooth="yes"/>
			<point x="408" y="132"/>
			<point x="396" y="122"/>
			<point x="387" y="95" type="curve" smooth="yes"/>
			<point x="357" y="16" type="line"/>
			<point x="397" y="50" type="line"/>
			<point x="355" y="20"/>
			<point x="328" y="13"/>
			<point x="288" y="13" type="curve" smooth="yes"/>
			<point x="185" y="13"/>
			<point x="111" y="119"/>
			<point x="111" y="325" type="curve" smooth="yes"/>
			<point x="111" y="532"/>
			<point x="190" y="639"/>
			<point x="289" y="639" type="curve" smooth="yes"/>
			<point x="328" y="639"/>
			<point x="360" y="632"/>
			<point x="400" y="601" type="curve"/>
			<point x="357" y="636" type="line"/>
			<point x="388" y="556" type="line" smooth="yes"/>
			<point x="397" y="530"/>
			<point x="408" y="520"/>
			<point x="423" y="520" type="curve" smooth="yes"/>
			<point x="437" y="520"/>
			<point x="448" y="527"/>
			<point x="453" y="542" type="curve"/>
			<point x="429" y="616"/>
			<point x="372" y="664"/>
			<point x="288" y="664" type="curve" smooth="yes"/>
			<point x="153" y="664"/>
			<point x="59" y="536"/>
			<point x="59" y="325" type="curve" smooth="yes"/>
			<point x="59" y="115"/>
			<point x="145" y="-13"/>
		</contour>
		<contour>
			<point x="266" y="-115" type="line"/>
			<point x="292" y="-115" type="line"/>
			<point x="292" y="757" type="line"/>
			<point x="266" y="757" type="line"/>
		</contour>
	</outline>
</glyph>
<glyph name="ruble" format="2">
	<unicode hex="20BD"/>
	<advance width="485"/>
	<outline>
		<contour>
			<point x="24" y="279" type="line"/>
			<point x="217" y="279" type="line" smooth="yes"/>
			<point x="389" y="279"/>
			<point x="468" y="360"/>
			<point x="468" y="469" type="curve" smooth="yes"/>
			<point x="468" y="579"/>
			<point x="391" y="652"/>
			<point x="249" y="652" type="curve" smooth="yes"/>
			<point x="152" y="652" type="line"/>
			<point x="152" y="626" type="line"/>
			<point x="235" y="626" type="line" smooth="yes"/>
			<point x="365" y="626"/>
			<point x="420" y="564"/>
			<point x="420" y="469" type="curve" smooth="yes"/>
			<point x="420" y="374"/>
			<point x="363" y="307"/>
			<point x="221" y="307" type="curve" smooth="yes"/>
			<point x="24" y="307" type="line"/>
		</contour>
		<contour>
			<point x="126" y="0" type="curve"/>
			<point x="177" y="0" type="line"/>
			<point x="174" y="95"/>
			<point x="174" y="201"/>
			<point x="174" y="299" type="curve" smooth="yes"/>
			<point x="174" y="351" type="line" smooth="yes"/>
			<point x="174" y="452"/>
			<point x="174" y="558"/>
			<point x="177" y="652" type="curve"/>
			<point x="126" y="652" type="line"/>
			<point x="128" y="558"/>
			<point x="128" y="451"/>
			<point x="128" y="351" type="curve" smooth="yes"/>
			<point x="128" y="302" type="line" smooth="yes"/>
			<point x="128" y="200"/>
			<point x="128" y="93"/>
		</contour>
		<contour>
			<point x="31" y="0" type="line"/>
			<point x="281" y="0" type="line"/>
			<point x="281" y="22" type="line"/>
			<point x="161" y="32" type="line"/>
			<point x="144" y="32" type="line"/>
			<point x="31" y="22" type="line"/>
		</contour>
		<contour>
			<point x="31" y="630" type="line"/>
			<point x="144" y="619" type="line"/>
			<point x="153" y="619" type="line"/>
			<point x="153" y="652" type="line"/>
			<point x="31" y="652" type="line"/>
		</contour>
		<contour>
			<point x="24" y="159" type="line"/>
			<point x="384" y="159" type="line"/>
			<point x="384" y="187" type="line"/>
			<point x="24" y="187" type="line"/>
		</contour>
	</outline>
</glyph>
<glyph name="litre" format="2">
	<unicode hex="2113"/>
	<advance width="441"/>
	<outline>
		<contour>
			<point x="270" y="-13" type="curve" smooth="yes"/>
			<point x="338" y="-13"/>
			<point x="381" y="20"/>
			<point x="419" y="64" type="curve"/>
			<point x="406" y="82" type="line"/>
			<point x="368" y="43"/>
			<point x="329" y="20"/>
			<point x="280" y="20" type="curve" smooth="yes"/>
			<point x="201" y="20"/>
			<point x="138" y="98"/>
			<point x="138" y="376" type="curve" smooth="yes"/>
			<point x="138" y="644"/>
			<point x="195" y="731"/>
			<point x="260" y="731" type="curve" smooth="yes"/>
			<point x="310" y="731"/>
			<point x="337" y="687"/>
			<point x="337" y="596" type="curve" smooth="yes"/>
			<point x="337" y="457"/>
			<point x="281" y="316"/>
			<point x="146" y="168" type="curve"/>
			<point x="140" y="162" type="line"/>
			<point x="24" y="58" type="line"/>
			<point x="39" y="38" type="line"/>
			<point x="269" y="227"/>
			<point x="381" y="415"/>
			<point x="381" y="594" type="curve" smooth="yes"/>
			<point x="381" y="695"/>
			<point x="338" y="756"/>
			<point x="263" y="756" type="curve" smooth="yes"/>
			<point x="167" y="756"/>
			<point x="89" y="653"/>
			<point x="89" y="370" type="curve" smooth="yes"/>
			<point x="89" y="89"/>
			<point x="165" y="-13"/>
		</contour>
	</outline>
</glyph>
<glyph name="numero" format="2">
	<unicode hex="2116"/>
	<advance width="974"/>
	<outline>
		<contour>
			<point x="54" y="-13" type="curve" smooth="yes"/>
			<point x="81" y="-13"/>
			<point x="103" y="-6"/>
			<point x="119" y="9" type="curve" smooth="yes"/>
			<point x="160" y="47"/>
			<point x="172" y="100"/>
			<point x="172" y="218" type="curve" smooth="yes"/>
			<point x="172" y="614" type="line"/>
			<point x="147" y="635" type="line"/>
			<point x="147" y="200" type="line" smooth="yes"/>
			<point x="147" y="109"/>
			<point x="135" y="55"/>
			<point x="99" y="23" type="curve"/>
			<point x="114" y="27" type="line"/>
			<point x="87" y="43"/>
			<point x="75" y="51"/>
			<point x="48" y="51" type="curve" smooth="yes"/>
			<point x="25" y="51"/>
			<point x="11" y="42"/>
			<point x="7" y="25" type="curve"/>
			<point x="7" y="0"/>
			<point x="26" y="-13"/>
		</contour>
		<contour>
			<point x="505" y="-5" type="line"/>
			<point x="529" y="-5" type="line"/>
			<point x="529" y="465" type="line" smooth="yes"/>
			<point x="529" y="553"/>
			<point x="542" y="609"/>
			<point x="580" y="638" type="curve"/>
			<point x="561" y="634" type="line"/>
			<point x="584" y="619"/>
			<point x="597" y="610"/>
			<point x="623" y="610" type="curve" smooth="yes"/>
			<point x="646" y="610"/>
			<point x="660" y="619"/>
			<point x="665" y="636" type="curve"/>
			<point x="665" y="660"/>
			<point x="645" y="674"/>
			<point x="618" y="674" type="curve" smooth="yes"/>
			<point x="590" y="674"/>
			<point x="570" y="665"/>
			<point x="553" y="649" type="curve" smooth="yes"/>
			<point x="516" y="614"/>
			<point x="504" y="557"/>
			<point x="504" y="449" type="curve" smooth="yes"/>
			<point x="504" y="61" type="line"/>
			<point x="515" y="67" type="line"/>
			<point x="172" y="652" type="line"/>
			<point x="36" y="652" type="line"/>
			<point x="36" y="629" type="line"/>
			<point x="165" y="618" type="line"/>
			<point x="125" y="635" type="line"/>
		</contour>
		<contour>
			<point x="641" y="0" type="line"/>
			<point x="917" y="0" type="line"/>
			<point x="917" y="29" type="line"/>
			<point x="641" y="29" type="line"/>
		</contour>
		<contour>
			<point x="779" y="157" type="curve" smooth="yes"/>
			<point x="853" y="157"/>
			<point x="926" y="213"/>
			<point x="926" y="322" type="curve" smooth="yes"/>
			<point x="926" y="431"/>
			<point x="852" y="489"/>
			<point x="779" y="489" type="curve" smooth="yes"/>
			<point x="706" y="489"/>
			<point x="633" y="431"/>
			<point x="633" y="322" type="curve" smooth="yes"/>
			<point x="633" y="213"/>
			<point x="705" y="157"/>
		</contour>
		<contour>
			<point x="779" y="179" type="curve" smooth="yes"/>
			<point x="716" y="179"/>
			<point x="678" y="232"/>
			<point x="678" y="322" type="curve" smooth="yes"/>
			<point x="678" y="413"/>
			<point x="717" y="466"/>
			<point x="779" y="466" type="curve" smooth="yes"/>
			<point x="842" y="466"/>
			<point x="880" y="413"/>
			<point x="880" y="322" type="curve" smooth="yes"/>
			<point x="880" y="232"/>
			<point x="842" y="179"/>
		</contour>
	</outline>
</glyph>
<glyph name="trademark" format="2">
	<unicode hex="2122"/>
	<advance width="699"/>
	<outline>
		<contour>
			<point x="18" y="592" type="line"/>
			<point x="36" y="592" type="line"/>
			<point x="54" y="672" type="line"/>
			<point x="34" y="653" type="line"/>
			<point x="249" y="653" type="line"/>
			<point x="229" y="672" type="line"/>
			<point x="246" y="592" type="line"/>
			<point x="266" y="592" type="line"/>
			<point x="262" y="674" type="line"/>
			<point x="21" y="674" type="line"/>
		</contour>
		<contour>
			<point x="76" y="379" type="line"/>
			<point x="206" y="379" type="line"/>
			<point x="206" y="396" type="line"/>
			<point x="148" y="402" type="line"/>
			<point x="135" y="402" type="line"/>
			<point x="76" y="396" type="line"/>
		</contour>
		<contour>
			<point x="121" y="379" type="line"/>
			<point x="161" y="379" type="line"/>
			<point x="161" y="674" type="line"/>
			<point x="121" y="674" type="line"/>
		</contour>
		<contour>
			<point x="302" y="379" type="line"/>
			<point x="400" y="379" type="line"/>
			<point x="400" y="396" type="line"/>
			<point x="355" y="402" type="line"/>
			<point x="346" y="402" type="line"/>
			<point x="302" y="396" type="line"/>
		</contour>
		<contour>
			<point x="342" y="379" type="line"/>
			<point x="361" y="379" type="line"/>
			<point x="361" y="673" type="line"/>
			<point x="342" y="673" type="line"/>
		</contour>
		<contour>
			<point x="464" y="379" type="line"/>
			<point x="476" y="379" type="line"/>
			<point x="592" y="653" type="line"/>
			<point x="601" y="653" type="line"/>
			<point x="601" y="674" type="line"/>
			<point x="582" y="674" type="line"/>
			<point x="476" y="428" type="line"/>
			<point x="486" y="428" type="line"/>
			<point x="381" y="674" type="line"/>
			<point x="302" y="674" type="line"/>
			<point x="302" y="656" type="line"/>
			<point x="347" y="651" type="line"/>
			<point x="347" y="643" type="line"/>
			<point x="353" y="643" type="line"/>
		</contour>
		<contour>
			<point x="541" y="379" type="line"/>
			<point x="659" y="379" type="line"/>
			<point x="659" y="396" type="line"/>
			<point x="604" y="402" type="line"/>
			<point x="593" y="402" type="line"/>
			<point x="541" y="396" type="line"/>
		</contour>
		<contour>
			<point x="579" y="379" type="line"/>
			<point x="619" y="379" type="line"/>
			<point x="619" y="674" type="line"/>
			<point x="588" y="674" type="line"/>
			<point x="579" y="643" type="line"/>
		</contour>
		<contour>
			<point x="595" y="651" type="line"/>
			<point x="604" y="651" type="line"/>
			<point x="659" y="656" type="line"/>
			<point x="659" y="674" type="line"/>
			<point x="595" y="674" type="line"/>
		</contour>
	</outline>
</glyph>
<glyph name="arrowupleft" format="2">
	<unicode hex="2196"/>
	<advance width="660"/>
	<outline>
		<contour>
			<point x="564" y="71" type="line"/>
			<point x="429" y="206" type="line"/>
			<point x="143" y="479" type="line"/>
			<point x="134" y="459" type="line"/>
			<point x="544" y="460" type="line"/>
			<point x="544" y="481" type="line"/>
			<point x="115" y="499" type="line"/>
			<point x="107" y="491" type="line"/>
			<point x="124" y="62" type="line"/>
			<point x="146" y="63" type="line"/>
			<point x="146" y="473" type="line"/>
			<point x="127" y="463" type="line"/>
			<point x="400" y="177" type="line"/>
			<point x="535" y="42" type="line"/>
		</contour>
	</outline>
</glyph>
<glyph name="partialdiff" format="2">
	<unicode hex="2202"/>
	<advance width="517"/>
	<outline>
		<contour>
			<point x="211" y="-13" type="curve" smooth="yes"/>
			<point x="354" y="-13"/>
			<point x="471" y="152"/>
			<point x="471" y="404" type="curve" smooth="yes"/>
			<point x="471" y="574"/>
			<point x="390" y="663"/>
			<point x="272" y="663" type="curve" smooth="yes"/>
			<point x="226" y="663"/>
			<point x="183" y="650"/>
			<point x="142" y="626" type="curve"/>
			<point x="149" y="607" type="line"/>
			<point x="190" y="625"/>
			<point x="219" y="634"/>
			<point x="256" y="634" type="curve" smooth="yes"/>
			<point x="353" y="634"/>
			<point x="422" y="567"/>
			<point x="422" y="402" type="curve" smooth="yes"/>
			<point x="422" y="162"/>
			<point x="319" y="13"/>
			<point x="217" y="13" type="curve" smooth="yes"/>
			<point x="155" y="13"/>
			<point x="111" y="63"/>
			<point x="111" y="146" type="curve" smooth="yes"/>
			<point x="111" y="291"/>
			<point x="197" y="372"/>
			<point x="288" y="372" type="curve" smooth="yes"/>
			<point x="342" y="372"/>
			<point x="383" y="349"/>
			<point x="423" y="302" type="curve"/>
			<point x="433" y="323" type="line"/>
			<point x="427" y="323" type="line"/>
			<point x="396" y="370"/>
			<point x="346" y="400"/>
			<point x="284" y="400" type="curve" smooth="yes"/>
			<point x="167" y="400"/>
			<point x="61" y="309"/>
			<point x="61" y="148" type="curve" smooth="yes"/>
			<point x="61" y="50"/>
			<point x="125" y="-13"/>
		</contour>
	</outline>
</glyph>
<glyph name="minus" format="2">
	<unicode hex="2212"/>
	<advance width="521"/>
	<outline>
		<contour>
			<point x="486" y="317" type="line"/>
			<point x="486" y="350" type="line"/>
			<point x="35" y="350" type="line"/>
			<point x="35" y="317" type="line"/>
		</contour>
	</outline>
</glyph>
<glyph name="notequal" format="2">
	<unicode hex="2260"/>
	<advance width="521"/>
	<outline>
		<contour>
			<point x="120" y="68" type="line"/>
			<point x="410" y="580" type="line"/>
			<point x="388" y="593" type="line"/>
			<point x="98" y="80" type="line"/>
		</contour>
		<component base="equal"/>
	</outline>
</glyph>
<glyph name="lessequal" format="2">
	<unicode hex="2264"/>
	<advance width="521"/>
	<outline>
		<contour>
			<point x="486" y="0" type="line"/>
			<point x="486" y="33" type="line"/>
			<point x="35" y="33" type="line"/>
			<point x="35" y="0" type="line"/>
		</contour>
		<contour>
			<point x="49" y="307" type="line"/>
			<point x="446" y="97" type="line"/>
			<point x="463" y="126" type="line"/>
			<point x="77" y="328" type="line"/>
			<point x="77" y="310" type="line"/>
			<point x="463" y="510" type="line"/>
			<point x="446" y="539" type="line"/>
			<point x="49" y="331" type="line"/>
		</contour>
	</outline>
</glyph>
<glyph name="greaterequal" format="2">
	<unicode hex="2265"/>
	<advance width="521"/>
	<outline>
		<contour>
			<point x="35" y="0" type="line"/>
			<point x="486" y="0" type="line"/>
			<point x="486" y="33" type="line"/>
			<point x="35" y="33" type="line"/>
		</contour>
		<contour>
			<point x="472" y="307" type="line"/>
			<point x="472" y="331" type="line"/>
			<point x="75" y="539" type="line"/>
			<point x="58" y="510" type="line"/>
			<point x="443" y="310" type="line"/>
			<point x="443" y="328" type="line"/>
			<point x="58" y="126" type="line"/>
			<point x="75" y="97" type="line"/>
		</contour>
	</outline>
</glyph>
<glyph name="trianglewhitedown" format="2">
	<unicode hex="25BD"/>
	<advance width="593"/>
	<outline>
		<contour>
			<point x="548" y="469" type="line"/>
			<point x="543" y="477" type="line"/>
			<point x="50" y="477" type="line"/>
			<point x="45" y="469" type="line"/>
			<point x="292" y="41" type="line"/>
			<point x="302" y="41" type="line"/>
		</contour>
		<contour>
			<point x="297" y="92" type="line"/>
			<point x="91" y="448" type="line"/>
			<point x="502" y="448" type="line"/>
		</contour>
	</outline>
</glyph>
<glyph name="fisheye" format="2">
	<unicode hex="25C9"/>
	<advance width="442"/>
	<outline>
		<contour>
			<point x="221" y="277" type="curve" smooth="yes"/>
			<point x="253" y="277"/>
			<point x="275" y="301"/>
			<point x="275" y="330" type="curve" smooth="yes"/>
			<point x="275" y="360"/>
			<point x="252" y="383"/>
			<point x="221" y="383" type="curve" smooth="yes"/>
			<point x="190" y="383"/>
			<point x="168" y="360"/>
			<point x="168" y="330" type="curve" smooth="yes"/>
			<point x="168" y="301"/>
			<point x="190" y="277"/>
		</contour>
		<contour>
			<point x="221" y="156" type="curve" smooth="yes"/>
			<point x="125" y="156"/>
			<point x="51" y="232"/>
			<point x="51" y="330" type="curve" smooth="yes"/>
			<point x="51" y="429"/>
			<point x="125" y="503"/>
			<point x="221" y="503" type="curve" smooth="yes"/>
			<point x="317" y="503"/>
			<point x="391" y="429"/>
			<point x="391" y="330" type="curve" smooth="yes"/>
			<point x="391" y="233"/>
			<point x="317" y="156"/>
		</contour>
		<contour>
			<point x="221" y="132" type="curve" smooth="yes"/>
			<point x="333" y="132"/>
			<point x="418" y="218"/>
			<point x="418" y="330" type="curve" smooth="yes"/>
			<point x="418" y="441"/>
			<point x="333" y="528"/>
			<point x="221" y="528" type="curve" smooth="yes"/>
			<point x="109" y="528"/>
			<point x="24" y="441"/>
			<point x="24" y="330" type="curve" smooth="yes"/>
			<point x="24" y="218"/>
			<point x="109" y="132"/>
		</contour>
	</outline>
</glyph>
<glyph name="lozenge" format="2">
	<unicode hex="25CA"/>
	<advance width="568"/>
	<outline>
		<contour>
			<point x="444" y="323" type="line"/>
			<point x="284" y="9" type="line"/>
			<point x="124" y="323" type="line"/>
			<point x="284" y="636" type="line"/>
		</contour>
		<contour>
			<point x="484" y="324" type="line"/>
			<point x="289" y="701" type="line"/>
			<point x="279" y="701" type="line"/>
			<point x="84" y="323" type="line"/>
			<point x="279" y="-56" type="line"/>
			<point x="289" y="-56" type="line"/>
		</contour>
	</outline>
</glyph>
<glyph name="eighthnote" format="2">
	<unicode hex="266A"/>
	<advance width="498"/>
	<outline>
		<contour>
			<point x="48" y="50" type="curve" smooth="yes"/>
			<point x="48" y="8"/>
			<point x="81" y="-13"/>
			<point x="132" y="-13" type="curve" smooth="yes"/>
			<point x="215" y="-13"/>
			<point x="262" y="37"/>
			<point x="262" y="128" type="curve" smooth="yes"/>
			<point x="262" y="648" type="line"/>
			<point x="251" y="625" type="line"/>
			<point x="286" y="593"/>
			<point x="312" y="569"/>
			<point x="334" y="548" type="curve" smooth="yes"/>
			<point x="387" y="499"/>
			<point x="407" y="454"/>
			<point x="407" y="391" type="curve" smooth="yes"/>
			<point x="407" y="346"/>
			<point x="394" y="299"/>
			<point x="374" y="264" type="curve"/>
			<point x="385" y="257" type="line"/>
			<point x="425" y="306"/>
			<point x="454" y="371"/>
			<point x="454" y="439" type="curve" smooth="yes"/>
			<point x="454" y="499"/>
			<point x="429" y="547"/>
			<point x="381" y="591" type="curve" smooth="yes"/>
			<point x="290" y="674"/>
			<point x="267" y="697"/>
			<point x="256" y="754" type="curve"/>
			<point x="237" y="754" type="line"/>
			<point x="237" y="98" type="line"/>
			<point x="248" y="112" type="line"/>
			<point x="223" y="127"/>
			<point x="198" y="134"/>
			<point x="165" y="134" type="curve" smooth="yes"/>
			<point x="98" y="134"/>
			<point x="48" y="99"/>
		</contour>
	</outline>
</glyph>
<glyph name="check" format="2">
	<unicode hex="2713"/>
	<advance width="577"/>
	<outline>
		<contour>
			<point x="45" y="351" type="line"/>
			<point x="106" y="236"/>
			<point x="160" y="116"/>
			<point x="206" y="-4" type="curve"/>
			<point x="232" y="0" type="line"/>
			<point x="326" y="274"/>
			<point x="436" y="540"/>
			<point x="563" y="793" type="curve"/>
			<point x="539" y="805" type="line"/>
			<point x="410" y="554"/>
			<point x="298" y="297"/>
			<point x="210" y="34" type="curve"/>
			<point x="232" y="37" type="line"/>
			<point x="190" y="153"/>
			<point x="142" y="262"/>
			<point x="84" y="374" type="curve"/>
		</contour>
	</outline>
</glyph>
<glyph name="squareshadow" format="2">
	<unicode hex="2752"/>
	<advance width="846"/>
	<outline>
		<contour>
			<point x="87" y="0" type="line"/>
			<point x="87" y="600" type="line"/>
			<point x="697" y="600" type="line"/>
			<point x="697" y="0" type="line"/>
		</contour>
		<contour>
			<point x="58" y="-27" type="line"/>
			<point x="714" y="-27" type="line"/>
			<point x="788" y="90" type="line"/>
			<point x="788" y="683" type="line"/>
			<point x="170" y="683" type="line"/>
			<point x="58" y="614" type="line"/>
		</contour>
	</outline>
</glyph>
<glyph name="copyleft" format="2">
	<unicode hex="1F12F"/>
	<advance width="758"/>
	<outline>
		<contour>
			<point x="365" y="131" type="curve" smooth="yes"/>
			<point x="480" y="131"/>
			<point x="557" y="215"/>
			<point x="557" y="339" type="curve" smooth="yes"/>
			<point x="557" y="464"/>
			<point x="476" y="549"/>
			<point x="364" y="549" type="curve" smooth="yes"/>
			<point x="321" y="549"/>
			<point x="289" y="541"/>
			<point x="252" y="519" type="curve"/>
			<point x="249" y="430" type="line"/>
			<point x="274" y="430" type="line"/>
			<point x="292" y="522" type="line"/>
			<point x="267" y="496" type="line"/>
			<point x="298" y="518"/>
			<point x="325" y="526"/>
			<point x="360" y="526" type="curve" smooth="yes"/>
			<point x="450" y="526"/>
			<point x="513" y="456"/>
			<point x="513" y="339" type="curve" smooth="yes"/>
			<point x="513" y="222"/>
			<point x="450" y="154"/>
			<point x="363" y="154" type="curve" smooth="yes"/>
			<point x="331" y="154"/>
			<point x="295" y="161"/>
			<point x="264" y="183" type="curve"/>
			<point x="287" y="159" type="line"/>
			<point x="270" y="250" type="line"/>
			<point x="245" y="250" type="line"/>
			<point x="248" y="161" type="line"/>
			<point x="286" y="138"/>
			<point x="323" y="131"/>
		</contour>
		<contour>
			<point x="379" y="-14" type="curve" smooth="yes"/>
			<point x="570" y="-14"/>
			<point x="728" y="120"/>
			<point x="728" y="339" type="curve" smooth="yes"/>
			<point x="728" y="557"/>
			<point x="570" y="687"/>
			<point x="379" y="687" type="curve" smooth="yes"/>
			<point x="187" y="687"/>
			<point x="30" y="557"/>
			<point x="30" y="339" type="curve" smooth="yes"/>
			<point x="30" y="120"/>
			<point x="187" y="-14"/>
		</contour>
		<contour>
			<point x="379" y="11" type="curve" smooth="yes"/>
			<point x="200" y="11"/>
			<point x="62" y="138"/>
			<point x="62" y="339" type="curve" smooth="yes"/>
			<point x="62" y="539"/>
			<point x="200" y="662"/>
			<point x="379" y="662" type="curve" smooth="yes"/>
			<point x="557" y="662"/>
			<point x="696" y="539"/>
			<point x="696" y="339" type="curve" smooth="yes"/>
			<point x="696" y="136"/>
			<point x="558" y="11"/>
		</contour>
	</outline>
</glyph>
<glyph name="commercemark" format="2">
	<unicode hex="1F16A"/>
	<advance width="698"/>
	<outline>
		<contour>
			<point x="559" y="372" type="curve" smooth="yes"/>
			<point x="591" y="372"/>
			<point x="619" y="377"/>
			<point x="645" y="394" type="curve"/>
			<point x="646" y="458" type="line"/>
			<point x="625" y="458" type="line"/>
			<point x="610" y="390" type="line"/>
			<point x="631" y="409" type="line"/>
			<point x="608" y="395"/>
			<point x="585" y="389"/>
			<point x="561" y="389" type="curve" smooth="yes"/>
			<point x="500" y="389"/>
			<point x="453" y="435"/>
			<point x="453" y="526" type="curve" smooth="yes"/>
			<point x="453" y="616"/>
			<point x="499" y="663"/>
			<point x="562" y="663" type="curve" smooth="yes"/>
			<point x="588" y="663"/>
			<point x="606" y="657"/>
			<point x="628" y="644" type="curve"/>
			<point x="606" y="663" type="line"/>
			<point x="621" y="593" type="line"/>
			<point x="643" y="593" type="line"/>
			<point x="641" y="657" type="line"/>
			<point x="616" y="673"/>
			<point x="589" y="681"/>
			<point x="560" y="681" type="curve" smooth="yes"/>
			<point x="475" y="681"/>
			<point x="410" y="623"/>
			<point x="410" y="526" type="curve" smooth="yes"/>
			<point x="410" y="427"/>
			<point x="471" y="372"/>
		</contour>
		<contour>
			<point x="21" y="379" type="line"/>
			<point x="119" y="379" type="line"/>
			<point x="119" y="396" type="line"/>
			<point x="75" y="402" type="line"/>
			<point x="65" y="402" type="line"/>
			<point x="21" y="396" type="line"/>
		</contour>
		<contour>
			<point x="61" y="379" type="line"/>
			<point x="80" y="379" type="line"/>
			<point x="80" y="673" type="line"/>
			<point x="61" y="673" type="line"/>
		</contour>
		<contour>
			<point x="183" y="379" type="line"/>
			<point x="196" y="379" type="line"/>
			<point x="311" y="653" type="line"/>
			<point x="320" y="653" type="line"/>
			<point x="320" y="674" type="line"/>
			<point x="301" y="674" type="line"/>
			<point x="196" y="428" type="line"/>
			<point x="205" y="428" type="line"/>
			<point x="100" y="674" type="line"/>
			<point x="22" y="674" type="line"/>
			<point x="22" y="656" type="line"/>
			<point x="67" y="651" type="line"/>
			<point x="67" y="643" type="line"/>
			<point x="72" y="643" type="line"/>
		</contour>
		<contour>
			<point x="261" y="379" type="line"/>
			<point x="378" y="379" type="line"/>
			<point x="378" y="396" type="line"/>
			<point x="324" y="402" type="line"/>
			<point x="312" y="402" type="line"/>
			<point x="261" y="396" type="line"/>
		</contour>
		<contour>
			<point x="298" y="379" type="line"/>
			<point x="338" y="379" type="line"/>
			<point x="338" y="674" type="line"/>
			<point x="307" y="674" type="line"/>
			<point x="298" y="643" type="line"/>
		</contour>
		<contour>
			<point x="314" y="651" type="line"/>
			<point x="324" y="651" type="line"/>
			<point x="378" y="656" type="line"/>
			<point x="378" y="674" type="line"/>
			<point x="314" y="674" type="line"/>
		</contour>
	</outline>
</glyph>
<glyph name="deposeemark" format="2">
	<unicode hex="1F16B"/>
	<advance width="708"/>
	<outline>
		<contour>
			<point x="479" y="379" type="line"/>
			<point x="531" y="379" type="line" smooth="yes"/>
			<point x="625" y="379"/>
			<point x="685" y="434"/>
			<point x="685" y="526" type="curve" smooth="yes"/>
			<point x="685" y="623"/>
			<point x="627" y="674"/>
			<point x="537" y="674" type="curve" smooth="yes"/>
			<point x="479" y="674" type="line"/>
			<point x="479" y="655" type="line"/>
			<point x="535" y="655" type="line" smooth="yes"/>
			<point x="604" y="655"/>
			<point x="642" y="612"/>
			<point x="642" y="526" type="curve" smooth="yes"/>
			<point x="642" y="447"/>
			<point x="604" y="398"/>
			<point x="531" y="398" type="curve" smooth="yes"/>
			<point x="479" y="398" type="line"/>
		</contour>
		<contour>
			<point x="414" y="379" type="line"/>
			<point x="480" y="379" type="line"/>
			<point x="480" y="402" type="line"/>
			<point x="471" y="402" type="line"/>
			<point x="414" y="396" type="line"/>
		</contour>
		<contour>
			<point x="414" y="656" type="line"/>
			<point x="471" y="650" type="line"/>
			<point x="480" y="650" type="line"/>
			<point x="480" y="674" type="line"/>
			<point x="414" y="674" type="line"/>
		</contour>
		<contour>
			<point x="458" y="379" type="line"/>
			<point x="498" y="379" type="line"/>
			<point x="498" y="674" type="line"/>
			<point x="458" y="674" type="line"/>
		</contour>
		<contour>
			<point x="20" y="379" type="line"/>
			<point x="118" y="379" type="line"/>
			<point x="118" y="396" type="line"/>
			<point x="74" y="402" type="line"/>
			<point x="64" y="402" type="line"/>
			<point x="20" y="396" type="line"/>
		</contour>
		<contour>
			<point x="60" y="379" type="line"/>
			<point x="79" y="379" type="line"/>
			<point x="79" y="673" type="line"/>
			<point x="60" y="673" type="line"/>
		</contour>
		<contour>
			<point x="182" y="379" type="line"/>
			<point x="195" y="379" type="line"/>
			<point x="310" y="653" type="line"/>
			<point x="319" y="653" type="line"/>
			<point x="319" y="674" type="line"/>
			<point x="300" y="674" type="line"/>
			<point x="195" y="428" type="line"/>
			<point x="205" y="428" type="line"/>
			<point x="99" y="674" type="line"/>
			<point x="21" y="674" type="line"/>
			<point x="21" y="656" type="line"/>
			<point x="66" y="651" type="line"/>
			<point x="66" y="643" type="line"/>
			<point x="71" y="643" type="line"/>
		</contour>
		<contour>
			<point x="260" y="379" type="line"/>
			<point x="377" y="379" type="line"/>
			<point x="377" y="396" type="line"/>
			<point x="323" y="402" type="line"/>
			<point x="311" y="402" type="line"/>
			<point x="260" y="396" type="line"/>
		</contour>
		<contour>
			<point x="297" y="379" type="line"/>
			<point x="337" y="379" type="line"/>
			<point x="337" y="674" type="line"/>
			<point x="306" y="674" type="line"/>
			<point x="297" y="643" type="line"/>
		</contour>
		<contour>
			<point x="313" y="651" type="line"/>
			<point x="323" y="651" type="line"/>
			<point x="377" y="656" type="line"/>
			<point x="377" y="674" type="line"/>
			<point x="313" y="674" type="line"/>
		</contour>
	</outline>
</glyph>
<glyph name="AE.sc" format="2">
	<advance width="804"/>
	<outline>
		<contour>
			<point x="405" y="0" type="curve"/>
			<point x="459" y="0" type="line"/>
			<point x="457" y="80"/>
			<point x="457" y="170"/>
			<point x="457" y="267" type="curve" smooth="yes"/>
			<point x="457" y="291" type="line" smooth="yes"/>
			<point x="457" y="382"/>
			<point x="457" y="470"/>
			<point x="459" y="550" type="curve"/>
			<point x="408" y="550" type="line"/>
			<point x="408" y="233" type="line" smooth="yes"/>
			<point x="408" y="155"/>
			<point x="408" y="72"/>
		</contour>
		<contour>
			<point x="13" y="0" type="line"/>
			<point x="195" y="0" type="line"/>
			<point x="195" y="22" type="line"/>
			<point x="109" y="30" type="line"/>
			<point x="95" y="30" type="line"/>
			<point x="13" y="22" type="line"/>
		</contour>
		<contour>
			<point x="617" y="188" type="line"/>
			<point x="639" y="188" type="line"/>
			<point x="639" y="371" type="line"/>
			<point x="617" y="371" type="line"/>
			<point x="604" y="289" type="line"/>
			<point x="604" y="274" type="line"/>
		</contour>
		<contour>
			<point x="712" y="411" type="line"/>
			<point x="740" y="411" type="line"/>
			<point x="732" y="550" type="line"/>
			<point x="432" y="550" type="line"/>
			<point x="432" y="523" type="line"/>
			<point x="691" y="523" type="line"/>
		</contour>
		<contour>
			<point x="432" y="0" type="line"/>
			<point x="746" y="0" type="line"/>
			<point x="754" y="140" type="line"/>
			<point x="725" y="140" type="line"/>
			<point x="705" y="27" type="line"/>
			<point x="432" y="27" type="line"/>
		</contour>
		<contour>
			<point x="300" y="528" type="line"/>
			<point x="388" y="519" type="line"/>
			<point x="431" y="519" type="line"/>
			<point x="431" y="550" type="line"/>
			<point x="300" y="550" type="line"/>
		</contour>
		<contour>
			<point x="323" y="0" type="line"/>
			<point x="433" y="0" type="line"/>
			<point x="433" y="31" type="line"/>
			<point x="424" y="31" type="line"/>
			<point x="323" y="22" type="line"/>
		</contour>
		<contour>
			<point x="68" y="0" type="line"/>
			<point x="101" y="0" type="line"/>
			<point x="415" y="550" type="line"/>
			<point x="383" y="550" type="line"/>
		</contour>
		<contour>
			<point x="202" y="205" type="line"/>
			<point x="433" y="205" type="line"/>
			<point x="431" y="229" type="line"/>
			<point x="215" y="229" type="line"/>
		</contour>
		<contour>
			<point x="432" y="267" type="line"/>
			<point x="620" y="267" type="line"/>
			<point x="620" y="293" type="line"/>
			<point x="432" y="293" type="line"/>
		</contour>
	</outline>
	<anchor name="aboveUC" x="531" y="570"/>
</glyph>
<glyph name="B.sups" format="2">
	<advance width="392"/>
	<outline>
		<contour>
			<point x="95" y="433" type="line"/>
			<point x="138" y="433" type="line"/>
			<point x="138" y="852" type="line"/>
			<point x="95" y="852" type="line"/>
		</contour>
		<contour>
			<point x="33" y="833" type="line"/>
			<point x="110" y="826" type="line"/>
			<point x="118" y="826" type="line"/>
			<point x="118" y="852" type="line"/>
			<point x="33" y="852" type="line"/>
		</contour>
		<contour>
			<point x="33" y="433" type="line"/>
			<point x="118" y="433" type="line"/>
			<point x="118" y="459" type="line"/>
			<point x="110" y="459" type="line"/>
			<point x="33" y="452" type="line"/>
		</contour>
		<contour>
			<point x="116" y="433" type="line"/>
			<point x="200" y="433" type="line" smooth="yes"/>
			<point x="313" y="433"/>
			<point x="362" y="487"/>
			<point x="362" y="547" type="curve" smooth="yes"/>
			<point x="362" y="606"/>
			<point x="318" y="650"/>
			<point x="213" y="654" type="curve"/>
			<point x="210" y="650" type="line"/>
			<point x="301" y="657"/>
			<point x="340" y="702"/>
			<point x="340" y="753" type="curve" smooth="yes"/>
			<point x="340" y="811"/>
			<point x="294" y="852"/>
			<point x="201" y="852" type="curve" smooth="yes"/>
			<point x="116" y="852" type="line"/>
			<point x="116" y="830" type="line"/>
			<point x="188" y="830" type="line" smooth="yes"/>
			<point x="267" y="830"/>
			<point x="299" y="803"/>
			<point x="299" y="751" type="curve" smooth="yes"/>
			<point x="299" y="693"/>
			<point x="259" y="661"/>
			<point x="177" y="661" type="curve" smooth="yes"/>
			<point x="116" y="661" type="line"/>
			<point x="116" y="640" type="line"/>
			<point x="183" y="640" type="line" smooth="yes"/>
			<point x="277" y="640"/>
			<point x="319" y="608"/>
			<point x="319" y="546" type="curve" smooth="yes"/>
			<point x="319" y="487"/>
			<point x="275" y="454"/>
			<point x="194" y="454" type="curve" smooth="yes"/>
			<point x="116" y="454" type="line"/>
		</contour>
	</outline>
</glyph>
